<svg width="54" height="54" viewBox="0 0 54 54" fill="none" xmlns="http://www.w3.org/2000/svg">
<path d="M27.15 0.5C12.4316 0.5 0.5 12.4316 0.5 27.15C0.5 41.8684 12.4316 53.8 27.15 53.8C41.8684 53.8 53.8 41.8684 53.8 27.15C53.8 12.4316 41.8684 0.5 27.15 0.5ZM43.3898 39.5837C43.3898 41.6857 41.6857 43.3898 39.5837 43.3898H14.7163C12.6143 43.3898 10.9102 41.6857 10.9102 39.5837V14.7163C10.9102 12.6143 12.6143 10.9102 14.7163 10.9102H39.5836C41.6857 10.9102 43.3898 12.6143 43.3898 14.7163V39.5837Z" fill="#AF09FF"/>
<path d="M27.15 0.5C12.4316 0.5 0.5 12.4316 0.5 27.15C0.5 41.8684 12.4316 53.8 27.15 53.8C41.8684 53.8 53.8 41.8684 53.8 27.15C53.8 12.4316 41.8684 0.5 27.15 0.5ZM43.3898 39.5837C43.3898 41.6857 41.6857 43.3898 39.5837 43.3898H14.7163C12.6143 43.3898 10.9102 41.6857 10.9102 39.5837V14.7163C10.9102 12.6143 12.6143 10.9102 14.7163 10.9102H39.5836C41.6857 10.9102 43.3898 12.6143 43.3898 14.7163V39.5837Z" fill="black" fill-opacity="0.2"/>
<path d="M37.2312 18H18.2188C17.5457 18 17 18.5457 17 19.2188V27.963L18.6125 26.2096C19.1383 25.6379 19.8795 25.3125 20.6562 25.3125C21.4329 25.3125 22.1742 25.6378 22.6999 26.2096L29.4061 33.5018L32.7499 29.8659C33.2757 29.2942 34.0169 28.9688 34.7936 28.9688C35.5703 28.9688 36.3116 29.2941 36.8373 29.8659L38.4498 31.6193V19.2188C38.45 18.5457 37.9044 18 37.2312 18ZM29.9188 27.75C27.8995 27.75 26.2626 26.113 26.2626 24.0938C26.2626 22.0746 27.8996 20.4376 29.9188 20.4376C31.9381 20.4376 33.575 22.0746 33.575 24.0938C33.575 26.113 31.938 27.75 29.9188 27.75Z" fill="#AF09FF"/>
<path d="M37.2312 18H18.2188C17.5457 18 17 18.5457 17 19.2188V27.963L18.6125 26.2096C19.1383 25.6379 19.8795 25.3125 20.6562 25.3125C21.4329 25.3125 22.1742 25.6378 22.6999 26.2096L29.4061 33.5018L32.7499 29.8659C33.2757 29.2942 34.0169 28.9688 34.7936 28.9688C35.5703 28.9688 36.3116 29.2941 36.8373 29.8659L38.4498 31.6193V19.2188C38.45 18.5457 37.9044 18 37.2312 18ZM29.9188 27.75C27.8995 27.75 26.2626 26.113 26.2626 24.0938C26.2626 22.0746 27.8996 20.4376 29.9188 20.4376C31.9381 20.4376 33.575 22.0746 33.575 24.0938C33.575 26.113 31.938 27.75 29.9188 27.75Z" fill="black" fill-opacity="0.2"/>
</svg>
