<svg width="24" height="24" viewBox="0 0 24 24" fill="none" xmlns="http://www.w3.org/2000/svg">
<g clip-path="url(#clip0_430_2595)">
<circle cx="12" cy="12" r="12" fill="url(#paint0_radial_430_2595)"/>
<circle cx="12" cy="12" r="12" fill="url(#paint1_radial_430_2595)"/>
<path d="M8.94454 11.9161C8.94454 10.2748 10.2748 8.94383 11.9161 8.94383C13.5574 8.94383 14.8884 10.2748 14.8884 11.9161C14.8884 13.5574 13.5574 14.8884 11.9161 14.8884C10.2748 14.8884 8.94454 13.5574 8.94454 11.9161ZM7.33779 11.9161C7.33779 14.4447 9.38749 16.4944 11.9161 16.4944C14.4447 16.4944 16.4944 14.4447 16.4944 11.9161C16.4944 9.38749 14.4447 7.33779 11.9161 7.33779C9.38749 7.33779 7.33779 9.38735 7.33779 11.9161ZM15.6058 7.15626C15.6057 7.36787 15.6684 7.57476 15.7859 7.75075C15.9034 7.92675 16.0704 8.06395 16.2659 8.14501C16.4614 8.22607 16.6765 8.24734 16.884 8.20614C17.0916 8.16494 17.2823 8.06312 17.432 7.91354C17.5817 7.76397 17.6837 7.57337 17.725 7.36584C17.7664 7.15831 17.7453 6.94317 17.6644 6.74764C17.5835 6.5521 17.4464 6.38494 17.2705 6.26731C17.0946 6.14967 16.8878 6.08684 16.6762 6.08675C16.3925 6.08689 16.1201 6.19959 15.9195 6.40012C15.7189 6.60065 15.606 6.87261 15.6058 7.15626ZM8.314 19.1737C7.44471 19.1341 6.97223 18.9893 6.65824 18.867C6.24197 18.7049 5.94495 18.5119 5.63267 18.2C5.3204 17.8882 5.1271 17.5914 4.96575 17.1752C4.84335 16.8613 4.69855 16.3887 4.65904 15.5194C4.61581 14.5796 4.60718 14.2973 4.60718 11.9162C4.60718 9.53522 4.61652 9.25368 4.65904 8.31307C4.69862 7.44378 4.84449 6.97209 4.96575 6.65731C5.12781 6.24104 5.32083 5.94402 5.63267 5.63175C5.94452 5.31947 6.24125 5.12617 6.65824 4.96482C6.97209 4.84242 7.44471 4.69763 8.314 4.65811C9.25382 4.61488 9.53614 4.60625 11.9161 4.60625C14.2961 4.60625 14.5787 4.61545 15.5193 4.65825C16.3886 4.69784 16.8603 4.84371 17.175 4.96497C17.5913 5.12631 17.8883 5.32004 18.2006 5.63189C18.5129 5.94374 18.7055 6.24118 18.8675 6.65746C18.9899 6.9713 19.1347 7.44393 19.1742 8.31321C19.2175 9.25382 19.2261 9.53536 19.2261 11.9164C19.2261 14.2974 19.2175 14.5789 19.1742 15.5196C19.1346 16.3888 18.9891 16.8613 18.8675 17.1753C18.7055 17.5916 18.5124 17.8886 18.2006 18.2002C17.8887 18.5117 17.5913 18.705 17.175 18.8671C16.8612 18.9895 16.3886 19.1343 15.5193 19.1738C14.5794 19.217 14.2971 19.2257 11.9161 19.2257C9.53507 19.2257 9.25354 19.2169 8.314 19.1737ZM8.24017 3.054C7.291 3.09722 6.64241 3.24772 6.07598 3.46813C5.48973 3.69574 4.99278 4.0011 4.49655 4.49655C4.00031 4.992 3.69574 5.48902 3.46813 6.07598C3.24772 6.64276 3.09722 7.291 3.054 8.24017C3.01006 9.19084 3 9.49477 3 11.9161C3 14.3374 3.01006 14.6414 3.054 15.592C3.09722 16.5413 3.24772 17.1894 3.46813 17.7562C3.69574 18.3425 4.00039 18.8404 4.49655 19.3357C4.99271 19.8309 5.48902 20.1358 6.07598 20.3641C6.64348 20.5845 7.291 20.735 8.24017 20.7782C9.19134 20.8214 9.49477 20.8322 11.9161 20.8322C14.3374 20.8322 14.6414 20.8221 15.592 20.7782C16.5413 20.735 17.1894 20.5845 17.7562 20.3641C18.3425 20.1358 18.8394 19.8311 19.3356 19.3357C19.8319 18.8402 20.1358 18.3425 20.3641 17.7562C20.5845 17.1894 20.7357 16.5412 20.7782 15.592C20.8214 14.6406 20.8315 14.3374 20.8315 11.9161C20.8315 9.49477 20.8214 9.19084 20.7782 8.24017C20.735 7.29093 20.5845 6.64241 20.3641 6.07598C20.1358 5.48973 19.8311 4.99278 19.3356 4.49655C18.8402 4.00032 18.3425 3.69574 17.7569 3.46813C17.1894 3.24772 16.5412 3.09651 15.5927 3.054C14.6419 3.01056 14.3381 3 11.9172 3C9.4962 3 9.19134 3.01006 8.24017 3.054Z" fill="white"/>
</g>
<defs>
<radialGradient id="paint0_radial_430_2595" cx="0" cy="0" r="1" gradientUnits="userSpaceOnUse" gradientTransform="translate(1.55326 23.4742) scale(30.4711)">
<stop offset="0.09" stop-color="#FA8F21"/>
<stop offset="0.78" stop-color="#D82D7E"/>
</radialGradient>
<radialGradient id="paint1_radial_430_2595" cx="0" cy="0" r="1" gradientUnits="userSpaceOnUse" gradientTransform="translate(16.624 22.7036) scale(26.8148)">
<stop offset="0.64" stop-color="#8C3AAA" stop-opacity="0"/>
<stop offset="1" stop-color="#8C3AAA"/>
</radialGradient>
<clipPath id="clip0_430_2595">
<rect width="24" height="24" fill="white"/>
</clipPath>
</defs>
</svg>
