<svg width="65" height="65" viewBox="0 0 65 65" fill="none" xmlns="http://www.w3.org/2000/svg">
<path d="M32.5006 59.1663C47.2281 59.1663 59.1673 47.2271 59.1673 32.4997C59.1673 17.7721 47.2281 5.83301 32.5006 5.83301C17.773 5.83301 5.83398 17.7721 5.83398 32.4997C5.83398 47.2271 17.773 59.1663 32.5006 59.1663Z" fill="#AF09FF"/>
<path d="M32.5006 59.1663C47.2281 59.1663 59.1673 47.2271 59.1673 32.4997C59.1673 17.7721 47.2281 5.83301 32.5006 5.83301C17.773 5.83301 5.83398 17.7721 5.83398 32.4997C5.83398 47.2271 17.773 59.1663 32.5006 59.1663Z" fill="black" fill-opacity="0.2"/>
<path d="M21.6733 41.1927C21.4333 41.1927 21.2199 41.1661 20.9799 41.0594C18.8199 40.2594 17.0066 38.6861 15.8599 36.6327C13.1933 31.8327 14.8466 25.5661 19.5133 22.6595L25.7533 18.7928C28.0465 17.3794 30.7399 16.9528 33.2999 17.6195C35.8599 18.2862 38.0199 19.9661 39.3265 22.3128C41.9932 27.1128 40.3399 33.3794 35.6732 36.2861L34.9799 36.7927C34.0732 37.4327 32.8199 37.2194 32.1799 36.3394C31.5399 35.4327 31.7532 34.1794 32.6332 33.5394L33.4599 32.9527C36.4465 31.0861 37.4599 27.2194 35.8332 24.2595C35.0599 22.8728 33.8065 21.8861 32.3132 21.4861C30.8199 21.0861 29.2465 21.3262 27.8865 22.1795L21.6466 26.0461C18.7666 27.8327 17.7533 31.6994 19.38 34.6861C20.0466 35.8861 21.1133 36.8194 22.3933 37.2994C23.4333 37.6727 23.9666 38.8194 23.5666 39.8594C23.2733 40.6861 22.5 41.1927 21.6733 41.1927Z" fill="white"/>
<path d="M34.2593 47.5666C33.4593 47.5666 32.6327 47.4599 31.8327 47.2466C29.2727 46.5799 27.1126 44.8999 25.8326 42.5533C23.1659 37.7533 24.8192 31.4866 29.486 28.5799L30.1793 28.0733C31.086 27.4333 32.3393 27.6466 32.9793 28.5266C33.6193 29.4333 33.406 30.6866 32.526 31.3266L31.6993 31.9133C28.7127 33.7799 27.6993 37.6466 29.326 40.6066C30.0993 41.9933 31.3527 42.9799 32.846 43.3799C34.3393 43.7799 35.9127 43.5399 37.2727 42.6866L43.5127 38.8199C46.3927 37.0333 47.406 33.1666 45.7793 30.1799C45.1127 28.9799 44.046 28.0466 42.766 27.5666C41.726 27.1933 41.1927 26.0466 41.5927 25.0066C41.966 23.9666 43.1394 23.4333 44.1527 23.8333C46.3127 24.6333 48.126 26.2067 49.2727 28.2599C51.9394 33.0599 50.286 39.3266 45.6193 42.2333L39.3793 46.0999C37.806 47.0599 36.046 47.5666 34.2593 47.5666Z" fill="white"/>
</svg>
