<svg width="24" height="24" viewBox="0 0 24 24" fill="none" xmlns="http://www.w3.org/2000/svg">
<g clip-path="url(#clip0_430_2587)">
<g clip-path="url(#clip1_430_2587)">
<path d="M12.0003 24.0123C18.6343 24.0123 24.0123 18.6343 24.0123 12.0003C24.0123 5.36624 18.6343 -0.0117188 12.0003 -0.0117188C5.36624 -0.0117188 -0.0117188 5.36624 -0.0117188 12.0003C-0.0117188 18.6343 5.36624 24.0123 12.0003 24.0123Z" fill="#0077B5"/>
<path fill-rule="evenodd" clip-rule="evenodd" d="M8.86181 6.16468C8.86181 6.91249 8.29244 7.51765 7.40205 7.51765C6.54631 7.51765 5.97688 6.91249 5.99454 6.16468C5.97688 5.38054 6.54625 4.79297 7.4191 4.79297C8.29244 4.79297 8.84475 5.38054 8.86181 6.16468ZM6.06613 17.2969V8.58648H8.77316V17.2963L6.06613 17.2969Z" fill="white"/>
<path fill-rule="evenodd" clip-rule="evenodd" d="M10.9427 11.3667C10.9427 10.2803 10.9069 9.35402 10.8711 8.58807H13.2224L13.3474 9.78135H13.4009C13.7572 9.22903 14.6476 8.39258 16.0903 8.39258C17.8712 8.39258 19.2071 9.56825 19.2071 12.1321V17.2985H16.5V12.4713C16.5 11.3486 16.1085 10.5831 15.1289 10.5831C14.3805 10.5831 13.9355 11.0996 13.7577 11.598C13.6861 11.7764 13.6509 12.0253 13.6509 12.2753V17.2985H10.9438V11.3667H10.9427Z" fill="white"/>
</g>
</g>
<defs>
<clipPath id="clip0_430_2587">
<rect width="24" height="24" fill="white"/>
</clipPath>
<clipPath id="clip1_430_2587">
<rect width="24" height="24" fill="white"/>
</clipPath>
</defs>
</svg>
