<svg width="65" height="65" viewBox="0 0 65 65" fill="none" xmlns="http://www.w3.org/2000/svg">
<g clip-path="url(#clip0_328_5674)">
<path d="M5.83398 32.9997C5.83398 18.2721 17.7731 6.33301 32.5006 6.33301C47.2281 6.33301 59.1673 18.2721 59.1673 32.9997C59.1673 47.7271 47.2281 59.6663 32.5006 59.6663C17.7731 59.6663 5.83398 47.7271 5.83398 32.9997Z" fill="#AF09FF"/>
<path d="M5.83398 32.9997C5.83398 18.2721 17.7731 6.33301 32.5006 6.33301C47.2281 6.33301 59.1673 18.2721 59.1673 32.9997C59.1673 47.7271 47.2281 59.6663 32.5006 59.6663C17.7731 59.6663 5.83398 47.7271 5.83398 32.9997Z" fill="black" fill-opacity="0.2"/>
<path d="M27.0392 17.667C25.893 17.6668 24.8213 17.6666 23.9458 17.7974C22.9567 17.9452 21.9407 18.2945 21.1285 19.1969C20.3434 20.0692 20.0663 21.1086 19.9461 22.1015C19.8338 23.0296 19.8339 24.18 19.834 25.4791V25.5929C19.834 26.6975 20.7294 27.5929 21.834 27.5929C22.9386 27.5929 23.834 26.6975 23.834 25.5929C23.834 24.1452 23.8375 23.2406 23.9171 22.582C23.9545 22.273 24.0013 22.095 24.0391 21.9929C24.0709 21.9068 24.0937 21.8816 24.1013 21.8732L24.1034 21.8707C24.1071 21.8663 24.1097 21.8631 24.1338 21.8521C24.1781 21.8318 24.2918 21.7901 24.5368 21.7535C25.0811 21.6722 25.8476 21.667 27.1673 21.667H30.5007V26.3337C30.5007 27.4382 31.3961 28.3336 32.5007 28.3336C33.6052 28.3336 34.5007 27.4382 34.5007 26.3337V21.667H37.834C39.1537 21.667 39.9204 21.6722 40.4647 21.7535C40.7095 21.7901 40.8233 21.8318 40.8676 21.8521C40.8916 21.8631 40.8943 21.8663 40.898 21.8707C40.9057 21.8791 40.9305 21.9068 40.9623 21.9929C41.0001 22.095 41.0468 22.273 41.0841 22.582C41.1639 23.2406 41.1673 24.1452 41.1673 25.5929C41.1673 26.6975 42.0628 27.5929 43.1673 27.5929C44.2719 27.5929 45.1673 26.6975 45.1673 25.5929V25.4791C45.1673 24.18 45.1676 23.0295 45.0553 22.1015C44.9351 21.1086 44.658 20.0692 43.8729 19.1969C43.0607 18.2945 42.0447 17.9452 41.0556 17.7974C40.1801 17.6666 39.1084 17.6668 37.962 17.667H27.0392Z" fill="white"/>
<path d="M21.834 31C20.7294 31 19.834 31.8955 19.834 33C19.834 34.1045 20.7294 35 21.834 35H43.1673C44.2719 35 45.1673 34.1045 45.1673 33C45.1673 31.8955 44.2719 31 43.1673 31H21.834Z" fill="white"/>
<path d="M34.5007 39.667C34.5007 38.5625 33.6052 37.667 32.5007 37.667C31.3961 37.667 30.5007 38.5625 30.5007 39.667V44.3337H25.834C24.7294 44.3337 23.834 45.2291 23.834 46.3337C23.834 47.4382 24.7294 48.3337 25.834 48.3337H39.1673C40.2719 48.3337 41.1673 47.4382 41.1673 46.3337C41.1673 45.2291 40.2719 44.3337 39.1673 44.3337H34.5007V39.667Z" fill="white"/>
</g>
<defs>
<clipPath id="clip0_328_5674">
<rect width="64" height="64" fill="white" transform="translate(0.5 0.5)"/>
</clipPath>
</defs>
</svg>
