<svg width="65" height="64" viewBox="0 0 65 64" fill="none" xmlns="http://www.w3.org/2000/svg">
<path d="M32.5006 58.6663C47.2281 58.6663 59.1673 46.7271 59.1673 31.9997C59.1673 17.2721 47.2281 5.33301 32.5006 5.33301C17.773 5.33301 5.83398 17.2721 5.83398 31.9997C5.83398 46.7271 17.773 58.6663 32.5006 58.6663Z" fill="#AF09FF"/>
<path d="M32.5006 58.6663C47.2281 58.6663 59.1673 46.7271 59.1673 31.9997C59.1673 17.2721 47.2281 5.33301 32.5006 5.33301C17.773 5.33301 5.83398 17.2721 5.83398 31.9997C5.83398 46.7271 17.773 58.6663 32.5006 58.6663Z" fill="black" fill-opacity="0.2"/>
<path d="M24.7656 32V28.0533C24.7656 22.96 28.3656 20.9066 32.7656 23.44L36.1789 25.4133L39.5923 27.3867C43.9923 29.92 43.9923 34.08 39.5923 36.6133L36.1789 38.5867L32.7656 40.56C28.3656 43.0933 24.7656 41.0133 24.7656 35.9467V32Z" fill="white"/>
</svg>
