<svg width="421" height="391" viewBox="0 0 421 391" fill="none" xmlns="http://www.w3.org/2000/svg">
<path d="M278.871 12.8652H128.968C117.647 12.8652 108.469 22.0432 108.469 33.3648V335.436C108.469 346.757 117.647 355.935 128.968 355.935H278.871C290.192 355.935 299.37 346.757 299.37 335.436V33.3648C299.37 22.0432 290.192 12.8652 278.871 12.8652Z" fill="#2F193F"/>
<path d="M290.011 12.8652H140.109C128.787 12.8652 119.609 22.0432 119.609 33.3648V335.436C119.609 346.757 128.787 355.935 140.109 355.935H290.011C301.333 355.935 310.511 346.757 310.511 335.436V33.3648C310.511 22.0432 301.333 12.8652 290.011 12.8652Z" fill="#613583"/>
<path d="M140.107 23.1016C134.245 23.1016 129.844 27.5026 129.844 33.3653V308.313C129.844 314.176 134.245 318.577 140.107 318.577H290.01C295.872 318.577 300.273 314.176 300.273 308.313V33.3676C300.273 27.5049 295.872 23.1039 290.01 23.1039H140.107V23.1016Z" fill="#D3E4F9"/>
<path d="M140.107 23.1016C134.245 23.1016 129.844 27.5049 129.844 33.3676V40.4157H300.276V33.3676C300.276 27.5049 295.872 23.1016 290.01 23.1016H140.107Z" fill="#ADAAD2"/>
<path d="M300.268 50.2754L129.836 185.04V240.056L300.268 97.8609V50.2754ZM300.268 140.213L129.836 277.429V308.315C129.836 314.178 134.237 318.579 140.1 318.579H161.026L300.268 193.515V140.213Z" fill="white"/>
<path d="M200.202 327.933H237.512C242.356 327.933 246.284 331.86 246.284 336.705C246.284 341.549 242.356 345.476 237.512 345.476H200.202C195.357 345.476 191.43 341.549 191.43 336.705C191.43 331.86 195.357 327.933 200.202 327.933Z" fill="#3E2254"/>
<path d="M198.234 18.0039H231.87C235.076 18.0039 237.674 20.6023 237.674 23.8086C237.674 27.0148 235.076 29.6132 231.87 29.6132H198.234C195.028 29.6132 192.43 27.0148 192.43 23.8086C192.43 20.6023 195.028 18.0039 198.234 18.0039Z" fill="#613583"/>
<path d="M252.133 32.3281H249.414V37.5365H252.133V32.3281Z" fill="white"/>
<path d="M256.688 29.0498H253.969V37.5364H256.688V29.0498Z" fill="white"/>
<path d="M261.25 25.7344H258.531V37.5362H261.25V25.7344Z" fill="white"/>
<path d="M247.578 34.8916H244.859V37.5364H247.578V34.8916Z" fill="white"/>
<path d="M280.57 36.4388C279.25 35.1188 277.102 35.1211 275.782 36.4388L274.469 35.1257C276.513 33.0818 279.84 33.0818 281.881 35.1257L280.568 36.4388H280.57Z" fill="white"/>
<path d="M273.446 34.1093L272.133 32.7962C275.457 29.4716 280.865 29.4716 284.19 32.7962L282.877 34.1093C280.276 31.5086 276.044 31.5086 273.444 34.1093H273.446Z" fill="white"/>
<path d="M285.22 31.7685C283.336 29.8846 280.828 28.8453 278.165 28.8453C275.502 28.8453 272.994 29.8823 271.11 31.7685L269.797 30.4553C272.031 28.2212 275.005 26.9893 278.165 26.9893C281.325 26.9893 284.299 28.2212 286.533 30.4553L285.22 31.7685Z" fill="white"/>
<path d="M155.355 36.9103H143.411C142.214 36.9103 141.242 35.9359 141.242 34.7411V30.3192C141.242 29.1244 142.217 28.1523 143.411 28.1523H155.355C156.362 28.1523 157.211 28.8437 157.454 29.7763C158.208 29.9341 158.777 30.6023 158.777 31.4027V33.66C158.777 34.4604 158.208 35.1309 157.452 35.2887C157.211 36.2213 156.362 36.9127 155.355 36.9127V36.9103ZM143.411 30.006C143.235 30.006 143.098 30.1429 143.098 30.3169V34.7388C143.098 34.9151 143.235 35.052 143.411 35.052H155.355C155.529 35.052 155.666 34.9151 155.666 34.7388V33.4628H156.921V31.5952H155.666V30.3169C155.666 30.1429 155.529 30.006 155.355 30.006H143.411Z" fill="white"/>
<path d="M308.696 248.749C314.838 242.607 314.838 232.647 308.696 226.504C302.553 220.362 292.593 220.362 286.451 226.504C280.308 232.647 280.308 242.607 286.451 248.749C292.593 254.892 302.553 254.892 308.696 248.749Z" fill="#6997CF"/>
<path d="M263.516 202.818C263.516 202.818 275.357 241.59 292.998 239.133C310.639 236.674 296.429 198.529 283.171 188.251C264.416 193.872 263.516 202.818 263.516 202.818Z" fill="#99C1F1"/>
<path d="M288.331 190.379C288.496 181.693 281.589 174.518 272.903 174.353C264.218 174.187 257.043 181.094 256.877 189.78C256.712 198.466 263.619 205.641 272.305 205.806C280.991 205.971 288.166 199.064 288.331 190.379Z" fill="#6997CF"/>
<path d="M338.794 201.709C329.931 203.359 304.017 223.968 301.472 239.029C298.927 254.088 312.657 257.093 324.465 255.594C336.274 254.093 360.961 244.349 364.606 239.356C373.83 226.719 369.49 195.998 338.794 201.712V201.709Z" fill="#99C1F1"/>
<path d="M367.778 189.074C367.778 189.074 350.819 194.976 350.338 205.117C349.856 215.258 356.282 216.448 356.292 221.007C356.301 225.565 356.941 231.635 362.231 235.395C367.52 239.156 401.443 240.46 406.192 237.414C410.941 234.365 410.981 230.669 409.617 228.714C408.253 226.758 394.402 225.565 392.036 224.262C389.669 222.958 401.028 222.512 405.684 221.494C410.343 220.475 416.883 221.032 418.702 217.244C420.521 213.453 421.537 207.977 416.141 206.966C410.742 205.957 399.608 209.613 396.741 209.601C393.873 209.59 393.734 207.163 395.947 205.931C398.158 204.699 415.015 201.762 415.642 196.73C416.268 191.698 413.108 186.724 408.772 186.647C404.436 186.573 383.208 195.57 379.758 196.011C376.311 196.452 379.693 192.009 382.804 187.058C385.916 182.107 386.015 172.036 380.791 171.444C375.566 170.853 373.455 184.508 367.78 189.074H367.778Z" fill="#6997CF"/>
<path d="M344.451 204.154C341.261 203.052 339.556 203.89 339.844 205.62C340.132 207.351 345.788 207.207 344.451 204.154Z" fill="white"/>
<path d="M335.591 206.546C333.664 205.567 316.656 218.972 316.24 221.424C315.827 223.877 337.148 209.674 335.591 206.546Z" fill="white"/>
<path d="M288.934 199.225C287.602 199.538 287.674 199.222 287.776 201.069C287.878 202.916 297.573 224.949 299.056 223.779C300.538 222.61 290.412 200.173 288.936 199.225H288.934Z" fill="white"/>
<path d="M277.862 178.479C276.001 178.859 276.486 182.407 278.472 181.701C280.458 180.998 279.741 178.446 277.862 178.479Z" fill="white"/>
<path d="M282.104 182.499C281.271 181.413 279.759 182.23 279.993 183.942C280.227 185.654 283.436 185.339 282.104 182.499Z" fill="white"/>
<path d="M208.419 160.132C208.419 160.132 186.81 158.845 176.117 173.217C165.425 187.592 159.091 260.359 177.465 279.267C195.84 298.175 244.038 273.648 261.129 227.05C278.221 180.451 254.61 159.385 208.419 160.132Z" fill="#99C1F1"/>
<path d="M262.818 222.088C248.206 239.27 223.271 264.572 201.491 266.599C184.007 268.228 172.927 255.463 166.312 243.021C167.466 258.588 170.843 272.446 177.469 279.267C195.844 298.175 244.042 273.648 261.131 227.05C261.75 225.359 262.303 223.712 262.818 222.088Z" fill="#6997CF"/>
<path d="M211.261 195.464C207.329 196.074 201.211 196.652 199.383 202.679C197.116 210.157 201.568 214.33 205.041 215.95C208.514 217.569 235.069 218.506 244.665 217.523C254.26 216.539 256.754 214.927 257.492 209.955C258.23 204.983 257.71 199.093 252.288 197.274C246.864 195.455 215.63 194.787 211.259 195.466L211.261 195.464Z" fill="#6997CF"/>
<path d="M214.065 195.271C212.782 195.315 211.815 195.38 211.268 195.464C207.335 196.074 201.217 196.652 199.391 202.679C199.299 202.983 199.234 203.273 199.164 203.565C199.911 207.465 202.816 209.859 205.249 210.996C208.72 212.616 235.28 213.551 244.875 212.567C254.452 211.585 256.955 209.975 257.7 205.027C257.394 201.607 255.974 198.503 252.299 197.271C247.555 195.68 223.046 194.967 214.065 195.269V195.271Z" fill="#3C75BA"/>
<path d="M207.574 224.486C209.66 222.772 212.738 223.073 214.453 225.159C216.167 227.245 215.866 230.323 213.78 232.038C211.694 233.752 208.616 233.451 206.901 231.365C205.187 229.279 205.488 226.201 207.574 224.486Z" fill="#3C75BA"/>
<path d="M208.3 226.168C210.386 224.453 213.465 224.755 215.179 226.84C216.894 228.926 216.592 232.005 214.506 233.719C212.421 235.434 209.342 235.132 207.628 233.046C205.913 230.961 206.215 227.882 208.3 226.168Z" fill="#6997CF"/>
<path d="M241.523 224.636C243.093 222.441 246.146 221.935 248.341 223.506C250.536 225.077 251.042 228.13 249.471 230.324C247.9 232.519 244.847 233.025 242.652 231.454C240.458 229.884 239.952 226.831 241.523 224.636Z" fill="#3C75BA"/>
<path d="M242.671 226.069C244.242 223.875 247.295 223.369 249.49 224.94C251.684 226.51 252.19 229.563 250.619 231.758C249.049 233.953 245.996 234.459 243.801 232.888C241.606 231.317 241.1 228.264 242.671 226.069Z" fill="#6997CF"/>
<path d="M277.548 68.4503C277.548 68.4503 297.774 51.0108 310.704 57.4071C323.631 63.8033 306.648 93.3369 304.785 96.854C290.981 97.5732 274.931 75.3314 277.548 68.448V68.4503Z" fill="#6997CF"/>
<path d="M226.208 56.6271C181.416 55.4579 157.754 93.1556 157.986 117.683C158.216 142.21 167.992 166.168 213.204 172.678C258.414 179.188 300.91 168.488 308.341 126.48C315.772 84.4695 284.046 58.1398 226.208 56.6271Z" fill="#99C1F1"/>
<path d="M252.354 91.9471C240.52 96.4479 236.508 96.3504 223.405 92.1466C210.304 87.9428 200.952 80.7554 184.953 95.7612C168.954 110.767 172.694 129.844 178.907 140.345C185.12 150.845 195.191 159.443 210.169 160.371C225.147 161.299 233.525 159.784 248.043 159.916C262.562 160.048 276.881 161.958 288.196 152.903C299.51 143.848 304.972 125.265 298.299 106.034C291.627 86.8013 279.946 79.8436 252.354 91.9448V91.9471Z" fill="#6997CF"/>
<path d="M259.96 92.5786C236.978 102.313 234.837 99.7915 215.523 93.734C196.209 87.6764 184.817 93.6528 179.386 117.804C173.955 141.955 197.64 157.996 221.923 156.274C246.207 154.553 257.652 157.339 270.414 155.553C283.176 153.766 295.484 146.553 295.943 121.307C296.4 96.0632 282.714 84.7904 259.962 92.5763L259.96 92.5786Z" fill="#0E3769"/>
<path d="M198.852 125.923C198.576 125.923 198.297 125.845 198.051 125.677C197.397 125.234 197.225 124.346 197.666 123.692C202.021 117.242 209.517 113.321 216.809 113.72C222.984 114.052 228.065 117.411 231.118 123.181C231.487 123.879 231.22 124.745 230.522 125.114C229.826 125.485 228.961 125.218 228.59 124.52C226.026 119.673 221.787 116.855 216.653 116.578C210.368 116.24 203.84 119.662 200.035 125.295C199.759 125.703 199.309 125.923 198.849 125.923H198.852Z" fill="#6997CF"/>
<path d="M251.803 124.766C251.562 124.766 251.321 124.706 251.098 124.578C250.411 124.188 250.172 123.314 250.562 122.629C253.984 116.611 259.707 112.734 265.874 112.256C271.985 111.788 277.908 114.734 282.546 120.571C283.037 121.188 282.935 122.089 282.316 122.58C281.696 123.072 280.796 122.97 280.307 122.351C275.142 115.855 269.728 114.832 266.094 115.11C260.877 115.514 256 118.854 253.047 124.047C252.785 124.511 252.3 124.77 251.803 124.77V124.766Z" fill="#6997CF"/>
<path d="M158.516 126.342C161.033 147.637 173.338 166.937 213.193 172.677C242.214 176.855 270.098 173.925 288.327 160.193C277.664 162.796 257.357 166.218 225.575 165.527C184.5 164.633 173.584 155.284 158.516 126.342Z" fill="#6997CF"/>
<path d="M188.384 68.0745C188.384 68.0745 167.101 51.9435 154.6 59.1402C142.1 66.3368 160.906 94.7429 162.987 98.1371C176.81 97.9863 191.428 74.7793 188.384 68.0745Z" fill="#6997CF"/>
<path d="M224.414 137.781L263.14 136.849C263.14 136.849 257.827 148.421 242.389 148.896C226.952 149.372 224.414 137.784 224.414 137.784V137.781Z" fill="#6997CF"/>
<path d="M215.228 62.6087C210.829 60.4906 200.732 63.8847 200.282 68.5039C199.83 73.123 217.016 69.7404 215.228 62.6087Z" fill="white"/>
<path d="M225.604 60.7596C221.54 59.8687 219.241 59.929 219.76 63.126C220.282 66.3229 229.759 65.9424 225.604 60.7596Z" fill="white"/>
<path d="M306.2 59.1954C302.107 58.1885 301.035 60.0376 302.332 62.3065C303.627 64.5755 310.13 62.8216 306.2 59.1954Z" fill="white"/>
<path d="M298.871 61.9871C294.379 61.5858 289.765 65.7223 291.338 68.4553C292.911 71.1882 303.058 64.9173 298.871 61.9871Z" fill="white"/>
<path d="M153.547 66.5688C152.54 70.6613 154.389 71.7331 156.658 70.4362C158.927 69.1417 157.173 62.6387 153.547 66.5688Z" fill="white"/>
<path d="M156.332 73.8931C155.93 78.3846 160.067 82.9991 162.8 81.4261C165.533 79.8532 159.262 69.7055 156.332 73.8931Z" fill="white"/>
<path d="M253.562 88.3814C251.833 87.5415 243.954 91.0749 244.3 92.4761C244.646 93.8774 254.485 90.8707 253.562 88.3814Z" fill="white"/>
<path d="M257.657 86.5689C256.193 86.0515 254.949 87.1094 255.474 88.1929C255.998 89.2763 258.202 88.1233 257.657 86.5689Z" fill="white"/>
<path d="M145.446 230.536C151.588 224.393 151.588 214.433 145.446 208.291C139.303 202.148 129.343 202.148 123.201 208.291C117.058 214.433 117.058 224.393 123.201 230.536C129.343 236.678 139.303 236.678 145.446 230.536Z" fill="#6997CF"/>
<path d="M174.471 191.856C174.471 191.856 156.403 225.721 139.572 219.893C122.74 214.065 141.857 182.705 156.856 175.191C166.982 174.166 176.362 185.336 174.474 191.856H174.471Z" fill="#99C1F1"/>
<path d="M100.834 176.193C109.209 179.527 130.644 204.764 130.224 220.032C129.804 235.3 115.754 235.588 104.458 231.832C93.1616 228.073 70.8293 213.733 68.2193 208.128C61.6165 193.944 71.8245 164.644 100.832 176.193H100.834Z" fill="#99C1F1"/>
<path d="M74.8404 158.186C74.8404 158.186 90.3357 167.261 88.8439 177.302C87.3522 187.346 80.819 187.269 79.9258 191.74C79.0326 196.21 77.23 202.041 71.3117 204.706C65.3933 207.372 31.86 202.085 27.7931 198.173C23.7238 194.264 24.4012 190.631 26.118 188.974C27.8348 187.32 41.6551 188.831 44.2303 188.009C46.8032 187.188 35.7484 184.552 31.3752 182.65C27.002 180.748 18.9121 179.168 17.8635 175.096C16.8125 171.024 18.4388 166.32 23.9303 166.373C29.4217 166.426 39.6367 172.171 42.4532 172.713C45.2696 173.256 45.8752 170.904 43.9426 169.266C42.0124 167.63 26.5403 159.965 26.8999 154.905C27.2595 149.845 30.8253 147.098 35.0941 147.864C39.3629 148.63 58.4473 161.568 61.7463 162.668C65.043 163.768 62.5838 158.754 60.4912 153.295C58.3962 147.836 60.2499 137.937 65.4885 138.368C70.727 138.8 70.1563 152.606 74.8404 158.183V158.186Z" fill="#6997CF"/>
<path d="M184.818 181.032C186.897 172.597 181.745 164.074 173.311 161.994C164.876 159.915 156.353 165.067 154.273 173.501C152.194 181.936 157.345 190.459 165.78 192.539C174.215 194.618 182.738 189.467 184.818 181.032Z" fill="#6997CF"/>
<path d="M165.197 166.794C162.024 165.667 159.899 167.643 159.938 170.543C159.977 173.443 167.221 171.068 165.197 166.794Z" fill="white"/>
<path d="M169.63 165.855C167.983 165.25 166.937 166.067 167.716 167.489C168.496 168.911 170.969 167.874 169.63 165.855Z" fill="white"/>
<path d="M150.784 183.573C148.777 183.453 139.198 195.322 139.826 197.725C140.455 200.129 152.396 184.232 150.784 183.573Z" fill="white"/>
<path d="M99.4761 178.084C98.1235 178.047 97.2558 178.483 98.098 179.855C98.9401 181.226 121.502 205.565 122.6 204.6C123.699 203.637 102.536 178.467 99.4737 178.082L99.4761 178.084Z" fill="white"/>
<path d="M365.304 0.000926621C335.093 0.137807 330.079 15.9301 331.548 32.7872C332.353 42.0162 339.157 49.9784 349.147 54.3145L341.598 68.1394L357.161 56.8386C365.139 58.4998 374.329 58.1054 383.794 54.8133C410.163 45.6423 412.62 2.63645 371.688 0.186527C369.445 0.0519674 367.32 -0.00835338 365.306 0.000926621H365.304Z" fill="#613583"/>
<path d="M353.321 32.4529C355.914 32.4529 358.016 30.3506 358.016 27.7572C358.016 25.1638 355.914 23.0615 353.321 23.0615C350.727 23.0615 348.625 25.1638 348.625 27.7572C348.625 30.3506 350.727 32.4529 353.321 32.4529Z" fill="white"/>
<path d="M367.211 23.6484C369.805 23.6484 371.907 25.7504 371.907 28.3441C371.907 30.9379 369.805 33.0398 367.211 33.0398C364.618 33.0398 362.516 30.9379 362.516 28.3441C362.516 25.7504 364.618 23.6484 367.211 23.6484Z" fill="white"/>
<path d="M381.102 33.5134C383.695 33.5134 385.798 31.4111 385.798 28.8178C385.798 26.2244 383.695 24.1221 381.102 24.1221C378.509 24.1221 376.406 26.2244 376.406 28.8178C376.406 31.4111 378.509 33.5134 381.102 33.5134Z" fill="white"/>
<path d="M76.5034 97.4798C74.1602 101.152 71.0375 104.275 67.365 106.618L60.5511 99.8045C59.6718 100.248 58.7508 100.621 57.8042 100.937V110.588C55.7232 111.05 53.5633 111.293 51.343 111.293C49.1228 111.293 46.9629 111.05 44.8818 110.588V100.937C43.9353 100.621 43.0142 100.248 42.1349 99.8045L35.3188 106.621C31.6485 104.277 28.5258 101.152 26.1849 97.4798L32.9988 90.666C32.5557 89.7844 32.1729 88.8703 31.8597 87.9214H22.2177C21.7584 85.8404 21.5078 83.6805 21.5078 81.4602C21.5078 79.24 21.7514 77.08 22.2131 74.999H31.8643C32.1798 74.0524 32.5533 73.1314 32.9965 72.2521L26.1826 65.4383C28.5258 61.7657 31.6485 58.643 35.3211 56.2998L42.1349 63.1136C43.0142 62.6705 43.9353 62.297 44.8818 61.9815V52.3303C46.9629 51.8686 49.1228 51.625 51.343 51.625C53.5633 51.625 55.7232 51.8686 57.8042 52.328V61.9815C58.7508 62.297 59.6695 62.6705 60.5511 63.1113L67.3673 56.2952C71.0375 58.6384 74.1602 61.7657 76.5034 65.4383L69.6896 72.2521C70.1327 73.1337 70.5178 74.0478 70.831 74.9967H80.4706C80.93 77.0777 81.1806 79.2377 81.1806 81.4579C81.1806 83.6781 80.937 85.8381 80.4753 87.9191H70.8241C70.5086 88.8657 70.135 89.7867 69.6919 90.666L76.5058 97.4798H76.5034ZM51.343 92.6589C51.6678 92.6589 51.988 92.6449 52.3035 92.6171C52.6213 92.5893 52.9322 92.5475 53.2431 92.4965C53.4449 92.4617 53.6468 92.4199 53.844 92.3758C53.8672 92.3712 53.8927 92.3642 53.9182 92.3573C54.076 92.3201 54.2314 92.2807 54.3869 92.2366C54.4031 92.232 54.4194 92.2273 54.4356 92.2227H54.4426C54.475 92.2134 54.5052 92.2018 54.5377 92.1925C54.5934 92.1763 54.649 92.1577 54.7047 92.1415C54.7627 92.1229 54.8207 92.1044 54.8787 92.0858C54.9947 92.0464 55.1084 92.0069 55.2221 91.9652C55.3125 91.9327 55.403 91.8979 55.4912 91.8608C55.5167 91.8492 55.5445 91.8399 55.5701 91.8283C55.6165 91.8097 55.6629 91.7889 55.7116 91.7703C55.7186 91.768 55.7232 91.7657 55.7301 91.761C55.7974 91.7332 55.8624 91.703 55.9297 91.6729C55.939 91.6682 55.9506 91.6636 55.9598 91.6589C55.9668 91.6566 55.9714 91.652 55.9784 91.6497C56.1385 91.5777 56.2962 91.5012 56.4517 91.42C56.5259 91.3829 56.5978 91.3434 56.6721 91.3017C56.7324 91.2692 56.7927 91.2367 56.853 91.2019C56.9041 91.1741 56.9551 91.1439 57.0061 91.1137C57.0201 91.1045 57.034 91.0975 57.0479 91.0882C57.0549 91.0859 57.0595 91.0813 57.0665 91.0766C57.215 90.9885 57.3588 90.898 57.5026 90.8029C57.6024 90.7356 57.7068 90.6729 57.8042 90.6033C57.8738 90.5546 57.9365 90.4989 58.0038 90.4479C58.1221 90.3597 58.2404 90.2693 58.3564 90.1765C58.3634 90.1765 58.3634 90.1718 58.3657 90.1695C58.4956 90.0651 58.6209 89.9584 58.7438 89.8493C58.8506 89.7565 58.9549 89.6591 59.057 89.5617C59.057 89.5617 59.057 89.5617 59.064 89.5593C59.1939 89.4341 59.3215 89.3088 59.4468 89.1765C59.5466 89.0721 59.6463 88.9631 59.7438 88.8541C59.8505 88.7311 59.9549 88.6058 60.057 88.4805C60.159 88.3529 60.2588 88.2253 60.3562 88.0954C60.4003 88.0351 60.4513 87.9794 60.4931 87.9191C60.7205 87.5966 60.9316 87.2625 61.1242 86.9169C61.1427 86.8797 61.1613 86.8449 61.1798 86.8101C61.2239 86.7289 61.268 86.6501 61.3098 86.5665C61.3098 86.5665 61.3098 86.5619 61.3167 86.5596V86.5549C61.3817 86.4297 61.4443 86.3044 61.5046 86.1768C61.5603 86.0608 61.6114 85.9425 61.6624 85.8241C61.6694 85.8102 61.674 85.7986 61.6786 85.787V85.7824C61.6856 85.7708 61.6902 85.7569 61.6949 85.7453C61.8434 85.388 61.9733 85.0214 62.0846 84.6479C62.0962 84.6108 62.1055 84.5737 62.1148 84.5365C62.1821 84.3022 62.2424 84.0633 62.2934 83.822C62.3282 83.6689 62.3584 83.5134 62.3862 83.358C62.4396 83.0494 62.479 82.7362 62.5069 82.4184C62.5347 82.1005 62.5486 81.7804 62.5486 81.4556C62.5486 81.1308 62.5347 80.8106 62.5069 80.4951C62.479 80.1796 62.4396 79.8641 62.3862 79.5555C62.3584 79.3931 62.3259 79.233 62.2888 79.0752C62.2633 78.9569 62.2354 78.8409 62.2053 78.7272C62.1821 78.6344 62.1566 78.5416 62.131 78.4488C62.1078 78.3653 62.0846 78.2841 62.0591 78.2029C62.0359 78.1264 62.015 78.0498 61.9895 77.9756C61.9895 77.9709 61.9826 77.964 61.9826 77.957C61.9826 77.9524 61.9756 77.9501 61.9756 77.9477C61.9385 77.8341 61.899 77.7181 61.8573 77.6044C61.8039 77.4536 61.7459 77.3028 61.6833 77.1543C61.6833 77.1543 61.6833 77.1496 61.6763 77.1473C61.6578 77.1009 61.6346 77.0545 61.6137 77.0081C61.5789 76.9293 61.5441 76.8527 61.5093 76.7738C61.4049 76.5488 61.2935 76.3284 61.1775 76.1126C61.1497 76.0593 61.1218 76.0059 61.0894 75.9548C60.978 75.7553 60.8574 75.5581 60.7344 75.3656C60.6532 75.2403 60.572 75.1173 60.4885 74.9967C60.3052 74.7369 60.1103 74.484 59.9038 74.2404C59.6997 73.9968 59.4839 73.7624 59.2589 73.5374C59.0338 73.3124 58.7995 73.0966 58.5559 72.8901C58.3123 72.686 58.0594 72.4911 57.7996 72.3055C57.7926 72.3055 57.7926 72.3008 57.7903 72.2985C57.6511 72.2011 57.5073 72.106 57.3634 72.0132C57.3078 71.9784 57.2521 71.9436 57.1964 71.9088C57.092 71.8438 56.9853 71.7812 56.8762 71.7208C56.8577 71.7092 56.8368 71.7 56.8182 71.6884C56.7811 71.6675 56.7417 71.6443 56.7046 71.6234C56.7046 71.6234 56.7046 71.6234 56.6976 71.6234C56.6373 71.5909 56.5793 71.5608 56.5213 71.5283C56.5004 71.5167 56.4772 71.5051 56.4563 71.4935C56.4424 71.4865 56.4261 71.4796 56.4122 71.4726C56.2684 71.3984 56.1222 71.3288 55.9761 71.2615C55.9691 71.2615 55.9691 71.2592 55.9645 71.2568C55.9575 71.2545 55.9529 71.2522 55.9459 71.2499C55.8786 71.2197 55.8114 71.1896 55.7418 71.1617C55.6745 71.1339 55.6072 71.1037 55.5376 71.0782C55.4796 71.055 55.4216 71.0295 55.3613 71.0063C55.345 70.9993 55.3288 70.9924 55.3149 70.9877C55.3056 70.9854 55.2963 70.9808 55.287 70.9784C55.1293 70.9181 54.9715 70.8624 54.8114 70.8114C54.8045 70.8114 54.7975 70.8068 54.7906 70.8044C54.7766 70.7998 54.7604 70.7952 54.7465 70.7905C54.6722 70.7673 54.6003 70.7441 54.5261 70.7209C54.4866 70.7093 54.4472 70.6977 54.4078 70.6861C54.3915 70.6815 54.373 70.6769 54.3567 70.6722C54.199 70.6281 54.0435 70.5864 53.8834 70.5493C53.8741 70.5493 53.8672 70.5446 53.8579 70.5423C53.851 70.5423 53.8463 70.54 53.8393 70.5376C53.6398 70.4912 53.438 70.4518 53.2338 70.417C52.9253 70.3637 52.6121 70.3219 52.2942 70.2964C51.9764 70.2685 51.6562 70.2546 51.3337 70.2546C51.0113 70.2546 50.6888 70.2685 50.3733 70.2964C50.0554 70.3242 49.7422 70.366 49.4337 70.417C49.2365 70.4518 49.0416 70.4889 48.849 70.5353C48.8421 70.5353 48.8374 70.5377 48.8328 70.54C48.798 70.5469 48.7655 70.5562 48.7307 70.5655C48.5985 70.598 48.4685 70.6328 48.3386 70.6676C48.3177 70.6722 48.2992 70.6792 48.2783 70.6861C48.2249 70.7001 48.1716 70.7163 48.1182 70.7325C48.0347 70.758 47.9489 70.7836 47.8653 70.8114C47.6937 70.8671 47.522 70.9274 47.3549 70.9924C47.2784 71.0202 47.2041 71.0527 47.1299 71.0828C47.058 71.1107 46.9884 71.1409 46.9165 71.171C46.8422 71.2035 46.7703 71.2336 46.6961 71.2684C46.5383 71.3404 46.3829 71.4169 46.2274 71.4958C46.1578 71.5329 46.0882 71.5701 46.0163 71.6072C45.9467 71.6443 45.8794 71.6814 45.8121 71.7208C45.7495 71.7556 45.6869 71.7928 45.6242 71.8276C45.3667 71.9807 45.1138 72.1408 44.8702 72.3124C44.789 72.3704 44.7148 72.4354 44.6336 72.4957C44.564 72.5468 44.4967 72.6001 44.4294 72.6535C44.2415 72.802 44.0559 72.9551 43.8773 73.1152C43.8703 73.1175 43.8703 73.1198 43.868 73.1221C43.8077 73.1778 43.7473 73.2335 43.687 73.2892C43.6801 73.2915 43.6801 73.2938 43.6777 73.2985C43.5037 73.4609 43.3367 73.6302 43.172 73.8042C43.1047 73.8761 43.0351 73.9504 42.9678 74.0246C42.9609 74.0293 42.9585 74.0362 42.9539 74.0408C42.8193 74.194 42.6871 74.3494 42.5618 74.5095C42.5618 74.5118 42.5549 74.5165 42.5525 74.5188C42.534 74.542 42.5154 74.5675 42.4969 74.5907C42.4458 74.6557 42.3948 74.7229 42.3461 74.7879C42.2927 74.8598 42.2324 74.9271 42.179 75.0013C41.9586 75.3122 41.7568 75.637 41.5712 75.9688C41.5387 76.0268 41.5085 76.0825 41.4761 76.1405C41.4366 76.2124 41.3972 76.2866 41.3577 76.3608C41.2858 76.5024 41.2139 76.6462 41.1466 76.7924C41.1165 76.8597 41.0863 76.9246 41.0561 76.9919C41.0445 77.0197 41.0329 77.0452 41.0213 77.0731C41.0005 77.1241 40.9773 77.1752 40.9564 77.2262C40.8195 77.558 40.7012 77.899 40.5968 78.2447C40.5805 78.3004 40.5643 78.3561 40.5481 78.4117C40.4831 78.6368 40.4251 78.8641 40.3764 79.0961C40.3416 79.2493 40.3114 79.4047 40.2836 79.5601C40.2302 79.8687 40.1885 80.1819 40.1629 80.4997C40.1374 80.8176 40.1212 81.1377 40.1212 81.4625C40.1212 81.7873 40.1351 82.1075 40.1629 82.423C40.1908 82.7409 40.2302 83.0541 40.2836 83.3626C40.2836 83.3649 40.2836 83.3696 40.2905 83.3742C40.2905 83.3742 40.2905 83.3765 40.2905 83.3788C40.2905 83.3881 40.2975 83.3997 40.2975 83.409C40.323 83.5552 40.3532 83.699 40.3857 83.8405C40.4344 84.0609 40.4877 84.279 40.5504 84.4948C40.5666 84.5551 40.5852 84.6177 40.6037 84.6781C40.6339 84.7778 40.6641 84.8753 40.6965 84.9727C40.7383 85.0957 40.7801 85.2209 40.8241 85.3416C40.8659 85.4529 40.9077 85.5643 40.9517 85.6757C40.9587 85.6896 40.9633 85.7035 40.9703 85.7174C40.9865 85.7569 41.0028 85.7963 41.0213 85.8357C41.0561 85.9169 41.0933 85.9958 41.1281 86.077C41.2371 86.316 41.3531 86.5526 41.4784 86.7823C41.5109 86.8426 41.5433 86.9006 41.5758 86.9586C41.6895 87.1605 41.8078 87.3577 41.9354 87.5525C42.0143 87.6778 42.0955 87.8008 42.1813 87.9214C42.3646 88.1813 42.5595 88.4341 42.766 88.6777C42.9725 88.9213 43.1859 89.1557 43.4109 89.3807C43.636 89.6057 43.8703 89.8215 44.1139 90.0257C44.3575 90.2298 44.6104 90.427 44.8702 90.6103C45.0094 90.7101 45.1556 90.8052 45.2994 90.8957C45.3713 90.9421 45.4433 90.9885 45.5175 91.0325C45.5941 91.0789 45.6683 91.123 45.7449 91.1671C45.775 91.1857 45.8075 91.2019 45.84 91.2205C45.8794 91.2437 45.9189 91.2645 45.9583 91.2877C45.9653 91.2901 45.9676 91.2924 45.9722 91.2947C46.0395 91.3318 46.1068 91.3666 46.1764 91.4014C46.1973 91.413 46.2158 91.4223 46.2367 91.4339C46.3921 91.5128 46.5499 91.5893 46.7077 91.6613C46.7773 91.6937 46.8469 91.7216 46.9165 91.7517C46.9884 91.7819 47.0626 91.8121 47.1345 91.8422C47.1925 91.8654 47.2482 91.8886 47.3062 91.9118C47.3294 91.9211 47.3526 91.9304 47.3758 91.9397C47.5104 91.9907 47.6473 92.0394 47.7865 92.0858C47.8561 92.109 47.9257 92.1299 47.9953 92.1531C48.0301 92.1647 48.0649 92.1717 48.0997 92.1833C48.16 92.2018 48.218 92.2204 48.2806 92.2389C48.2992 92.2436 48.3177 92.2505 48.3363 92.2552C48.4662 92.29 48.5938 92.3248 48.7261 92.3573C48.7585 92.3642 48.791 92.3735 48.8235 92.3828C48.8305 92.3828 48.8374 92.3851 48.8444 92.3874C49.0369 92.4315 49.2341 92.4733 49.4313 92.5057C49.7399 92.5591 50.0531 92.6009 50.371 92.6264C50.6888 92.6542 51.0089 92.6681 51.3337 92.6681H51.3384L51.343 92.6589Z" fill="#F66151"/>
<path d="M365.029 140.553C363.883 142.348 362.357 143.875 360.561 145.021L357.23 141.689C356.798 141.905 356.35 142.089 355.886 142.244V146.963C354.87 147.188 353.812 147.309 352.726 147.309C351.641 147.309 350.585 147.188 349.567 146.963V142.244C349.103 142.091 348.655 141.908 348.223 141.689L344.892 145.021C343.096 143.875 341.572 142.348 340.426 140.553L343.757 137.221C343.542 136.79 343.354 136.342 343.201 135.88H338.486C338.261 134.862 338.141 133.806 338.141 132.72C338.141 131.635 338.259 130.579 338.486 129.561H343.205C343.358 129.097 343.542 128.649 343.76 128.217L340.428 124.886C341.574 123.09 343.101 121.563 344.896 120.417L348.228 123.749C348.66 123.533 349.107 123.35 349.571 123.194V118.476C350.587 118.251 351.645 118.13 352.731 118.13C353.817 118.13 354.872 118.248 355.891 118.473V123.192C356.353 123.345 356.803 123.529 357.234 123.744L360.566 120.413C362.361 121.559 363.886 123.088 365.032 124.883L361.7 128.215C361.916 128.646 362.104 129.094 362.259 129.556H366.971C367.196 130.574 367.319 131.63 367.319 132.716C367.319 133.801 367.199 134.857 366.974 135.876H362.255C362.102 136.34 361.918 136.787 361.7 137.219L365.032 140.55L365.029 140.553ZM352.729 138.196C352.887 138.196 353.044 138.189 353.2 138.175C353.355 138.161 353.508 138.142 353.659 138.114C353.759 138.098 353.856 138.077 353.954 138.054C353.965 138.052 353.977 138.049 353.991 138.045C354.067 138.026 354.144 138.008 354.221 137.984C354.227 137.984 354.237 137.98 354.244 137.977C354.26 137.973 354.274 137.966 354.29 137.961C354.318 137.952 354.346 137.945 354.371 137.936C354.399 137.926 354.429 137.917 354.457 137.908C354.513 137.889 354.569 137.868 354.624 137.848C354.668 137.831 354.712 137.815 354.756 137.797C354.77 137.792 354.782 137.785 354.796 137.78C354.819 137.771 354.842 137.762 354.866 137.752C354.866 137.752 354.872 137.75 354.875 137.748C354.907 137.734 354.94 137.72 354.972 137.706C354.979 137.706 354.982 137.701 354.988 137.699C354.988 137.699 354.995 137.697 354.998 137.694C355.077 137.66 355.153 137.623 355.23 137.583C355.267 137.565 355.302 137.546 355.336 137.525C355.367 137.509 355.394 137.493 355.425 137.476C355.45 137.462 355.476 137.449 355.499 137.435C355.506 137.43 355.513 137.428 355.52 137.423C355.52 137.423 355.527 137.421 355.529 137.418C355.601 137.374 355.673 137.33 355.742 137.284C355.791 137.251 355.842 137.219 355.891 137.186C355.923 137.163 355.956 137.135 355.988 137.11C356.046 137.066 356.104 137.022 356.16 136.978C356.16 136.978 356.16 136.978 356.167 136.975C356.23 136.924 356.292 136.873 356.353 136.817C356.404 136.771 356.455 136.725 356.506 136.676C356.571 136.613 356.631 136.551 356.694 136.488C356.742 136.437 356.791 136.384 356.838 136.33C356.889 136.27 356.942 136.21 356.991 136.147C357.042 136.084 357.09 136.022 357.137 135.959C357.158 135.929 357.183 135.903 357.204 135.873C357.315 135.715 357.418 135.553 357.513 135.384C357.522 135.365 357.531 135.349 357.54 135.33C357.561 135.291 357.585 135.251 357.605 135.212V135.207C357.636 135.147 357.668 135.084 357.696 135.022C357.724 134.966 357.749 134.908 357.772 134.85C357.772 134.843 357.779 134.839 357.779 134.832C357.779 134.832 357.786 134.818 357.786 134.811C357.858 134.637 357.923 134.458 357.977 134.275C357.984 134.256 357.986 134.238 357.993 134.221C358.025 134.105 358.056 133.989 358.081 133.871C358.097 133.797 358.113 133.72 358.125 133.644C358.151 133.493 358.171 133.34 358.185 133.184C358.199 133.029 358.206 132.873 358.206 132.713C358.206 132.553 358.199 132.398 358.185 132.242C358.171 132.087 358.153 131.934 358.125 131.783C358.111 131.704 358.095 131.625 358.079 131.549C358.067 131.491 358.053 131.435 358.039 131.377C358.028 131.331 358.016 131.287 358.002 131.24C357.991 131.201 357.979 131.159 357.967 131.12C357.956 131.082 357.944 131.045 357.933 131.008V130.994C357.914 130.939 357.895 130.883 357.875 130.827C357.849 130.753 357.821 130.679 357.791 130.607V130.602C357.782 130.579 357.77 130.558 357.761 130.535C357.745 130.498 357.728 130.458 357.71 130.421C357.659 130.312 357.605 130.203 357.547 130.099C357.533 130.073 357.52 130.048 357.506 130.022C357.45 129.925 357.392 129.827 357.332 129.735C357.292 129.674 357.253 129.614 357.211 129.554C357.121 129.426 357.025 129.303 356.926 129.185C356.826 129.066 356.719 128.95 356.61 128.841C356.501 128.732 356.385 128.626 356.267 128.526C356.148 128.426 356.025 128.331 355.898 128.24C355.898 128.24 355.898 128.24 355.891 128.236C355.824 128.187 355.752 128.141 355.682 128.097C355.654 128.08 355.629 128.062 355.601 128.046C355.55 128.013 355.497 127.983 355.446 127.953C355.436 127.948 355.427 127.941 355.418 127.937C355.399 127.925 355.381 127.916 355.362 127.906C355.332 127.89 355.304 127.874 355.276 127.86C355.267 127.855 355.255 127.848 355.244 127.844C355.237 127.841 355.23 127.837 355.223 127.832C355.153 127.797 355.081 127.763 355.009 127.73C355.009 127.73 355.009 127.73 355.002 127.728C355.002 127.728 354.995 127.725 354.993 127.723C354.961 127.709 354.928 127.693 354.893 127.679C354.861 127.665 354.826 127.651 354.794 127.637C354.766 127.626 354.736 127.614 354.708 127.602C354.701 127.6 354.691 127.595 354.685 127.593C354.678 127.593 354.675 127.591 354.671 127.589C354.594 127.558 354.515 127.533 354.439 127.507C354.439 127.507 354.432 127.507 354.429 127.505C354.422 127.505 354.415 127.5 354.406 127.498C354.369 127.486 354.334 127.475 354.297 127.463C354.279 127.459 354.26 127.452 354.239 127.447C354.23 127.447 354.223 127.442 354.214 127.44C354.137 127.419 354.06 127.398 353.982 127.38C353.975 127.38 353.972 127.38 353.968 127.375C353.968 127.375 353.961 127.375 353.958 127.375C353.861 127.352 353.761 127.333 353.661 127.315C353.511 127.289 353.357 127.268 353.202 127.254C353.047 127.241 352.891 127.234 352.731 127.234C352.571 127.234 352.416 127.241 352.26 127.254C352.105 127.268 351.952 127.287 351.801 127.315C351.703 127.331 351.608 127.35 351.515 127.373H351.508C351.492 127.377 351.476 127.38 351.457 127.384C351.392 127.401 351.33 127.417 351.267 127.435C351.258 127.438 351.249 127.44 351.237 127.445C351.212 127.452 351.186 127.459 351.158 127.468C351.116 127.479 351.077 127.493 351.035 127.507C350.952 127.535 350.868 127.563 350.785 127.595C350.748 127.609 350.71 127.626 350.676 127.64C350.641 127.653 350.606 127.667 350.571 127.684C350.534 127.7 350.499 127.714 350.464 127.73C350.388 127.765 350.311 127.802 350.235 127.841C350.2 127.86 350.165 127.879 350.133 127.897C350.1 127.916 350.065 127.934 350.033 127.953C350.003 127.969 349.97 127.988 349.94 128.006C349.815 128.08 349.692 128.159 349.571 128.243C349.532 128.271 349.495 128.303 349.455 128.331C349.423 128.356 349.388 128.382 349.356 128.407C349.263 128.479 349.172 128.554 349.086 128.633C349.086 128.633 349.086 128.633 349.079 128.635C349.049 128.663 349.021 128.688 348.991 128.716C348.991 128.716 348.991 128.718 348.984 128.721C348.898 128.8 348.817 128.883 348.738 128.967C348.706 129.001 348.671 129.039 348.639 129.073C348.639 129.076 348.632 129.078 348.632 129.08C348.564 129.155 348.502 129.231 348.439 129.31C348.439 129.31 348.439 129.312 348.432 129.315C348.423 129.326 348.414 129.338 348.404 129.349C348.379 129.382 348.353 129.414 348.33 129.447C348.305 129.482 348.274 129.516 348.249 129.551C348.142 129.704 348.042 129.862 347.952 130.025C347.936 130.052 347.922 130.08 347.906 130.108C347.887 130.143 347.866 130.18 347.848 130.215C347.813 130.284 347.778 130.354 347.745 130.426C347.731 130.458 347.715 130.491 347.701 130.523C347.694 130.537 347.69 130.549 347.685 130.563C347.676 130.588 347.664 130.611 347.655 130.637C347.59 130.799 347.53 130.966 347.479 131.136C347.469 131.164 347.462 131.191 347.455 131.217C347.425 131.328 347.395 131.44 347.372 131.551C347.356 131.625 347.339 131.702 347.328 131.778C347.302 131.929 347.281 132.082 347.27 132.238C347.256 132.393 347.249 132.549 347.249 132.709C347.249 132.869 347.256 133.024 347.27 133.18C347.284 133.335 347.302 133.488 347.328 133.639V133.644C347.328 133.644 347.328 133.644 347.328 133.646V133.66C347.339 133.732 347.356 133.801 347.37 133.871C347.393 133.978 347.421 134.085 347.451 134.191C347.46 134.221 347.467 134.252 347.476 134.282C347.49 134.33 347.506 134.379 347.52 134.426C347.541 134.486 347.56 134.546 347.583 134.607C347.604 134.662 347.625 134.716 347.646 134.769C347.646 134.776 347.653 134.783 347.655 134.79C347.662 134.808 347.671 134.827 347.678 134.848C347.694 134.887 347.713 134.927 347.732 134.966C347.785 135.084 347.843 135.198 347.903 135.312C347.919 135.34 347.933 135.37 347.95 135.398C348.005 135.495 348.063 135.593 348.126 135.688C348.165 135.748 348.205 135.808 348.247 135.869C348.337 135.996 348.432 136.119 348.532 136.237C348.632 136.356 348.738 136.472 348.847 136.581C348.956 136.69 349.072 136.797 349.191 136.896C349.309 136.996 349.432 137.091 349.56 137.182C349.627 137.23 349.699 137.277 349.771 137.321C349.806 137.344 349.843 137.365 349.878 137.388C349.915 137.411 349.952 137.432 349.989 137.453C350.005 137.462 350.019 137.469 350.035 137.479C350.054 137.49 350.072 137.5 350.093 137.511C350.093 137.511 350.1 137.511 350.1 137.516C350.133 137.534 350.165 137.551 350.2 137.569C350.209 137.574 350.219 137.578 350.23 137.585C350.307 137.625 350.383 137.662 350.46 137.697C350.492 137.713 350.527 137.727 350.562 137.741C350.597 137.757 350.634 137.771 350.669 137.785C350.696 137.797 350.724 137.808 350.752 137.82C350.764 137.824 350.775 137.829 350.787 137.834C350.852 137.859 350.919 137.882 350.986 137.906C351.021 137.917 351.054 137.926 351.089 137.938C351.105 137.943 351.121 137.947 351.14 137.952C351.17 137.961 351.198 137.971 351.228 137.977C351.237 137.98 351.246 137.982 351.256 137.984C351.318 138.003 351.381 138.019 351.446 138.033C351.462 138.038 351.478 138.042 351.495 138.045C351.495 138.045 351.502 138.045 351.504 138.045C351.599 138.066 351.694 138.087 351.792 138.103C351.942 138.128 352.095 138.149 352.251 138.163C352.406 138.177 352.564 138.184 352.722 138.184H352.738L352.729 138.196Z" fill="#F66151"/>
<path d="M393.815 331.759H295.095C284.696 331.759 276.266 340.189 276.266 350.588C276.266 360.987 284.696 369.417 295.095 369.417H393.815C404.214 369.417 412.645 360.987 412.645 350.588C412.645 340.189 404.214 331.759 393.815 331.759Z" fill="#970684"/>
<path d="M399.386 331.759H300.665C290.266 331.759 281.836 340.189 281.836 350.588C281.836 360.987 290.266 369.417 300.665 369.417H399.386C409.785 369.417 418.215 360.987 418.215 350.588C418.215 340.189 409.785 331.759 399.386 331.759Z" fill="#F62DDC"/>
<path d="M313.332 352.658C314.483 346.128 310.121 339.901 303.591 338.751C297.061 337.601 290.835 341.962 289.684 348.492C288.534 355.023 292.895 361.249 299.426 362.399C305.956 363.549 312.182 359.188 313.332 352.658Z" fill="#99C1F1"/>
<path d="M395.606 344.987H322.953V346.843H395.606V344.987Z" fill="white"/>
<path d="M368.126 353.474H322.953V355.33H368.126V353.474Z" fill="white"/>
<path d="M299.343 357.712L292.445 350.762L294.42 348.801L299.463 353.882L308.435 345.92L310.284 348.003L299.343 357.712Z" fill="white"/>
<path d="M138.054 270.913H9.76488C4.37189 270.913 0 275.285 0 280.678V381.157C0 386.55 4.37189 390.922 9.76488 390.922H138.054C143.447 390.922 147.819 386.55 147.819 381.157V280.678C147.819 275.285 143.447 270.913 138.054 270.913Z" fill="#970684"/>
<path d="M142.859 270.913H14.5696C9.17657 270.913 4.80469 275.285 4.80469 280.678V381.157C4.80469 386.55 9.17657 390.922 14.5696 390.922H142.859C148.252 390.922 152.624 386.55 152.624 381.157V280.678C152.624 275.285 148.252 270.913 142.859 270.913Z" fill="#F62DDC"/>
<path d="M14.571 290.329C11.9401 290.329 9.98438 292.285 9.98438 294.916V381.155C9.98438 383.786 11.9401 385.741 14.571 385.741H142.86C145.491 385.741 147.447 383.786 147.447 381.155V294.916C147.447 292.285 145.491 290.329 142.86 290.329H14.571Z" fill="#D3E4F9"/>
<path d="M115.658 276.689C117.869 276.689 119.66 278.48 119.66 280.691C119.66 282.902 117.869 284.693 115.658 284.693C113.447 284.693 111.656 282.902 111.656 280.691C111.656 278.48 113.447 276.689 115.658 276.689Z" fill="#D3E4F9"/>
<path d="M128.229 276.689C130.44 276.689 132.231 278.48 132.231 280.691C132.231 282.902 130.44 284.693 128.229 284.693C126.018 284.693 124.227 282.902 124.227 280.691C124.227 278.48 126.018 276.689 128.229 276.689Z" fill="#D3E4F9"/>
<path d="M140.799 276.689C143.01 276.689 144.801 278.48 144.801 280.691C144.801 282.902 143.01 284.693 140.799 284.693C138.588 284.693 136.797 282.902 136.797 280.691C136.797 278.48 138.588 276.689 140.799 276.689Z" fill="#D3E4F9"/>
<path d="M104.454 333.532H19.6094V320.658H104.452V333.532H104.454ZM22.0129 331.128H102.048V323.062H22.0129V331.128Z" fill="white"/>
<path d="M83.0637 351.789H19.6094V338.915H83.0637V351.789ZM22.0129 349.385H80.6602V341.319H22.0129V349.385Z" fill="white"/>
<path d="M95.5314 370.047H19.6094V357.173H95.5291V370.047H95.5314ZM22.0129 367.643H93.1256V359.576H22.0129V367.643Z" fill="white"/>
<path d="M71.8767 315.273H19.6094V302.399H71.8767V315.273ZM22.0129 312.87H69.4732V304.803H22.0129V312.87Z" fill="white"/>
<path d="M355.94 278.854H257.22C246.821 278.854 238.391 287.285 238.391 297.684C238.391 308.083 246.821 316.513 257.22 316.513H355.94C366.339 316.513 374.77 308.083 374.77 297.684C374.77 287.285 366.339 278.854 355.94 278.854Z" fill="#970684"/>
<path d="M361.511 278.854H262.79C252.391 278.854 243.961 287.285 243.961 297.684C243.961 308.083 252.391 316.513 262.79 316.513H361.511C371.91 316.513 380.34 308.083 380.34 297.684C380.34 287.285 371.91 278.854 361.511 278.854Z" fill="#F62DDC"/>
<path d="M275.315 300.425C276.838 293.971 272.842 287.505 266.388 285.982C259.935 284.459 253.469 288.455 251.945 294.909C250.422 301.362 254.419 307.829 260.872 309.352C267.326 310.875 273.792 306.878 275.315 300.425Z" fill="#99C1F1"/>
<path d="M357.731 292.081H285.078V293.937H357.731V292.081Z" fill="white"/>
<path d="M330.251 300.569H285.078V302.425H330.251V300.569Z" fill="white"/>
<path d="M261.46 304.808L254.562 297.857L256.539 295.897L261.581 300.978L270.554 293.016L272.403 295.099L261.46 304.808Z" fill="white"/>
</svg>
