<svg width="685" height="493" viewBox="0 0 685 493" fill="none" xmlns="http://www.w3.org/2000/svg">
<g opacity="0.5" clip-path="url(#clip0_529_6184)">
<path d="M414.727 -127.77C463.867 -103.2 494.807 -42.6846 510.277 15.5554C525.747 74.2504 525.747 131.125 537.122 194.37C548.042 257.615 570.337 327.685 550.772 378.645C530.752 429.605 468.872 461.91 408.357 477.38C347.842 492.395 289.147 490.575 229.542 491.485C169.937 492.85 109.422 496.945 60.7369 474.65C12.0519 452.81 -25.7131 405.035 -68.4831 353.165C-111.253 300.84 -159.483 244.42 -161.758 186.635C-163.578 129.305 -119.443 70.6104 -72.1231 26.4754C-24.8031 -17.6596 26.1569 -47.2346 77.1169 -70.8946C128.077 -94.0996 179.037 -111.39 238.187 -125.95C297.792 -140.51 365.132 -151.885 414.727 -127.77Z" fill="url(#paint0_linear_529_6184)"/>
</g>
<defs>
<linearGradient id="paint0_linear_529_6184" x1="-161.813" y1="-94.575" x2="604.013" y2="-19.7013" gradientUnits="userSpaceOnUse">
<stop offset="0.33" stop-color="#B866D7"/>
<stop offset="1" stop-color="#EE609C"/>
</linearGradient>
<clipPath id="clip0_529_6184">
<rect width="685" height="493" fill="white"/>
</clipPath>
</defs>
</svg>
