<svg width="201" height="65" viewBox="0 0 201 65" fill="none" xmlns="http://www.w3.org/2000/svg">
<path d="M192.682 59.7173H7.49348C3.34526 59.7173 0.0859375 56.458 0.0859375 52.3099V7.86541C0.0859375 3.71727 3.34526 0.458008 7.49348 0.458008H192.682C196.83 0.458008 200.09 3.71727 200.09 7.86541V52.3099C200.09 56.458 196.83 59.7173 192.682 59.7173Z" fill="white"/>
<path d="M193.05 63.4502H100.049H7.047C2.89878 63.4502 0.09375 56.4502 0.09375 52.302V7.8576C0.09375 3.70945 3.35307 0.450195 7.50129 0.450195H192.69C196.838 0.450195 200.097 3.70945 200.097 7.8576V52.302C200.097 56.4502 199.05 62.4502 193.05 63.4502Z" fill="black"/>
<path d="M192.69 1.7302C196.097 1.7302 198.912 4.7702 198.912 8.4502V56.4502C198.912 60.1302 196.097 63.1702 192.69 63.1702H7.50129C4.09382 63.1702 1.27896 60.1302 1.27896 56.4502V8.4502C1.27896 4.7702 4.09382 1.7302 7.50129 1.7302H192.69ZM192.69 0.450195H7.50129C3.35307 0.450195 0.09375 4.1302 0.09375 8.4502V56.4502C0.09375 60.9302 3.35307 64.4502 7.50129 64.4502H192.69C196.838 64.4502 200.097 60.9302 200.097 56.4502V8.4502C200.097 4.1302 196.838 0.450195 192.69 0.450195Z" fill="#A6A6A6"/>
<path d="M70.3109 15.5617C70.3109 16.7469 70.0146 17.784 69.2739 18.5247C68.385 19.4136 67.3479 19.858 66.0145 19.858C64.6812 19.858 63.6441 19.4136 62.7552 18.5247C61.8663 17.6358 61.4219 16.5988 61.4219 15.2654C61.4219 13.9321 61.8663 12.8951 62.7552 12.0062C63.6441 11.1173 64.6812 10.6729 66.0145 10.6729C66.6072 10.6729 67.1998 10.821 67.7924 11.1173C68.385 11.4136 68.8294 11.7099 69.1257 12.1543L68.385 12.8951C67.7924 12.1543 67.0516 11.858 66.0145 11.858C65.1256 11.858 64.2367 12.1543 63.6441 12.8951C62.9034 13.4877 62.6071 14.3766 62.6071 15.4136C62.6071 16.4506 62.9034 17.3395 63.6441 17.9321C64.3849 18.5247 65.1256 18.9691 66.0145 18.9691C67.0516 18.9691 67.7924 18.6729 68.5331 17.9321C68.9776 17.4877 69.2739 16.8951 69.2739 16.1543H66.0145V14.9691H70.3109V15.5617ZM77.1259 11.858H73.1258V14.6729H76.8296V15.7099H73.1258V18.5247H77.1259V19.7099H71.9406V10.821H77.1259V11.858ZM82.0148 19.7099H80.8296V11.858H78.3111V10.821H84.5334V11.858H82.0148V19.7099ZM88.8298 19.7099V10.821H90.015V19.7099H88.8298ZM95.0521 19.7099H93.8669V11.858H91.3483V10.821H97.4225V11.858H94.904V19.7099H95.0521ZM109.126 18.5247C108.238 19.4136 107.2 19.858 105.867 19.858C104.534 19.858 103.497 19.4136 102.608 18.5247C101.719 17.6358 101.274 16.5988 101.274 15.2654C101.274 13.9321 101.719 12.8951 102.608 12.0062C103.497 11.1173 104.534 10.6729 105.867 10.6729C107.2 10.6729 108.238 11.1173 109.126 12.0062C110.015 12.8951 110.46 13.9321 110.46 15.2654C110.46 16.5988 110.015 17.6358 109.126 18.5247ZM103.497 17.784C104.089 18.3766 104.978 18.821 105.867 18.821C106.756 18.821 107.645 18.5247 108.238 17.784C108.83 17.1914 109.275 16.3025 109.275 15.2654C109.275 14.2284 108.978 13.3395 108.238 12.7469C107.645 12.1543 106.756 11.7099 105.867 11.7099C104.978 11.7099 104.089 12.0062 103.497 12.7469C102.904 13.3395 102.46 14.2284 102.46 15.2654C102.46 16.3025 102.756 17.1914 103.497 17.784ZM112.089 19.7099V10.821H113.423L117.719 17.784V10.821H118.904V19.7099H117.719L113.127 12.4506V19.7099H112.089Z" fill="white"/>
<path d="M100.985 32.7462C97.4295 32.7462 94.6146 35.4128 94.6146 39.1165C94.6146 42.6721 97.4295 45.4869 100.985 45.4869C104.541 45.4869 107.356 42.8202 107.356 39.1165C107.356 35.2647 104.541 32.7462 100.985 32.7462ZM100.985 42.8202C99.0591 42.8202 97.4295 41.1906 97.4295 38.9684C97.4295 36.7462 99.0591 35.1165 100.985 35.1165C102.911 35.1165 104.541 36.598 104.541 38.9684C104.541 41.1906 102.911 42.8202 100.985 42.8202ZM87.2071 32.7462C83.6515 32.7462 80.8366 35.4128 80.8366 39.1165C80.8366 42.6721 83.6515 45.4869 87.2071 45.4869C90.7627 45.4869 93.5776 42.8202 93.5776 39.1165C93.5776 35.2647 90.7627 32.7462 87.2071 32.7462ZM87.2071 42.8202C85.2811 42.8202 83.6515 41.1906 83.6515 38.9684C83.6515 36.7462 85.2811 35.1165 87.2071 35.1165C89.133 35.1165 90.7627 36.598 90.7627 38.9684C90.7627 41.1906 89.133 42.8202 87.2071 42.8202ZM70.7623 34.6721V37.3388H77.1328C76.9847 38.8202 76.3921 40.0054 75.6513 40.7462C74.7624 41.6351 73.2809 42.6721 70.7623 42.6721C66.7623 42.6721 63.7992 39.561 63.7992 35.561C63.7992 31.561 66.9104 28.4499 70.7623 28.4499C72.8364 28.4499 74.4661 29.3388 75.6513 30.3758L77.5773 28.4499C75.9476 26.9684 73.8735 25.7832 70.9105 25.7832C65.5771 25.7832 60.9844 30.2276 60.9844 35.561C60.9844 40.8943 65.5771 45.3388 70.9105 45.3388C73.8735 45.3388 75.9476 44.4499 77.7254 42.5239C79.5032 40.7462 80.0958 38.2276 80.0958 36.3017C80.0958 35.7091 80.0958 35.1165 79.9477 34.6721H70.7623ZM138.023 36.7462C137.43 35.2647 135.949 32.7462 132.689 32.7462C129.43 32.7462 126.763 35.2647 126.763 39.1165C126.763 42.6721 129.43 45.4869 132.986 45.4869C135.801 45.4869 137.578 43.7091 138.171 42.6721L136.097 41.1906C135.356 42.2276 134.467 42.9684 132.986 42.9684C131.504 42.9684 130.615 42.3758 129.875 41.0425L138.319 37.4869L138.023 36.7462ZM129.43 38.8202C129.43 36.4499 131.356 35.1165 132.689 35.1165C133.726 35.1165 134.763 35.7091 135.06 36.4499L129.43 38.8202ZM122.467 44.8943H125.282V26.3758H122.467V44.8943ZM118.022 34.0795C117.282 33.3388 116.096 32.598 114.615 32.598C111.504 32.598 108.541 35.4128 108.541 38.9684C108.541 42.5239 111.356 45.1906 114.615 45.1906C116.096 45.1906 117.282 44.4499 117.874 43.7091H118.022V44.598C118.022 46.9684 116.689 48.3017 114.615 48.3017C112.985 48.3017 111.8 47.1165 111.504 46.0795L109.133 47.1165C109.874 48.7462 111.652 50.8202 114.763 50.8202C118.022 50.8202 120.689 48.8943 120.689 44.3017V33.0425H118.022V34.0795ZM114.763 42.8202C112.837 42.8202 111.208 41.1906 111.208 38.9684C111.208 36.7462 112.837 35.1165 114.763 35.1165C116.689 35.1165 118.171 36.7462 118.171 38.9684C118.171 41.1906 116.689 42.8202 114.763 42.8202ZM150.912 26.3758H144.245V44.8943H147.06V37.9313H150.912C154.023 37.9313 156.986 35.7091 156.986 32.1536C156.986 28.598 154.023 26.3758 150.912 26.3758ZM151.06 35.2647H147.06V28.8943H151.06C153.134 28.8943 154.319 30.6721 154.319 32.0054C154.171 33.6351 152.986 35.2647 151.06 35.2647ZM168.097 32.598C166.023 32.598 163.949 33.4869 163.208 35.4128L165.727 36.4499C166.32 35.4128 167.209 35.1165 168.246 35.1165C169.727 35.1165 171.06 36.0054 171.209 37.4869V37.6351C170.764 37.3388 169.579 36.8943 168.394 36.8943C165.727 36.8943 163.06 38.3758 163.06 41.0425C163.06 43.561 165.283 45.1906 167.653 45.1906C169.579 45.1906 170.468 44.3017 171.209 43.4128H171.357V44.8943H174.023V37.7832C173.727 34.5239 171.209 32.598 168.097 32.598ZM167.801 42.8202C166.912 42.8202 165.579 42.3758 165.579 41.1906C165.579 39.7091 167.209 39.2647 168.542 39.2647C169.727 39.2647 170.32 39.561 171.06 39.8573C170.764 41.6351 169.283 42.8202 167.801 42.8202ZM183.357 33.0425L180.246 41.0425H180.098L176.838 33.0425H173.875L178.764 44.3017L175.949 50.5239H178.764L186.32 33.0425H183.357ZM158.468 44.8943H161.282V26.3758H158.468V44.8943Z" fill="white"/>
<path d="M15.4989 11.5615C15.0544 12.006 14.9062 12.7467 14.9062 13.6356V46.3763C14.9062 47.2652 15.2026 48.006 15.647 48.4504L15.7952 48.5986L34.1659 30.2282V29.9319L15.4989 11.5615Z" fill="url(#paint0_linear_529_8298)"/>
<path d="M40.0898 36.451L34.0156 30.3769V29.9325L40.0898 23.8584L40.238 24.0065L47.4973 28.1547C49.5715 29.3399 49.5715 31.2658 47.4973 32.451L40.0898 36.451Z" fill="url(#paint1_linear_529_8298)"/>
<path d="M40.2412 36.3023L34.0189 30.0801L15.5 48.5986C16.2408 49.3393 17.2778 49.3393 18.6112 48.7467L40.2412 36.3023Z" fill="url(#paint2_linear_529_8298)"/>
<path d="M40.2412 23.8585L18.6112 11.5622C17.2778 10.8215 16.2408 10.9696 15.5 11.7103L34.0189 30.0807L40.2412 23.8585Z" fill="url(#paint3_linear_529_8298)"/>
<path opacity="0.2" d="M40.093 36.1543L18.6112 48.3024C17.426 49.0432 16.3889 48.895 15.6482 48.3024L15.5 48.4506L15.6482 48.5987C16.3889 49.1913 17.426 49.3395 18.6112 48.5987L40.093 36.1543Z" fill="black"/>
<path opacity="0.12" d="M15.4989 48.3023C15.0544 47.8579 14.9062 47.1171 14.9062 46.2282V46.3764C14.9062 47.2653 15.2026 48.006 15.647 48.4505V48.3023H15.4989ZM47.4994 32.006L40.0919 36.1542L40.24 36.3023L47.4994 32.1542C48.5365 31.5616 48.9809 30.8208 48.9809 30.0801C48.9809 30.8208 48.3883 31.4134 47.4994 32.006Z" fill="black"/>
<path opacity="0.25" d="M18.61 11.7099L47.4994 28.1543C48.3883 28.7469 48.9809 29.3395 48.9809 30.0803C48.9809 29.3395 48.5365 28.5988 47.4994 28.0062L18.61 11.5617C16.5359 10.3766 14.9062 11.2654 14.9062 13.6358V13.784C14.9062 11.5617 16.5359 10.5247 18.61 11.7099Z" fill="white"/>
<path d="M100.977 32.755C97.4217 32.755 94.6068 35.4216 94.6068 39.1253C94.6068 42.6809 97.4217 45.4957 100.977 45.4957C104.533 45.4957 107.348 42.829 107.348 39.1253C107.348 35.2735 104.533 32.755 100.977 32.755ZM100.977 42.829C99.0513 42.829 97.4217 41.1994 97.4217 38.9772C97.4217 36.755 99.0513 35.1253 100.977 35.1253C102.903 35.1253 104.533 36.6068 104.533 38.9772C104.533 41.1994 102.903 42.829 100.977 42.829ZM87.1993 32.755C83.6436 32.755 80.8288 35.4216 80.8288 39.1253C80.8288 42.6809 83.6436 45.4957 87.1993 45.4957C90.7549 45.4957 93.5697 42.829 93.5697 39.1253C93.5697 35.2735 90.7549 32.755 87.1993 32.755ZM87.1993 42.829C85.2733 42.829 83.6436 41.1994 83.6436 38.9772C83.6436 36.755 85.2733 35.1253 87.1993 35.1253C89.1252 35.1253 90.7549 36.6068 90.7549 38.9772C90.7549 41.1994 89.1252 42.829 87.1993 42.829ZM70.7545 34.6809V37.3475H77.125C76.9769 38.829 76.3843 40.0142 75.6435 40.755C74.7546 41.6438 73.2731 42.6809 70.7545 42.6809C66.7544 42.6809 63.7914 39.5698 63.7914 35.5698C63.7914 31.5698 66.9026 28.4587 70.7545 28.4587C72.8286 28.4587 74.4583 29.3475 75.6435 30.3846L77.5695 28.4587C75.9398 26.9772 73.8657 25.792 70.9027 25.792C65.5692 25.792 60.9766 30.2364 60.9766 35.5698C60.9766 40.9031 65.5692 45.3475 70.9027 45.3475C73.8657 45.3475 75.9398 44.4587 77.7176 42.5327C79.4954 40.755 80.088 38.2364 80.088 36.3105C80.088 35.7179 80.088 35.1253 79.9399 34.6809H70.7545ZM138.015 36.755C137.422 35.2735 135.941 32.755 132.682 32.755C129.422 32.755 126.756 35.2735 126.756 39.1253C126.756 42.6809 129.422 45.4957 132.978 45.4957C135.793 45.4957 137.571 43.7179 138.163 42.6809L136.089 41.1994C135.348 42.2364 134.459 42.9772 132.978 42.9772C131.496 42.9772 130.607 42.3846 129.867 41.0512L138.311 37.4957L138.015 36.755ZM129.422 38.829C129.422 36.4587 131.348 35.1253 132.682 35.1253C133.719 35.1253 134.756 35.7179 135.052 36.4587L129.422 38.829ZM122.459 44.9031H125.274V26.3846H122.459V44.9031ZM118.015 34.0883C117.274 33.3475 116.089 32.6068 114.607 32.6068C111.496 32.6068 108.533 35.4216 108.533 38.9772C108.533 42.5327 111.348 45.1994 114.607 45.1994C116.089 45.1994 117.274 44.4587 117.866 43.7179H118.015V44.6068C118.015 46.9772 116.681 48.3105 114.607 48.3105C112.978 48.3105 111.792 47.1253 111.496 46.0883L109.126 47.1253C109.866 48.755 111.644 50.829 114.755 50.829C118.015 50.829 120.681 48.9031 120.681 44.3105V33.0513H118.015V34.0883ZM114.755 42.829C112.829 42.829 111.2 41.1994 111.2 38.9772C111.2 36.755 112.829 35.1253 114.755 35.1253C116.681 35.1253 118.163 36.755 118.163 38.9772C118.163 41.1994 116.681 42.829 114.755 42.829ZM150.904 26.3846H144.237V44.9031H147.052V37.9401H150.904C154.015 37.9401 156.978 35.7179 156.978 32.1624C156.978 28.6068 154.015 26.3846 150.904 26.3846ZM151.052 35.2735H147.052V28.9031H151.052C153.126 28.9031 154.312 30.6809 154.312 32.0142C154.163 33.6438 152.978 35.2735 151.052 35.2735ZM168.09 32.6068C166.016 32.6068 163.941 33.4957 163.201 35.4216L165.719 36.4587C166.312 35.4216 167.201 35.1253 168.238 35.1253C169.719 35.1253 171.053 36.0142 171.201 37.4957V37.6438C170.756 37.3475 169.571 36.9031 168.386 36.9031C165.719 36.9031 163.052 38.3846 163.052 41.0512C163.052 43.5698 165.275 45.1994 167.645 45.1994C169.571 45.1994 170.46 44.3105 171.201 43.4216H171.349V44.9031H174.016V37.792C173.719 34.5327 171.201 32.6068 168.09 32.6068ZM167.793 42.829C166.904 42.829 165.571 42.3846 165.571 41.1994C165.571 39.7179 167.201 39.2735 168.534 39.2735C169.719 39.2735 170.312 39.5698 171.053 39.8661C170.756 41.6438 169.275 42.829 167.793 42.829ZM183.349 33.0513L180.238 41.0512H180.09L176.831 33.0513H173.867L178.756 44.3105L175.942 50.5327H178.756L186.312 33.0513H183.349ZM158.46 44.9031H161.275V26.3846H158.46V44.9031Z" fill="white"/>
<path d="M15.491 11.5693C15.0466 12.0138 14.8984 12.7545 14.8984 13.6434V46.3841C14.8984 47.273 15.1947 48.0138 15.6392 48.4582L15.7873 48.6064L34.158 30.236V29.9397L15.491 11.5693Z" fill="url(#paint4_linear_529_8298)"/>
<path d="M40.082 36.4588L34.0078 30.3847V29.9403L40.082 23.8662L40.2301 24.0144L47.4895 28.1625C49.5636 29.3477 49.5636 31.2736 47.4895 32.4588L40.082 36.4588Z" fill="url(#paint5_linear_529_8298)"/>
<path d="M40.2334 36.3101L34.011 30.0879L15.4922 48.6064C16.2329 49.3471 17.27 49.3471 18.6034 48.7546L40.2334 36.3101Z" fill="url(#paint6_linear_529_8298)"/>
<path d="M40.2334 23.8663L18.6034 11.57C17.27 10.8293 16.2329 10.9774 15.4922 11.7182L34.011 30.0885L40.2334 23.8663Z" fill="url(#paint7_linear_529_8298)"/>
<path opacity="0.2" d="M40.0852 36.1621L18.6034 48.3103C17.4181 49.051 16.3811 48.9028 15.6403 48.3103L15.4922 48.4584L15.6403 48.6066C16.3811 49.1991 17.4181 49.3473 18.6034 48.6066L40.0852 36.1621Z" fill="black"/>
<path opacity="0.12" d="M15.491 48.3101C15.0466 47.8657 14.8984 47.1249 14.8984 46.236V46.3842C14.8984 47.2731 15.1947 48.0138 15.6392 48.4583V48.3101H15.491ZM47.4916 32.0138L40.0841 36.162L40.2322 36.3101L47.4916 32.162C48.5287 31.5694 48.9731 30.8286 48.9731 30.0879C48.9731 30.8286 48.3805 31.4212 47.4916 32.0138Z" fill="black"/>
<path opacity="0.25" d="M18.6022 11.7177L47.4916 28.1621C48.3805 28.7547 48.9731 29.3473 48.9731 30.0881C48.9731 29.3473 48.5287 28.6066 47.4916 28.014L18.6022 11.5696C16.5281 10.3844 14.8984 11.2733 14.8984 13.6436V13.7918C14.8984 11.5696 16.5281 10.5325 18.6022 11.7177Z" fill="white"/>
<defs>
<linearGradient id="paint0_linear_529_8298" x1="32.388" y1="13.3541" x2="7.52434" y2="38.2168" gradientUnits="userSpaceOnUse">
<stop stop-color="#00A0FF"/>
<stop offset="0.007" stop-color="#00A1FF"/>
<stop offset="0.26" stop-color="#00BEFF"/>
<stop offset="0.512" stop-color="#00D2FF"/>
<stop offset="0.76" stop-color="#00DFFF"/>
<stop offset="1" stop-color="#00E3FF"/>
</linearGradient>
<linearGradient id="paint1_linear_529_8298" x1="50.2144" y1="30.0821" x2="14.3664" y2="30.0821" gradientUnits="userSpaceOnUse">
<stop stop-color="#FFE000"/>
<stop offset="0.409" stop-color="#FFBD00"/>
<stop offset="0.775" stop-color="#FFA500"/>
<stop offset="1" stop-color="#FF9C00"/>
</linearGradient>
<linearGradient id="paint2_linear_529_8298" x1="36.8737" y1="33.4816" x2="3.15817" y2="67.1977" gradientUnits="userSpaceOnUse">
<stop stop-color="#FF3A44"/>
<stop offset="1" stop-color="#C31162"/>
</linearGradient>
<linearGradient id="paint3_linear_529_8298" x1="10.9029" y1="0.711826" x2="25.9592" y2="15.7684" gradientUnits="userSpaceOnUse">
<stop stop-color="#32A071"/>
<stop offset="0.069" stop-color="#2DA771"/>
<stop offset="0.476" stop-color="#15CF74"/>
<stop offset="0.801" stop-color="#06E775"/>
<stop offset="1" stop-color="#00F076"/>
</linearGradient>
<linearGradient id="paint4_linear_529_8298" x1="32.3802" y1="13.3619" x2="7.51653" y2="38.2246" gradientUnits="userSpaceOnUse">
<stop stop-color="#00A0FF"/>
<stop offset="0.007" stop-color="#00A1FF"/>
<stop offset="0.26" stop-color="#00BEFF"/>
<stop offset="0.512" stop-color="#00D2FF"/>
<stop offset="0.76" stop-color="#00DFFF"/>
<stop offset="1" stop-color="#00E3FF"/>
</linearGradient>
<linearGradient id="paint5_linear_529_8298" x1="50.2066" y1="30.0899" x2="14.3586" y2="30.0899" gradientUnits="userSpaceOnUse">
<stop stop-color="#FFE000"/>
<stop offset="0.409" stop-color="#FFBD00"/>
<stop offset="0.775" stop-color="#FFA500"/>
<stop offset="1" stop-color="#FF9C00"/>
</linearGradient>
<linearGradient id="paint6_linear_529_8298" x1="36.8659" y1="33.4894" x2="3.15035" y2="67.2055" gradientUnits="userSpaceOnUse">
<stop stop-color="#FF3A44"/>
<stop offset="1" stop-color="#C31162"/>
</linearGradient>
<linearGradient id="paint7_linear_529_8298" x1="10.8951" y1="0.719638" x2="25.9514" y2="15.7762" gradientUnits="userSpaceOnUse">
<stop stop-color="#32A071"/>
<stop offset="0.069" stop-color="#2DA771"/>
<stop offset="0.476" stop-color="#15CF74"/>
<stop offset="0.801" stop-color="#06E775"/>
<stop offset="1" stop-color="#00F076"/>
</linearGradient>
</defs>
</svg>
