<svg width="400" height="400" viewBox="0 0 400 400" fill="none" xmlns="http://www.w3.org/2000/svg">
<path d="M199.999 391.428C287.062 391.428 357.639 351.335 357.639 301.879C357.639 252.422 287.062 212.33 199.999 212.33C112.937 212.33 42.3594 252.422 42.3594 301.879C42.3594 351.335 112.937 391.428 199.999 391.428Z" fill="#F5F5F5"/>
<path d="M265.603 358.342L147.924 290.4C143.388 287.78 143.39 281.232 147.929 278.617L159.537 271.3C163.614 268.95 168.634 268.952 172.71 271.305L290.389 339.247C294.925 341.866 294.922 348.414 290.384 351.03L278.775 358.348C274.699 360.697 269.678 360.695 265.603 358.342Z" fill="#E0E0E0"/>
<path d="M86.6798 296.402C100.785 296.402 112.219 289.837 112.219 281.74C112.219 273.642 100.785 267.077 86.6798 267.077C72.5749 267.077 61.1406 273.642 61.1406 281.74C61.1406 289.837 72.5749 296.402 86.6798 296.402Z" fill="#E6E6E6"/>
<path d="M307.31 299.762L318.517 306.203C318.517 306.203 312.795 288.227 315.842 270.102C316.993 263.261 319.464 259.854 320.333 258.026C321.202 256.198 327.889 244.871 321.933 239.691C315.977 234.511 302.106 244.932 302.857 272.822C303.243 287.134 307.31 299.762 307.31 299.762Z" fill="#BA68C8"/>
<path opacity="0.5" d="M307.31 299.762L318.517 306.203C318.517 306.203 312.795 288.227 315.842 270.102C316.993 263.261 319.464 259.854 320.333 258.026C321.202 256.198 327.889 244.871 321.933 239.691C315.977 234.511 302.106 244.932 302.857 272.822C303.243 287.134 307.31 299.762 307.31 299.762Z" fill="black"/>
<path d="M312.519 303.156C312.357 303.156 312.204 303.057 312.144 302.895C312.101 302.779 307.828 291.082 307.964 272.278C308.101 253.384 317.975 243.272 318.075 243.173C318.231 243.016 318.484 243.017 318.64 243.172C318.797 243.328 318.797 243.581 318.642 243.738C318.544 243.835 308.898 253.735 308.764 272.283C308.629 290.928 312.851 302.502 312.894 302.617C312.971 302.824 312.866 303.054 312.659 303.131C312.613 303.148 312.566 303.156 312.519 303.156Z" fill="white"/>
<path d="M311.989 302.513L327.303 311.278C330.62 313.177 334.958 312.357 337.078 309.177C337.955 307.861 338.494 306.129 338.285 303.857C337.551 295.907 334.094 294.073 338.33 290.525C342.566 286.978 343.666 286.733 343.422 283.309C343.177 279.885 340.853 278.417 339.752 277.072C338.651 275.726 335.594 272.913 337.673 268.755C339.752 264.597 342.587 260.569 338.284 258.725C335.715 257.625 331.434 259.093 328.622 262.15C325.809 265.208 323.485 267.409 320.794 268.143C318.103 268.877 312.477 268.999 312.722 273.647C312.966 278.295 314.192 279.886 313.089 281.964C311.01 285.878 301.959 288.08 311.989 302.513Z" fill="#BA68C8"/>
<path d="M319.556 307.246C319.352 307.246 319.178 307.091 319.158 306.883C319.133 306.607 316.803 279.153 335.68 260.884C335.838 260.731 336.092 260.735 336.246 260.894C336.399 261.052 336.394 261.306 336.236 261.459C317.631 279.464 319.929 306.537 319.955 306.809C319.975 307.029 319.814 307.223 319.594 307.244C319.581 307.245 319.569 307.246 319.556 307.246Z" fill="white"/>
<path d="M322.589 283.615C322.384 283.615 322.209 283.457 322.191 283.249C321.565 275.963 316.457 272.299 316.405 272.263C316.223 272.135 316.18 271.887 316.307 271.706C316.435 271.524 316.686 271.481 316.864 271.608C317.087 271.764 322.329 275.527 322.987 283.18C323.007 283.4 322.843 283.595 322.623 283.613C322.612 283.614 322.601 283.615 322.589 283.615Z" fill="white"/>
<path d="M321.283 288.328C321.189 288.328 321.095 288.295 321.019 288.228C320.853 288.083 320.836 287.83 320.982 287.664C321.177 287.441 325.9 282.223 336.988 283.611C337.208 283.639 337.363 283.839 337.336 284.058C337.308 284.277 337.1 284.427 336.888 284.405C326.248 283.07 321.629 288.141 321.583 288.192C321.504 288.283 321.394 288.328 321.283 288.328Z" fill="white"/>
<path d="M262.013 350.224L158.518 290.472C151.216 286.256 145.297 274.945 145.297 265.209V43.5931C145.297 33.8571 151.217 29.3819 158.518 33.5979L262.013 93.3499C269.315 97.5659 275.234 108.876 275.234 118.612V340.228C275.235 349.964 269.315 354.44 262.013 350.224Z" fill="#455A64"/>
<path d="M273.928 86.4036L170.435 26.6516C167.312 24.8492 164.445 24.6396 162.184 25.7468L162.181 25.7484C161.904 25.8844 161.635 26.0412 161.376 26.2164L149.781 32.9572C152.112 31.5644 155.168 31.6644 158.518 33.5988L262.012 93.3508C269.315 97.5668 275.234 108.877 275.234 118.613V340.228C275.234 345.376 273.579 349.051 270.94 350.751L282.382 344.085L282.38 344.084C285.295 342.532 287.151 338.732 287.151 333.282V111.666C287.151 101.93 281.231 90.6196 273.928 86.4036Z" fill="#37474F"/>
<path d="M275.232 118.613V340.228C275.232 345.376 273.577 349.051 270.938 350.751L282.38 344.085L282.378 344.084C285.293 342.532 287.149 338.732 287.149 333.282V111.666C287.149 111.66 287.149 111.654 287.149 111.648L275.23 118.568C275.231 118.584 275.232 118.598 275.232 118.613Z" fill="#263238"/>
<path d="M287.152 128.871L275.234 135.752V141.125L287.152 134.244V128.871Z" fill="#37474F"/>
<path d="M281.93 164.625C280.864 165.241 280 164.588 280 163.166V151.609C280 150.187 280.864 148.536 281.93 147.921C282.997 147.305 283.861 147.958 283.861 149.38V160.937C283.86 162.359 282.996 164.01 281.93 164.625Z" fill="#37474F"/>
<path d="M279.999 163.166V151.608C279.999 150.187 280.863 148.535 281.929 147.92C282.394 147.652 282.814 147.637 283.147 147.809L283.149 147.795L281.707 147.047L281.705 147.059C281.367 146.868 280.934 146.876 280.454 147.153C279.388 147.769 278.523 149.42 278.523 150.841V162.399C278.523 163.166 278.78 163.699 279.179 163.939L279.177 163.951L280.691 164.74L280.693 164.727C280.272 164.499 279.999 163.958 279.999 163.166Z" fill="#455A64"/>
<path d="M281.93 192.604C280.864 193.22 280 192.567 280 191.145V179.588C280 178.166 280.864 176.515 281.93 175.9C282.997 175.284 283.861 175.937 283.861 177.359V188.916C283.86 190.338 282.996 191.989 281.93 192.604Z" fill="#37474F"/>
<path d="M279.999 191.145V179.587C279.999 178.166 280.863 176.514 281.929 175.899C282.394 175.631 282.814 175.616 283.147 175.788L283.149 175.774L281.707 175.026L281.705 175.038C281.367 174.847 280.934 174.855 280.454 175.132C279.388 175.748 278.523 177.398 278.523 178.82V190.378C278.523 191.145 278.78 191.678 279.179 191.918L279.177 191.93L280.691 192.719L280.693 192.706C280.272 192.478 279.999 191.937 279.999 191.145Z" fill="#455A64"/>
<path d="M258.414 99.5827L156.7 40.8475C154.83 39.7675 152.492 41.1171 152.492 43.2763V265.208C152.492 272.619 157.743 281.715 164.161 285.419L263.403 342.717C265.463 343.906 268.037 342.419 268.037 340.042V116.251C268.037 110.139 263.707 102.639 258.414 99.5827Z" fill="#BA68C8"/>
<path opacity="0.9" d="M258.414 99.5827L156.7 40.8475C154.83 39.7675 152.492 41.1171 152.492 43.2763V265.208C152.492 272.619 157.743 281.715 164.161 285.419L263.403 342.717C265.463 343.906 268.037 342.419 268.037 340.042V116.251C268.037 110.139 263.707 102.639 258.414 99.5827Z" fill="white"/>
<path d="M187.117 56.1812L188.692 62.818L222.405 82.2556L228.226 79.1524L187.117 56.1812Z" fill="#455A64"/>
<path d="M197.022 62.5932C197.022 63.694 196.249 64.1396 195.296 63.5892C194.343 63.0388 193.57 61.7012 193.57 60.6004C193.57 59.5004 194.343 59.054 195.296 59.6044C196.25 60.1548 197.022 61.4932 197.022 62.5932Z" fill="#263238"/>
<path d="M219.735 76.6313C219.556 76.6313 219.376 76.5873 219.21 76.4937L201.991 66.8721C201.471 66.5809 201.284 65.9233 201.575 65.4033C201.866 64.8825 202.524 64.6969 203.043 64.9873L220.263 74.6089C220.783 74.9001 220.969 75.5577 220.678 76.0777C220.481 76.4313 220.114 76.6313 219.735 76.6313Z" fill="#263238"/>
<path d="M173.813 87.0385C172.765 86.4337 172.005 86.9593 172.005 88.2977C172.005 89.6505 172.765 91.0681 173.813 91.6729C174.435 92.0329 175.221 92.0401 175.794 91.6657L177.465 94.6881C176.493 95.3497 175.009 95.2849 173.663 94.5073C170.983 92.9601 169.039 89.6353 169.039 86.6273C169.039 83.6625 171.033 82.6553 173.776 84.2385C175.109 85.0089 176.567 86.5705 177.465 88.2113L175.794 89.5353C175.271 88.4129 174.485 87.4273 173.813 87.0385Z" fill="#BA68C8"/>
<path d="M187.089 97.0633C187.089 100.057 185.071 101.094 182.291 99.4889C179.511 97.8841 177.492 94.5305 177.492 91.5225C177.492 88.5289 179.511 87.5505 182.291 89.1553C185.071 90.7593 187.089 94.0833 187.089 97.0633ZM180.459 93.2497C180.459 94.6313 181.331 96.1569 182.328 96.7329C183.326 97.3089 184.123 96.7473 184.123 95.3657C184.123 93.9833 183.326 92.5305 182.328 91.9545C181.319 91.3713 180.459 91.8673 180.459 93.2497Z" fill="#BA68C8"/>
<path d="M190.317 93.8897L193.769 101.064V95.8825L196.386 97.3937V107.482L193.969 106.086L190.528 98.9481V104.101L187.898 102.582V92.4937L190.317 93.8897Z" fill="#BA68C8"/>
<path d="M204.935 102.331V104.964L202.442 103.525V110.98L199.551 109.311V101.855L197.07 100.423V97.7891L204.935 102.331Z" fill="#BA68C8"/>
<path d="M210.567 114.248L207.289 112.356L206.841 113.521L203.875 111.808L207.564 103.849L210.53 105.562L214.081 117.702L211.003 115.924L210.567 114.248ZM209.857 111.449L208.96 107.98L208.037 110.399L209.857 111.449Z" fill="#BA68C8"/>
<path d="M218.672 112.938C217.624 112.334 216.865 112.859 216.865 114.198C216.865 115.55 217.624 116.968 218.672 117.573C219.294 117.933 220.081 117.94 220.654 117.566L222.325 120.588C221.352 121.25 219.869 121.185 218.522 120.407C215.842 118.86 213.898 115.535 213.898 112.527C213.898 109.562 215.893 108.555 218.635 110.138C219.969 110.909 221.426 112.47 222.325 114.111L220.654 115.435C220.13 114.313 219.345 113.327 218.672 112.938Z" fill="#BA68C8"/>
<path d="M230.216 116.925V119.559L227.724 118.119V125.575L224.832 123.905V116.45L222.352 115.018V112.384L230.216 116.925Z" fill="#BA68C8"/>
<path d="M238.753 129.31C239.464 129.721 240.012 129.404 240.012 128.396V122.581L242.904 124.251V130.065C242.904 132.743 241.271 133.541 238.74 132.081C236.197 130.613 234.516 127.9 234.516 125.223V119.409L237.407 121.078V126.893C237.408 127.885 238.031 128.893 238.753 129.31Z" fill="#BA68C8"/>
<path d="M247.565 129.347C247.241 129.16 247.029 129.152 247.029 129.455C247.029 130.721 251.553 132.542 251.553 136.197C251.553 138.443 249.845 138.449 247.875 137.312C246.355 136.435 244.66 134.866 243.5 133.175L244.573 131.289C245.47 132.671 247.015 134.268 247.9 134.779C248.324 135.024 248.598 135.024 248.598 134.663C248.598 133.354 244.074 131.605 244.074 128.065C244.074 126.051 245.545 125.633 247.813 126.942C249.196 127.741 250.63 129.043 251.615 130.331L250.568 132.26C249.683 131.188 248.325 129.785 247.565 129.347Z" fill="#BA68C8"/>
<path d="M159.264 136.753C162.152 133.212 163.886 128.693 163.886 123.768C163.886 112.412 154.681 103.208 143.326 103.208C131.97 103.208 122.766 112.412 122.766 123.768C122.766 135.123 131.97 144.328 143.326 144.328C147.182 144.328 150.79 143.264 153.874 141.416L163.886 145.764L159.264 136.753Z" fill="#BA68C8"/>
<path opacity="0.4" d="M159.264 136.753C162.152 133.212 163.886 128.693 163.886 123.768C163.886 112.412 154.681 103.208 143.326 103.208C131.97 103.208 122.766 112.412 122.766 123.768C122.766 135.123 131.97 144.328 143.326 144.328C147.182 144.328 150.79 143.264 153.874 141.416L163.886 145.764L159.264 136.753Z" fill="black"/>
<path d="M135.711 122.674C135.711 122.357 135.486 122.186 135.076 122.186C134.375 122.186 133.45 122.649 132.551 123.375L131.414 121.167C132.736 120.255 134.097 119.713 135.552 119.713C137.468 119.713 138.924 120.718 138.924 122.225C138.924 123.295 138.143 124.327 137.099 125.358L135.672 126.773H139.056V129.126H131.784L131.771 127.195L135.01 123.85C135.393 123.454 135.711 122.992 135.711 122.674Z" fill="white"/>
<path d="M144.973 119.846L142.765 125.146H143.664V123.362H146.453V125.146H147.51V127.328H146.453V129.126H143.664V127.328H139.711V125.345L142.091 119.846H144.973Z" fill="white"/>
<path d="M156.096 124.513V129.127H153.122V125.372C153.122 124.764 152.778 124.381 152.262 124.381C151.681 124.381 151.311 124.844 151.311 125.544V129.127H148.336V119.318H151.311V122.927C151.8 122.187 152.554 121.763 153.506 121.763C155.026 121.763 156.096 122.847 156.096 124.513Z" fill="white"/>
<path d="M253.147 198.851V298.248C253.147 303.186 247.8 306.275 243.525 303.803L189.987 272.889L180.503 267.419C178.5 266.264 176.729 264.808 175.235 263.129C171.76 259.247 169.758 254.17 169.758 248.801V149.395C169.758 144.458 175.096 141.376 179.379 143.841L242.393 180.231C249.049 184.068 253.147 191.171 253.147 198.851Z" fill="#BA68C8"/>
<path opacity="0.5" d="M253.147 198.851V298.248C253.147 303.186 247.8 306.275 243.525 303.803L189.987 272.889L180.503 267.419C178.5 266.264 176.729 264.808 175.235 263.129C171.76 259.247 169.758 254.17 169.758 248.801V149.395C169.758 144.458 175.096 141.376 179.379 143.841L242.393 180.231C249.049 184.068 253.147 191.171 253.147 198.851Z" fill="white"/>
<path d="M222.316 257.663C222.316 257.663 232.342 274.287 225.096 293.034L189.992 272.888L222.316 257.663Z" fill="#263238"/>
<path d="M238.294 182.97C239.053 176.809 234.673 171.199 228.512 170.441C222.351 169.682 216.741 174.062 215.983 180.223C215.224 186.384 219.604 191.993 225.765 192.752C231.926 193.511 237.536 189.131 238.294 182.97Z" fill="#263238"/>
<path d="M227.188 150.069C227.188 150.069 230.639 144.443 231.698 144.877C232.757 145.31 231.008 150.625 231.008 150.625C231.008 150.625 236.228 151.709 235.252 153.01C234.276 154.312 227.908 154.012 227.908 154.012L227.188 150.069Z" fill="#263238"/>
<path d="M229.612 164.501C227.185 182.535 212.009 182.535 212.009 182.535L180.156 168.523C180.156 168.523 177.752 166.42 177.02 161.582C176.766 159.926 176.704 157.938 177.012 155.612C177.012 155.597 177.02 155.573 177.02 155.557C178.037 147.977 183.707 139.82 196.063 137.316C198.528 136.807 201.263 136.53 204.282 136.53C205.661 136.53 206.986 136.592 208.257 136.73C217.894 137.67 224.588 142.153 227.793 149.117C228.494 150.642 229.026 152.284 229.38 154.04C230.036 157.199 230.12 160.704 229.612 164.501Z" fill="#263238"/>
<path d="M153.161 199.382C153.161 199.382 141.854 198.996 137.5 210.012C137.5 210.012 142.31 213.252 148.601 210.026C154.89 206.8 153.161 199.382 153.161 199.382Z" fill="#BA68C8"/>
<path opacity="0.5" d="M153.161 199.382C153.161 199.382 141.854 198.996 137.5 210.012C137.5 210.012 142.31 213.252 148.601 210.026C154.89 206.8 153.161 199.382 153.161 199.382Z" fill="black"/>
<path d="M152.836 204.686C152.836 204.686 149.647 190.786 147.955 190.614C146.176 190.433 145.936 194.856 146.074 197.343L142.046 188.739C141.514 187.604 140.138 187.165 139.04 187.769C135.033 189.97 128.023 196.657 142.82 213.196L152.836 204.686Z" fill="#945959"/>
<path d="M193.798 195.075L191.413 194.759C186.486 194.107 181.59 196.163 178.606 200.136L164.329 219.147L153.161 199.382C153.161 199.382 151.812 212.825 137.5 210.011L152.874 235.874C157.074 242.941 167.026 243.671 172.214 237.292L185.365 221.12L193.798 195.075Z" fill="#BA68C8"/>
<path d="M224.278 239.432C221.081 247.544 220.727 249.131 222.714 253.183C224.694 257.227 225.934 262.496 225.934 262.496C225.934 262.496 211.105 279.12 189.99 272.888L180.507 267.419C178.504 266.263 176.732 264.807 175.238 263.128L178.073 241.635C178.22 240.503 178.104 239.339 177.734 238.261L174.707 229.379C171.687 220.513 174.021 210.707 180.723 204.166L190.915 194.205L217.684 197.579L221.66 198.727C227.068 200.283 230.519 205.583 229.748 211.16C228.43 220.644 226.288 234.333 224.278 239.432Z" fill="#BA68C8"/>
<path opacity="0.5" d="M224.278 239.432C221.081 247.544 220.727 249.131 222.714 253.183C224.694 257.227 225.934 262.496 225.934 262.496C225.934 262.496 211.105 279.12 189.99 272.888L180.507 267.419C178.504 266.263 176.732 264.807 175.238 263.128L178.073 241.635C178.22 240.503 178.104 239.339 177.734 238.261L174.707 229.379C171.687 220.513 174.021 210.707 180.723 204.166L190.915 194.205L217.684 197.579L221.66 198.727C227.068 200.283 230.519 205.583 229.748 211.16C228.43 220.644 226.288 234.333 224.278 239.432Z" fill="black"/>
<path d="M208.14 215.226L202.779 210.66C201.622 209.673 200.029 209.372 198.591 209.866L192.11 212.094L191.239 208.465C190.667 206.081 188.22 204.656 185.864 205.335L183.055 206.144L187.812 197.04C189.362 194.075 191.751 191.632 194.68 190.017L196.542 188.991L211.943 189.784C211.943 189.784 217.684 192.161 217.684 197.584L208.14 215.226Z" fill="#BA68C8"/>
<path d="M212.015 196.573L196.57 208.606V170.297H212.015V196.573Z" fill="#945959"/>
<path d="M196.806 193.419L192.109 212.093L211.942 196.572L196.806 193.419Z" fill="#945959"/>
<path d="M196.562 190.642C202.504 188.349 208.713 183.746 212.007 175.954V170.297H196.562V190.642Z" fill="#703838"/>
<path d="M199.903 141.907C194.046 141.907 181.592 145.172 180.155 160.496C178.718 175.82 180.105 187.712 188.015 188.852C195.926 189.991 214.287 184.265 216.746 164.426C219.206 144.588 205.617 141.907 199.903 141.907Z" fill="#945959"/>
<path d="M190.675 166.982V176.02L185.383 174.395L190.675 166.982Z" fill="#703838"/>
<path d="M196.56 170.386C197.577 170.386 198.402 169.562 198.402 168.545C198.402 167.528 197.577 166.703 196.56 166.703C195.543 166.703 194.719 167.528 194.719 168.545C194.719 169.562 195.543 170.386 196.56 170.386Z" fill="#263238"/>
<path d="M186.293 167.261C186.293 168.278 185.469 169.102 184.451 169.102C183.434 169.102 182.609 168.278 182.609 167.261C182.609 166.244 183.434 165.419 184.451 165.419C185.468 165.419 186.293 166.244 186.293 167.261Z" fill="#263238"/>
<path d="M182.211 163.427L185.812 161.288C185.812 161.288 184.429 159.852 183.054 160.715C181.678 161.578 182.211 163.427 182.211 163.427Z" fill="#263238"/>
<path d="M188.188 179.682C188.188 179.682 191.111 179.949 193.147 178.354C193.147 178.354 193.485 180.966 191.297 181.466C189.109 181.966 188.188 179.682 188.188 179.682Z" fill="#703838"/>
<path d="M185.047 147.118C185.047 147.118 187.249 168.282 216.021 168.942C216.021 168.942 224.714 147.913 207.533 141.081C190.352 134.249 185.047 147.118 185.047 147.118Z" fill="#263238"/>
<path d="M224.498 165.775L224.499 165.774L224.483 165.765C224.479 165.763 224.475 165.76 224.471 165.758L220.934 163.715L220.932 163.718C219.593 162.927 217.735 163.03 215.679 164.216C211.598 166.573 208.289 172.303 208.289 177.016C208.289 179.375 209.119 181.032 210.459 181.803L213.933 183.799C213.999 183.839 214.067 183.878 214.135 183.915L214.253 183.983L214.259 183.973C215.575 184.61 217.324 184.459 219.252 183.346C223.334 180.99 226.643 175.259 226.643 170.546C226.641 168.201 225.822 166.552 224.498 165.775Z" fill="#BA68C8"/>
<path d="M224.473 177.833C227.359 172.835 227.359 167.432 224.473 165.766C221.587 164.1 216.909 166.801 214.022 171.8C211.136 176.798 211.136 182.201 214.022 183.867C216.908 185.534 221.587 182.832 224.473 177.833Z" fill="#BA68C8"/>
<path opacity="0.5" d="M224.473 177.833C227.359 172.835 227.359 167.432 224.473 165.766C221.587 164.1 216.909 166.801 214.022 171.8C211.136 176.798 211.136 182.201 214.022 183.867C216.908 185.534 221.587 182.832 224.473 177.833Z" fill="black"/>
<path d="M225.919 170.213L225.919 170.212L225.909 170.206C225.906 170.204 225.903 170.203 225.9 170.201L223.48 168.803L223.479 168.805C222.563 168.264 221.291 168.335 219.885 169.146C217.092 170.759 214.828 174.679 214.828 177.904C214.828 179.519 215.396 180.652 216.313 181.179L218.689 182.544C218.735 182.572 218.781 182.599 218.828 182.624L218.908 182.671L218.912 182.664C219.812 183.099 221.01 182.997 222.329 182.235C225.122 180.623 227.386 176.702 227.386 173.477C227.386 171.873 226.825 170.745 225.919 170.213Z" fill="#BA68C8"/>
<path d="M227.387 173.477C227.387 176.702 225.123 180.622 222.33 182.235C219.537 183.848 217.273 182.541 217.273 179.316C217.273 176.091 219.537 172.17 222.33 170.558C225.123 168.945 227.387 170.252 227.387 173.477Z" fill="#BA68C8"/>
<path opacity="0.3" d="M227.387 173.477C227.387 176.702 225.123 180.622 222.33 182.235C219.537 183.848 217.273 182.541 217.273 179.316C217.273 176.091 219.537 172.17 222.33 170.558C225.123 168.945 227.387 170.252 227.387 173.477Z" fill="black"/>
<path d="M213.511 137.772C211.227 135.987 208.406 135.044 205.508 135.002C205.277 134.999 205.045 134.997 204.811 134.997C201.6 134.997 198.692 135.292 196.07 135.832C196.597 135.811 197.123 135.814 197.65 135.832H196.07V137.316H197.555C200.737 137.428 203.901 138.303 206.747 139.943C212.856 143.471 216.654 150.05 216.654 157.106V163.399C216.654 164.448 217.55 165.279 218.613 165.169C218.675 165.163 218.733 165.144 218.793 165.131L220.371 164.64V164.638C220.265 164.67 220.156 164.695 220.042 164.707C221.025 164.606 221.734 163.703 221.734 162.715V156.875C221.734 146.312 217.167 140.631 213.511 137.772Z" fill="#BA68C8"/>
<path d="M203.444 188.411C202.795 188.411 202.142 188.274 201.528 187.989L196.525 185.676C196.227 185.538 196.097 185.183 196.235 184.885C196.374 184.586 196.729 184.459 197.025 184.594L202.028 186.907C203.334 187.511 204.882 187.22 205.881 186.182L210.653 181.219C210.881 180.983 211.258 180.975 211.496 181.203C211.733 181.431 211.741 181.808 211.513 182.045L206.741 187.007C205.859 187.925 204.661 188.411 203.444 188.411Z" fill="#BA68C8"/>
<path opacity="0.5" d="M203.444 188.411C202.795 188.411 202.142 188.274 201.528 187.989L196.525 185.676C196.227 185.538 196.097 185.183 196.235 184.885C196.374 184.586 196.729 184.459 197.025 184.594L202.028 186.907C203.334 187.511 204.882 187.22 205.881 186.182L210.653 181.219C210.881 180.983 211.258 180.975 211.496 181.203C211.733 181.431 211.741 181.808 211.513 182.045L206.741 187.007C205.859 187.925 204.661 188.411 203.444 188.411Z" fill="black"/>
<path d="M197.844 183.981C197.844 185.271 196.798 186.317 195.508 186.317C194.217 186.317 193.172 185.271 193.172 183.981C193.172 182.691 194.217 181.645 195.508 181.645C196.798 181.645 197.844 182.691 197.844 183.981Z" fill="#BA68C8"/>
<path opacity="0.5" d="M197.844 183.981C197.844 185.271 196.798 186.317 195.508 186.317C194.217 186.317 193.172 185.271 193.172 183.981C193.172 182.691 194.217 181.645 195.508 181.645C196.798 181.645 197.844 182.691 197.844 183.981Z" fill="black"/>
<path d="M221.735 156.877V162.716C221.735 163.705 221.026 164.607 220.042 164.708C218.913 164.824 217.958 163.941 217.958 162.827V156.878C217.958 149.375 213.92 142.379 207.424 138.627C203.926 136.612 199.978 135.678 196.07 135.833C198.692 135.292 201.6 134.998 204.811 134.998C205.045 134.998 205.278 135 205.508 135.003C208.406 135.045 211.228 135.988 213.511 137.773C217.168 140.631 221.735 146.312 221.735 156.877Z" fill="#BA68C8"/>
<path opacity="0.5" d="M221.735 156.877V162.716C221.735 163.705 221.026 164.607 220.042 164.708C218.913 164.824 217.958 163.941 217.958 162.827V156.878C217.958 149.375 213.92 142.379 207.424 138.627C203.926 136.612 199.978 135.678 196.07 135.833C198.692 135.292 201.6 134.998 204.811 134.998C205.045 134.998 205.278 135 205.508 135.003C208.406 135.045 211.228 135.988 213.511 137.773C217.168 140.631 221.735 146.312 221.735 156.877Z" fill="black"/>
<path d="M212.741 266.939C212.741 266.939 208.867 277.617 222.71 282.388C222.71 282.388 227.231 275.754 222.71 270.323C218.189 264.892 212.741 266.939 212.741 266.939Z" fill="#BA68C8"/>
<path opacity="0.7" d="M212.741 266.939C212.741 266.939 208.867 277.617 222.71 282.388C222.71 282.388 227.231 275.754 222.71 270.323C218.189 264.892 212.741 266.939 212.741 266.939Z" fill="black"/>
<path d="M217.577 267.422C217.577 267.422 204.061 272.38 204.129 274.294C204.197 276.207 209.877 274.906 209.877 274.906L207.801 276.263C205.621 277.689 203.933 279.751 202.964 282.169C202.522 283.272 202.984 284.532 204.034 285.088L209.171 287.809C210.393 288.456 211.909 287.966 212.52 286.725C213.089 285.571 214.109 284.715 215.331 284.308C218.122 283.377 223.308 280.703 225.417 273.396L217.577 267.422Z" fill="#945959"/>
<path d="M221.657 198.728C221.657 198.728 214.464 202.74 218.279 214.874C222.094 227.008 229.283 245.86 229.283 245.86L212.742 266.94C212.742 266.94 218.279 267.311 221.633 272.248C224.986 277.184 222.711 282.39 222.711 282.39L243.238 256.02C247.097 251.064 248.193 244.495 246.151 238.554L237.322 212.855C235.137 206.492 230.102 201.518 223.714 199.408L221.657 198.728Z" fill="#BA68C8"/>
<path d="M100.133 126.992L68.3176 108.623C67.3576 108.068 66.4768 108.004 65.7808 108.344L65.78 108.345C65.6944 108.387 65.612 108.435 65.532 108.489L58.6128 112.544C58.6264 112.536 58.6416 112.531 58.6552 112.524C57.7864 113.016 57.2344 114.168 57.2344 115.815V151.191C57.2344 154.184 59.0544 157.66 61.2992 158.956L93.1144 177.325C94.2008 177.952 95.1848 177.949 95.9136 177.444C95.8944 177.457 95.8776 177.475 95.8584 177.487L102.73 173.454L102.73 173.453C103.626 172.976 104.196 171.808 104.196 170.132V134.756C104.197 131.764 102.378 128.288 100.133 126.992Z" fill="#BA68C8"/>
<path d="M103.064 130.344C102.324 128.893 101.288 127.656 100.137 126.992L68.322 108.623C67.362 108.068 66.4812 108.004 65.7852 108.344L65.7844 108.345C65.6988 108.387 65.6164 108.435 65.5364 108.489L58.6172 112.544C59.3332 112.116 60.2732 112.147 61.3028 112.742L93.118 131.111C94.3084 131.798 95.3764 133.101 96.1196 134.618L103.064 130.344Z" fill="#BA68C8"/>
<path d="M97.1794 174.253C97.1794 175.835 96.6706 176.965 95.8594 177.487L102.731 173.454L102.731 173.453C103.627 172.977 104.197 171.809 104.197 170.133V134.757C104.197 133.297 103.762 131.725 103.059 130.344L96.1154 134.617C96.7738 135.96 97.1786 137.469 97.1786 138.875L97.1794 174.253Z" fill="#BA68C8"/>
<path opacity="0.3" d="M103.064 130.344C102.324 128.893 101.288 127.656 100.137 126.992L68.322 108.623C67.362 108.068 66.4812 108.004 65.7852 108.344L65.7844 108.345C65.6988 108.387 65.6164 108.435 65.5364 108.489L58.6172 112.544C59.3332 112.116 60.2732 112.147 61.3028 112.742L93.118 131.111C94.3084 131.798 95.3764 133.101 96.1196 134.618L103.064 130.344Z" fill="black"/>
<path opacity="0.6" d="M97.1794 174.253C97.1794 175.835 96.6706 176.965 95.8594 177.487L102.731 173.454L102.731 173.453C103.627 172.977 104.197 171.809 104.197 170.133V134.757C104.197 133.297 103.762 131.725 103.059 130.344L96.1154 134.617C96.7738 135.96 97.1786 137.469 97.1786 138.875L97.1794 174.253Z" fill="black"/>
<path d="M87.854 149.017C87.854 153.597 86.0372 155.157 83.3116 153.584C81.8052 152.714 80.742 151.332 80.2764 149.605C79.5004 150.59 78.238 150.654 76.4868 149.644C73.6292 147.993 71.3684 144.079 71.3684 140.216C71.3684 136.378 73.6068 135.06 76.4868 136.724C77.9492 137.568 79.102 138.821 79.8988 140.382V138.872L82.9124 140.612V148.902C82.9124 150.13 83.378 150.808 83.9764 151.153C84.9956 151.742 85.6156 150.744 85.6156 147.776C85.6156 142.583 82.2916 137.082 77.3732 134.242C72.4324 131.389 69.13 133.372 69.13 138.72C69.13 144.169 72.366 149.9 77.2844 152.74C78.6796 153.545 80.2532 154.121 81.6484 154.134L82.358 156.897C81.006 156.91 79.034 156.206 77.2844 155.196C70.8804 151.499 66.6484 144.04 66.6484 137.287C66.6484 130.609 70.9244 128.089 77.3724 131.812C83.5996 135.407 87.854 142.596 87.854 149.017ZM79.9436 145.167C79.9436 142.941 78.7692 141.009 77.174 140.088C75.5564 139.155 74.4268 139.807 74.4268 141.982C74.4268 144.182 75.5564 146.165 77.174 147.099C78.7692 148.02 79.9436 147.419 79.9436 145.167Z" fill="#BA68C8"/>
<g opacity="0.9">
<path d="M87.854 149.017C87.854 153.597 86.0372 155.157 83.3116 153.584C81.8052 152.714 80.742 151.332 80.2764 149.605C79.5004 150.59 78.238 150.654 76.4868 149.644C73.6292 147.993 71.3684 144.079 71.3684 140.216C71.3684 136.378 73.6068 135.06 76.4868 136.724C77.9492 137.568 79.102 138.821 79.8988 140.382V138.872L82.9124 140.612V148.902C82.9124 150.13 83.378 150.808 83.9764 151.153C84.9956 151.742 85.6156 150.744 85.6156 147.776C85.6156 142.583 82.2916 137.082 77.3732 134.242C72.4324 131.389 69.13 133.372 69.13 138.72C69.13 144.169 72.366 149.9 77.2844 152.74C78.6796 153.545 80.2532 154.121 81.6484 154.134L82.358 156.897C81.006 156.91 79.034 156.206 77.2844 155.196C70.8804 151.499 66.6484 144.04 66.6484 137.287C66.6484 130.609 70.9244 128.089 77.3724 131.812C83.5996 135.407 87.854 142.596 87.854 149.017ZM79.9436 145.167C79.9436 142.941 78.7692 141.009 77.174 140.088C75.5564 139.155 74.4268 139.807 74.4268 141.982C74.4268 144.182 75.5564 146.165 77.174 147.099C78.7692 148.02 79.9436 147.419 79.9436 145.167Z" fill="white"/>
</g>
<path d="M100.133 190.013L68.3176 171.644C67.3576 171.089 66.4768 171.025 65.7808 171.365L65.78 171.366C65.6944 171.408 65.612 171.456 65.532 171.51L58.6128 175.565C58.6264 175.557 58.6416 175.552 58.6552 175.545C57.7864 176.037 57.2344 177.189 57.2344 178.836V214.212C57.2344 217.205 59.0544 220.681 61.2992 221.977L93.1144 240.346C94.2008 240.973 95.1848 240.97 95.9136 240.465C95.8944 240.478 95.8776 240.496 95.8584 240.508L102.73 236.475L102.73 236.474C103.626 235.997 104.196 234.829 104.196 233.153V197.777C104.197 194.786 102.378 191.309 100.133 190.013Z" fill="#BA68C8"/>
<path d="M103.064 193.366C102.324 191.915 101.288 190.677 100.137 190.013L68.322 171.645C67.362 171.09 66.4812 171.026 65.7852 171.366L65.7844 171.367C65.6988 171.409 65.6164 171.457 65.5364 171.511L58.6172 175.566C59.3332 175.138 60.2732 175.169 61.3028 175.764L93.118 194.133C94.3084 194.82 95.3764 196.123 96.1196 197.64L103.064 193.366Z" fill="#BA68C8"/>
<path d="M97.1794 237.274C97.1794 238.856 96.6706 239.986 95.8594 240.508L102.731 236.476L102.731 236.475C103.627 235.998 104.197 234.83 104.197 233.154V197.778C104.197 196.319 103.762 194.746 103.059 193.365L96.1154 197.638C96.7738 198.981 97.1786 200.491 97.1786 201.897L97.1794 237.274Z" fill="#BA68C8"/>
<path opacity="0.3" d="M103.064 193.366C102.324 191.915 101.288 190.677 100.137 190.013L68.322 171.645C67.362 171.09 66.4812 171.026 65.7852 171.366L65.7844 171.367C65.6988 171.409 65.6164 171.457 65.5364 171.511L58.6172 175.566C59.3332 175.138 60.2732 175.169 61.3028 175.764L93.118 194.133C94.3084 194.82 95.3764 196.123 96.1196 197.64L103.064 193.366Z" fill="black"/>
<path opacity="0.6" d="M97.1794 237.274C97.1794 238.856 96.6706 239.986 95.8594 240.508L102.731 236.476L102.731 236.475C103.627 235.998 104.197 234.83 104.197 233.154V197.778C104.197 196.319 103.762 194.746 103.059 193.365L96.1154 197.638C96.7738 198.981 97.1786 200.491 97.1786 201.897L97.1794 237.274Z" fill="black"/>
<path d="M73.6391 205.83L65.9688 193.366V210.259L73.6391 205.83Z" fill="#BA68C8"/>
<path d="M80.7656 209.421L88.4224 222.684V205.82L80.7656 209.421Z" fill="#BA68C8"/>
<path d="M67.1328 192.819L75.0112 205.622C75.0416 205.656 75.0776 205.683 75.1008 205.724C75.1184 205.754 75.1208 205.788 75.1336 205.82L77.4424 209.573L79.4248 208.64C79.4584 208.61 79.4864 208.574 79.5272 208.55C79.6096 208.503 79.6976 208.479 79.7864 208.47L87.752 204.723L67.1328 192.819Z" fill="#BA68C8"/>
<path d="M79.6102 209.968L77.4718 210.974C77.3846 211.016 77.291 211.035 77.2006 211.035C76.9846 211.035 76.775 210.925 76.655 210.731L74.3102 206.92L66.6094 211.367L87.3214 223.325L79.6102 209.968Z" fill="#BA68C8"/>
<g opacity="0.9">
<path d="M73.6391 205.83L65.9688 193.366V210.259L73.6391 205.83Z" fill="white"/>
<path d="M80.7656 209.421L88.4224 222.684V205.82L80.7656 209.421Z" fill="white"/>
<path d="M67.1328 192.819L75.0112 205.622C75.0416 205.656 75.0776 205.683 75.1008 205.724C75.1184 205.754 75.1208 205.788 75.1336 205.82L77.4424 209.573L79.4248 208.64C79.4584 208.61 79.4864 208.574 79.5272 208.55C79.6096 208.503 79.6976 208.479 79.7864 208.47L87.752 204.723L67.1328 192.819Z" fill="white"/>
<path d="M79.6102 209.968L77.4718 210.974C77.3846 211.016 77.291 211.035 77.2006 211.035C76.9846 211.035 76.775 210.925 76.655 210.731L74.3102 206.92L66.6094 211.367L87.3214 223.325L79.6102 209.968Z" fill="white"/>
</g>
<path d="M100.133 63.972L68.3176 45.6032C67.3576 45.0488 66.4768 44.9848 65.7808 45.3248L65.78 45.3256C65.6944 45.3672 65.612 45.4152 65.532 45.4696L58.6128 49.5248C58.6264 49.5168 58.6416 49.5112 58.6552 49.504C57.7864 49.996 57.2344 51.1488 57.2344 52.7952V88.1712C57.2344 91.164 59.0544 94.6416 61.2992 95.9376L93.1144 114.306C94.2008 114.934 95.1848 114.93 95.9136 114.426C95.8944 114.438 95.8776 114.456 95.8584 114.468L102.73 110.435L102.73 110.434C103.626 109.958 104.196 108.79 104.196 107.114V71.7376C104.197 68.7448 102.378 65.268 100.133 63.972Z" fill="#BA68C8"/>
<path d="M103.064 67.3248C102.324 65.8736 101.288 64.636 100.137 63.9712L68.322 45.6032C67.362 45.0488 66.4812 44.9848 65.7852 45.3248L65.7844 45.3256C65.6988 45.3672 65.6164 45.4152 65.5364 45.4696L58.6172 49.5248C59.3332 49.0968 60.2732 49.1272 61.3028 49.7224L93.118 68.0912C94.3084 68.7784 95.3764 70.0816 96.1196 71.5984L103.064 67.3248Z" fill="#BA68C8"/>
<path d="M97.1794 111.233C97.1794 112.815 96.6706 113.945 95.8594 114.467L102.731 110.435L102.731 110.434C103.627 109.957 104.197 108.789 104.197 107.113V71.737C104.197 70.2778 103.762 68.705 103.059 67.3242L96.1154 71.597C96.7738 72.9402 97.1786 74.4498 97.1786 75.8562L97.1794 111.233Z" fill="#BA68C8"/>
<path opacity="0.3" d="M103.064 67.3248C102.324 65.8736 101.288 64.636 100.137 63.9712L68.322 45.6032C67.362 45.0488 66.4812 44.9848 65.7852 45.3248L65.7844 45.3256C65.6988 45.3672 65.6164 45.4152 65.5364 45.4696L58.6172 49.5248C59.3332 49.0968 60.2732 49.1272 61.3028 49.7224L93.118 68.0912C94.3084 68.7784 95.3764 70.0816 96.1196 71.5984L103.064 67.3248Z" fill="black"/>
<path opacity="0.6" d="M97.1794 111.233C97.1794 112.815 96.6706 113.945 95.8594 114.467L102.731 110.435L102.731 110.434C103.627 109.957 104.197 108.789 104.197 107.113V71.737C104.197 70.2778 103.762 68.705 103.059 67.3242L96.1154 71.597C96.7738 72.9402 97.1786 74.4498 97.1786 75.8562L97.1794 111.233Z" fill="black"/>
<path d="M86.7763 95.9724C85.5531 93.9612 84.3195 91.9572 83.0947 89.9468C82.5323 89.0236 81.8995 88.4884 81.1683 88.3316C80.5747 88.2044 79.9803 88.0748 79.3755 87.8932C79.2155 87.8452 78.9603 87.6388 78.8499 87.4468C76.8099 83.9132 75.2171 80.2836 74.1091 76.5644C74.0579 76.3916 74.0939 76.1604 74.1755 76.0788C74.5507 75.702 74.9499 75.3572 75.3539 75.0228C75.8523 74.6108 75.9387 73.9076 75.6611 72.9036C75.0699 70.7668 74.4987 68.6332 73.9123 66.4972C73.5291 65.0996 72.6635 64.09 71.6211 63.8372C70.1699 63.4852 68.8619 63.5308 67.7003 63.9796C67.2107 64.1692 66.9587 64.61 66.9531 65.366C67.1555 66.8316 67.2955 68.278 67.5699 69.7652C69.5483 80.4948 74.3075 90.378 81.8179 99.4004C82.4091 100.111 83.0011 100.447 83.5995 100.42C84.9187 100.363 86.0491 99.9364 86.9787 99.1188C87.6915 98.494 87.6187 97.3572 86.7763 95.9724Z" fill="#BA68C8"/>
<path d="M86.6861 85.0958C86.5565 82.9574 85.9237 80.755 84.7949 78.5014C83.9789 76.871 82.9765 75.403 81.7981 74.0958C81.4813 73.7438 81.2149 73.6302 81.0621 73.8998C80.9061 74.175 81.0573 74.5382 81.3653 74.883C81.4701 75.0006 81.5741 75.119 81.6749 75.2422C83.9941 78.0558 85.3253 81.0766 85.6613 84.3046C85.6869 84.551 85.6429 84.795 85.7317 85.0342C85.8261 85.2886 86.0301 85.6342 86.2053 85.759C86.3709 85.8766 86.5613 85.7582 86.6981 85.7478C86.6933 85.4334 86.6965 85.2686 86.6861 85.0958Z" fill="#BA68C8"/>
<path d="M79.4273 78.5284C80.4937 79.758 81.0513 81.07 81.1617 82.498C81.1785 82.7124 81.3569 83.0028 81.4129 83.142C81.8993 83.5452 82.1393 83.4092 82.1401 82.9068C82.1417 81.4028 81.0993 79.0316 79.8889 77.7748C79.5881 77.462 79.3345 77.3676 79.1905 77.63C79.0585 77.8732 79.1593 78.2196 79.4273 78.5284Z" fill="#BA68C8"/>
<g opacity="0.9">
<path d="M86.7763 95.9724C85.5531 93.9612 84.3195 91.9572 83.0947 89.9468C82.5323 89.0236 81.8995 88.4884 81.1683 88.3316C80.5747 88.2044 79.9803 88.0748 79.3755 87.8932C79.2155 87.8452 78.9603 87.6388 78.8499 87.4468C76.8099 83.9132 75.2171 80.2836 74.1091 76.5644C74.0579 76.3916 74.0939 76.1604 74.1755 76.0788C74.5507 75.702 74.9499 75.3572 75.3539 75.0228C75.8523 74.6108 75.9387 73.9076 75.6611 72.9036C75.0699 70.7668 74.4987 68.6332 73.9123 66.4972C73.5291 65.0996 72.6635 64.09 71.6211 63.8372C70.1699 63.4852 68.8619 63.5308 67.7003 63.9796C67.2107 64.1692 66.9587 64.61 66.9531 65.366C67.1555 66.8316 67.2955 68.278 67.5699 69.7652C69.5483 80.4948 74.3075 90.378 81.8179 99.4004C82.4091 100.111 83.0011 100.447 83.5995 100.42C84.9187 100.363 86.0491 99.9364 86.9787 99.1188C87.6915 98.494 87.6187 97.3572 86.7763 95.9724Z" fill="white"/>
<path d="M86.6861 85.0958C86.5565 82.9574 85.9237 80.755 84.7949 78.5014C83.9789 76.871 82.9765 75.403 81.7981 74.0958C81.4813 73.7438 81.2149 73.6302 81.0621 73.8998C80.9061 74.175 81.0573 74.5382 81.3653 74.883C81.4701 75.0006 81.5741 75.119 81.6749 75.2422C83.9941 78.0558 85.3253 81.0766 85.6613 84.3046C85.6869 84.551 85.6429 84.795 85.7317 85.0342C85.8261 85.2886 86.0301 85.6342 86.2053 85.759C86.3709 85.8766 86.5613 85.7582 86.6981 85.7478C86.6933 85.4334 86.6965 85.2686 86.6861 85.0958Z" fill="white"/>
<path d="M79.4273 78.5284C80.4937 79.758 81.0513 81.07 81.1617 82.498C81.1785 82.7124 81.3569 83.0028 81.4129 83.142C81.8993 83.5452 82.1393 83.4092 82.1401 82.9068C82.1417 81.4028 81.0993 79.0316 79.8889 77.7748C79.5881 77.462 79.3345 77.3676 79.1905 77.63C79.0585 77.8732 79.1593 78.2196 79.4273 78.5284Z" fill="white"/>
</g>
<path d="M263.356 42.7844L270.854 47.05V44.3964C270.842 44.2076 270.83 44.018 270.83 43.8324C270.83 43.6468 270.842 43.4716 270.854 43.2964V43.234L270.856 43.2356C271.126 39.7188 273.789 38.3708 277.039 40.2476C278.424 41.0468 279.699 42.3124 280.731 43.7932C281.464 39.0164 285.361 37.2924 290.071 40.0124C295.304 43.0332 299.546 50.3804 299.546 56.422L299.551 62.1068C299.551 63.022 300.037 63.8692 300.827 64.3324L305.237 66.9196C307.183 68.0612 308.379 70.1484 308.379 72.4052C308.379 74.4212 306.195 75.6812 304.45 74.6724L263.47 51.0004C261.255 49.7212 259.891 47.358 259.891 44.7996C259.891 43.0212 261.811 41.9044 263.356 42.7844Z" fill="#E6E6E6"/>
<path d="M320.497 41.6754L325.949 44.7778V42.8482C325.94 42.7106 325.931 42.573 325.931 42.4386C325.931 42.3034 325.94 42.1762 325.949 42.049V42.0034L325.951 42.0042C326.147 39.4466 328.084 38.4666 330.447 39.8314C331.454 40.413 332.381 41.333 333.132 42.4098C333.665 38.9362 336.498 37.6826 339.924 39.6602C343.729 41.857 346.813 47.2002 346.813 51.5938L346.817 55.7274C346.817 56.393 347.17 57.009 347.745 57.3458L350.952 59.2274C352.367 60.0578 353.237 61.5754 353.237 63.2162C353.237 64.6826 351.649 65.5986 350.38 64.865L320.579 47.6498C318.969 46.7194 317.977 45.001 317.977 43.141C317.977 41.8482 319.373 41.0362 320.497 41.6754Z" fill="#E6E6E6"/>
</svg>
