<svg width="278" height="538" viewBox="0 0 278 538" fill="none" xmlns="http://www.w3.org/2000/svg">
<g style="mix-blend-mode:screen">
<path d="M138.798 537.16C101.818 537.16 67.0314 525.698 40.8539 504.882C14.5089 483.939 0 456.022 0 426.27C0 396.519 14.5089 368.605 40.8539 347.658C67.0344 326.847 101.818 315.385 138.798 315.385C175.779 315.385 210.566 326.847 236.746 347.658C263.091 368.605 277.6 396.522 277.6 426.27C277.6 456.018 263.091 483.936 236.746 504.882C210.566 525.694 175.782 537.16 138.798 537.16ZM138.798 318.277C63.5208 318.277 2.27646 366.724 2.27646 426.274C2.27646 485.824 63.5208 534.271 138.798 534.271C214.076 534.271 275.321 485.824 275.321 426.274C275.321 366.724 214.076 318.277 138.798 318.277Z" fill="#6CEEFF"/>
</g>
<path d="M138.799 510.081C206.046 510.081 260.56 466.742 260.56 413.28C260.56 359.818 206.046 316.479 138.799 316.479C71.553 316.479 17.0391 359.818 17.0391 413.28C17.0391 466.742 71.553 510.081 138.799 510.081Z" fill="#00203D"/>
<path d="M138.8 486.67C197.808 486.67 245.643 448.641 245.643 401.729C245.643 354.817 197.808 316.787 138.8 316.787C79.7923 316.787 31.957 354.817 31.957 401.729C31.957 448.641 79.7923 486.67 138.8 486.67Z" fill="#00E1FF"/>
<path d="M203.326 354.494C190.365 336.903 166.345 325.09 138.851 325.09C111.357 325.09 87.3372 336.907 74.3764 354.494H64.1797V384.45C64.1797 417.238 97.6101 443.815 138.851 443.815C180.092 443.815 213.522 417.238 213.522 384.45V354.494H203.326Z" fill="#00203D"/>
<path d="M138.851 413.859C180.091 413.859 213.522 387.28 213.522 354.494C213.522 321.708 180.091 295.13 138.851 295.13C97.6112 295.13 64.1797 321.708 64.1797 354.494C64.1797 387.28 97.6112 413.859 138.851 413.859Z" fill="#00E1FF"/>
<path d="M139.241 389.777C165.47 389.777 186.732 372.872 186.732 352.019C186.732 331.166 165.47 314.262 139.241 314.262C113.013 314.262 91.75 331.166 91.75 352.019C91.75 372.872 113.013 389.777 139.241 389.777Z" fill="#9FE4FF"/>
<path d="M63.6761 126.351C63.6761 126.351 57.5173 123.775 54.866 122.258C51.9862 120.609 50.0419 119.751 48.4908 120.454C47.3723 120.96 46.9884 122.362 48.4115 123.246C51.2243 124.996 51.1969 125.061 52.2086 126.158C53.2966 127.34 53.0497 128.765 50.8891 129.271C48.7315 129.777 38.9919 132.183 37.8095 133.924C37.3951 134.534 37.3646 135.064 37.6023 135.465H37.5962C37.5962 135.465 37.6145 135.492 37.6419 135.535C37.648 135.542 37.6511 135.55 37.6571 135.558C38.3276 136.57 44.8948 146.22 51.6113 145.919C55.0427 144.884 67.8237 135.925 67.8237 135.925L63.6761 126.351Z" fill="#FCC088"/>
<path d="M213.324 191.067C213.324 191.067 219.556 193.354 222.417 193.998C225.526 194.697 227.516 195.385 228.482 197.076C229.179 198.297 228.872 199.726 227.302 199.436C224.203 198.868 224.194 198.938 222.868 199.119C221.445 199.316 221.012 200.668 222.57 202.63C224.127 204.592 231.087 213.551 231.288 215.833C231.358 216.637 231.148 217.092 230.77 217.255H230.776C230.776 217.255 230.749 217.27 230.709 217.282C230.7 217.282 230.694 217.289 230.685 217.289C229.682 217.645 219.961 220.904 214.552 215.849C212.181 212.539 205.629 195.995 205.629 195.995L213.321 191.063L213.324 191.067Z" fill="#FCC088"/>
<path d="M65.0111 123.034L61.918 124.884L66.7664 137.59L70.0851 135.682L65.0111 123.034Z" fill="url(#paint0_linear_535_7811)"/>
<path d="M204.215 194.312L205.842 198.123L215.582 191.28L213.897 187.187L204.215 194.312Z" fill="url(#paint1_linear_535_7811)"/>
<path d="M138.721 43.3828C138.721 43.3828 114.417 81.9898 102.404 94.6258C90.3915 107.258 64.0586 122.671 64.0586 122.671C64.0586 122.671 69.0442 132.986 69.0899 137.593L106.086 120.365L129.472 101.62L138.718 43.3867L138.721 43.3828Z" fill="url(#paint2_linear_535_7811)"/>
<path d="M169.749 354.354C169.749 354.354 171.806 375.51 153.225 379.445C149.919 378.928 148.24 372.764 149.139 364.623C150.038 356.482 169.749 354.354 169.749 354.354Z" fill="url(#paint3_linear_535_7811)"/>
<path d="M169.843 342.159C169.843 342.159 171.086 361.781 166.07 369.598C160.649 378.047 151.884 377.414 151.884 377.414C151.884 377.414 145.006 371.262 153.03 343.716L169.846 342.163L169.843 342.159Z" fill="url(#paint4_linear_535_7811)"/>
<path d="M144.272 336.432V345.345C144.272 345.345 136.074 350.527 131.787 350.527L130.269 349.492C130.269 349.492 125.893 350.323 121.694 352.292C117.494 354.262 105.323 359.858 102.074 351.462L144.275 336.432H144.272Z" fill="url(#paint5_linear_535_7811)"/>
<path d="M142.521 326.643C142.521 326.643 146.464 338.796 142.521 343.048C138.72 347.149 130.864 348.323 127.043 348.767C123.221 349.211 111.495 357.464 105.092 354.05C98.8569 350.725 102.87 347.037 111.659 342.828C120.448 338.614 126.467 328.415 126.467 328.415L142.517 326.643H142.521Z" fill="url(#paint6_linear_535_7811)"/>
<path d="M120.738 145.498L123.024 239.944L124.554 329.516C128.384 331.323 131.657 331.821 134.345 331.655C140.221 331.307 143.277 327.758 143.277 327.758C146.337 311.79 145.191 253.576 145.191 253.576L146.221 221.136V220.97L146.721 205.365L156.698 156.141L120.738 145.494V145.498Z" fill="url(#paint7_linear_535_7811)"/>
<path d="M171.566 268.768L171.194 158.365L163.704 158.813L141.378 160.142L137.121 160.559C137.121 160.559 150.542 245.269 152.069 270.112C153.599 294.94 152.069 345.04 152.069 345.04C157.77 349.832 162.674 349.218 166.075 347.511C169.29 345.885 171.191 343.267 171.191 343.267C173.879 325.537 171.563 268.772 171.563 268.772L171.566 268.768Z" fill="url(#paint8_linear_535_7811)"/>
<path d="M166.065 62.584H130.855L124.367 169.191C124.367 169.191 131.44 182.564 144.508 183.858L157.368 144.17L166.065 62.584Z" fill="#97E2FF"/>
<path d="M138.797 76.5791L141.847 81.924L146.379 78.0273L144.505 67.832L138.797 76.5791Z" fill="#FF3131"/>
<path d="M141.271 80.0352C141.271 80.0352 130.593 110.71 130.657 142.3L133.759 150.499L137.693 143.706C137.693 143.706 135.84 113.035 142.831 80.0352H141.271Z" fill="#FF3131"/>
<path d="M145.562 70.4546L146.943 83.2296L162.092 68.3576L159.782 63.1094L145.562 70.4546Z" fill="url(#paint9_linear_535_7811)"/>
<path d="M144.504 67.832L138.329 80.0355L136.602 72.0299L144.504 67.832Z" fill="url(#paint10_linear_535_7811)"/>
<path d="M144.508 68.4069L145.565 81.9234L162.095 67.6191L162.853 52.3223L155.92 45.4404L144.508 68.4069Z" fill="#88E0FC"/>
<path d="M144.508 68.4071L137.176 78.9036L133.44 63.0237L132.16 54.4079L139.693 51.7432L144.508 68.4071Z" fill="#88E0FC"/>
<path d="M135.203 49.2451C134.807 50.8053 134.28 54.8371 133.752 59.8845C132.622 70.6553 131.473 86.0718 131.473 92.0268C131.473 100.778 128.709 122.126 128.16 134.372C128.066 136.477 127.907 139.365 127.712 142.714V142.725C126.758 158.837 124.912 185.464 124.912 185.464C119.179 183.715 113.523 171.817 113.523 171.817C113.523 171.817 122.538 148.375 122.635 121.423C121.252 65.434 135.2 49.249 135.2 49.249L135.203 49.2451Z" fill="url(#paint11_linear_535_7811)"/>
<path d="M133.754 55.1035V59.8845C132.624 70.6552 131.475 86.0718 131.475 92.0267C131.475 100.778 128.711 122.126 128.162 134.372C128.068 136.477 127.909 139.365 127.714 142.714V142.725L127.705 142.783C127.705 142.783 126.505 127.938 126.919 113.765C127.333 99.5921 126.919 86.4695 126.919 86.4695L130.542 83.8435L128.47 79.9082L133.751 55.1074L133.754 55.1035Z" fill="url(#paint12_linear_535_7811)"/>
<path d="M135.203 49.2451C134.993 50.0638 134.749 51.5815 134.487 53.5665C133.67 54.0493 132.704 54.7019 131.613 55.567C133.643 51.0563 135.2 49.2451 135.2 49.2451H135.203Z" fill="url(#paint13_linear_535_7811)"/>
<path d="M171.447 137.167C173.726 166.301 177.246 189.133 177.246 189.133C177.246 189.133 163.164 203.831 137.688 192.805C137.688 192.805 138.678 168.379 139.787 147.93C140.384 136.87 141.018 126.972 141.552 122.728C143.072 110.656 153.406 82.6418 158.294 72.2032C163.036 62.089 162.326 53.0021 162.207 51.859C162.198 51.7817 162.195 51.7393 162.195 51.7393C162.195 51.7393 162.21 51.7508 162.241 51.7817C162.25 51.7817 162.256 51.7933 162.265 51.801C163.35 52.7318 176.67 64.495 182.628 83.6228C182.628 92.8101 169.164 108.03 171.444 137.164L171.447 137.167Z" fill="url(#paint14_linear_535_7811)"/>
<path d="M156.05 92.675L152.186 93.7254L154.822 100.796L139.789 147.934C140.386 136.874 141.02 126.976 141.554 122.732C143.074 110.66 153.408 82.6458 158.296 72.2072C163.038 62.093 162.328 53.006 162.209 51.8629L162.243 51.7857L162.264 51.7432C162.264 51.7432 162.264 51.7625 162.267 51.805C162.34 52.867 163.233 67.7351 156.05 92.675Z" fill="url(#paint15_linear_535_7811)"/>
<path d="M157.02 43.9082C157.02 43.9082 157.986 51.1685 158.815 53.6208C159.644 56.0692 155.847 67.7938 147.768 69.2806C145.422 69.2806 142.039 70.0684 141.555 63.1557L157.017 43.9082H157.02Z" fill="#E8B185"/>
<path d="M126.918 31.1365C126.918 31.1365 127.741 44.4059 128.576 49.3336C129.405 54.2343 133.132 64.9046 138.794 66.3065C143.81 67.5461 146.802 64.2944 149.493 60.3592C152.117 56.5244 155.223 48.6346 155.363 46.36C155.363 46.36 157.572 47.059 159.781 43.9116C161.991 40.7603 163.094 36.7362 160.885 34.813C158.675 32.8898 143.35 10.8425 126.918 31.1404V31.1365Z" fill="#FCC088"/>
<path d="M126.919 17.4272C126.919 17.4272 141.072 -10.9922 157.985 4.7526C157.985 4.7526 165.558 8.38275 165.509 17.4388C165.463 25.989 164.61 28.7232 157.293 38.5748L155.428 43.3828H153.292L154.038 37.4046C154.038 37.4046 155.257 31.4805 147.352 32.531C139.447 33.5814 126.605 32.137 126.605 32.137L124.914 26.3636C124.914 26.3636 124.914 21.1809 126.919 17.4272Z" fill="url(#paint16_linear_535_7811)"/>
<path d="M154.466 27.3332C154.466 27.3332 152.793 32.9483 151.69 33.5431C151.687 33.5431 151.681 33.5469 151.678 33.5469C151.47 33.6087 151.251 33.713 151.016 33.852C148.182 35.5126 129.751 47.5848 125.195 29.6542C124.848 27.9047 124.811 25.8734 125.174 23.6953C125.308 23.985 129.407 29.8279 136.45 24.6415C136.45 24.6415 136.139 28.3797 134.688 29.4302C134.688 29.4302 141.213 30.8089 144.507 25.1667C144.507 25.1667 144.507 27.4645 143.181 30.6119C143.181 30.6119 151.464 30.7432 154.469 27.3293L154.466 27.3332Z" fill="url(#paint17_linear_535_7811)"/>
<path d="M182.632 83.6274C182.632 83.6274 190.275 117.616 195.349 141.065L216.325 188.952C216.325 188.952 205.387 192.381 203.751 197.097L178.433 146.217L165.387 100.631C165.387 100.631 166.063 80.032 182.632 83.6236V83.6274Z" fill="url(#paint18_linear_535_7811)"/>
<path d="M149.327 39.3618C149.327 39.3618 159.262 35.6853 165.217 23.0879C165.217 23.0879 164.702 28.1971 162.337 31.5299C162.337 31.5299 156.678 40.7598 151.479 43.911L149.324 39.3618H149.327Z" fill="#00EDFF"/>
<path d="M151.648 47.1551L150.825 45.7146L148.802 42.1656C145.754 46.0158 142.32 46.2476 142.32 46.2476C134.427 49.1555 126.434 44.3012 123.795 42.4436C123.557 42.2737 123.362 42.1308 123.212 42.0227C122.999 41.8605 122.886 41.7717 122.886 41.7717C122.801 41.4318 122.801 41.0765 122.871 40.7251C122.908 40.5397 122.96 40.3582 123.03 40.1729C123.209 39.6901 123.496 39.2113 123.837 38.7517C125.132 37.0061 127.208 35.585 127.208 35.585C127.055 36.8323 127.336 37.7553 127.634 38.3501C127.89 38.856 128.649 39.6592 129.094 39.8755C131.367 40.9723 137.063 42.1965 141.275 41.8682C146.266 41.4782 148.439 36.674 150.069 38.7903C150.853 39.806 151.249 41.7717 151.447 43.5443C151.523 44.2278 151.572 44.8843 151.602 45.4443C151.657 46.46 151.651 47.159 151.651 47.159L151.648 47.1551Z" fill="url(#paint19_linear_535_7811)"/>
<path d="M151.599 45.4406L150.825 45.7148L133.753 51.7432L123.474 43.0154L123.212 42.0229L122.871 40.7253C122.908 40.5361 122.959 40.3546 123.03 40.1692C123.209 39.6865 123.496 39.2076 123.837 38.748C123.791 38.8176 122.371 41.127 125.468 42.6949C128.612 44.2898 134.503 47.2673 142.448 45.2514C142.448 45.2514 143.74 45.1047 146.221 43.3746C148.704 41.6444 149.198 40.1576 150.456 41.3625C151.011 41.8955 151.298 42.7451 151.447 43.5329C151.636 44.5331 151.602 45.4329 151.602 45.4329L151.599 45.4406Z" fill="#00EDFF"/>
<path d="M151.55 45.0117C150.962 39.9411 148.329 42.1501 146.873 43.8841C145.416 45.6142 142.225 46.4097 140.001 46.6839C132.528 47.6146 126.104 43.9458 123.797 42.4127C123.572 42.2505 122.813 41.5901 123.029 40.1689C122.828 40.7057 122.755 41.2503 122.886 41.7678L125.617 52.5308C125.617 52.5308 126.833 55.6627 129.112 56.9951C129.325 57.1032 129.542 57.2075 129.761 57.3117C129.761 57.3117 129.767 57.3117 129.77 57.3156C129.865 57.3581 129.959 57.4006 130.054 57.443C132.845 58.6788 136.185 59.4126 138.142 59.8258C141.201 60.4746 144.511 59.7602 147.29 58.1227C150.066 56.4853 152.135 50.0785 151.544 45.0079L151.55 45.0117Z" fill="url(#paint20_linear_535_7811)"/>
<path d="M135.017 136.924C133.963 134.847 131.775 134.248 130.135 135.584C128.495 136.92 128.023 139.689 129.078 141.771C130.132 143.849 132.32 144.447 133.96 143.111C135.599 141.775 136.071 139.002 135.017 136.924Z" fill="#5AFFFA"/>
<path d="M219.806 121.37C218.752 119.292 216.567 118.693 214.924 120.029C213.285 121.366 212.812 124.139 213.867 126.216C214.921 128.294 217.109 128.892 218.749 127.556C220.388 126.22 220.86 123.447 219.806 121.37Z" fill="#5AFFFA"/>
<path d="M137.432 256.025C136.377 253.947 134.192 253.349 132.55 254.685C130.907 256.021 130.438 258.79 131.492 260.871C132.547 262.949 134.735 263.548 136.374 262.212C138.014 260.875 138.486 258.106 137.432 256.025Z" fill="#5AFFFA"/>
<path d="M122.548 53.4545C121.494 51.3768 119.306 50.7783 117.666 52.1145C116.027 53.4507 115.554 56.2196 116.609 58.3012C117.663 60.3788 119.851 60.9774 121.491 59.6412C123.13 58.305 123.603 55.5361 122.548 53.4545Z" fill="#5AFFFA"/>
<path d="M227.752 291.87C226.899 290.19 225.134 289.707 223.808 290.789C222.483 291.87 222.102 294.106 222.955 295.786C223.808 297.466 225.573 297.949 226.899 296.867C228.224 295.786 228.605 293.55 227.752 291.87Z" fill="#5AFFFA"/>
<path d="M48.9823 54.3076C48.129 52.6277 46.3646 52.1449 45.039 53.2263C43.7133 54.3076 43.3324 56.5436 44.1857 58.2235C45.0389 59.9034 46.8034 60.3861 48.1291 59.3048C49.4547 58.2235 49.8356 55.9875 48.9823 54.3076Z" fill="#5AFFFA"/>
<path d="M50.5292 127.668C49.6759 125.988 47.9114 125.505 46.5858 126.587C45.2602 127.668 44.8793 129.904 45.7325 131.584C46.5858 133.264 48.3503 133.746 49.6759 132.665C51.0015 131.584 51.3825 129.348 50.5292 127.668Z" fill="#5AFFFA"/>
<path d="M76.2381 274.858C75.266 272.943 73.2517 272.39 71.7432 273.622C70.2316 274.854 69.7959 277.407 70.768 279.319C71.7401 281.234 73.7545 281.786 75.263 280.554C76.7745 279.322 77.2103 276.77 76.2381 274.858Z" fill="#5AFFFA"/>
<path d="M116.746 285.556C115.774 283.641 113.759 283.089 112.251 284.321C110.739 285.552 110.304 288.105 111.276 290.017C112.248 291.932 114.262 292.484 115.771 291.253C117.282 290.021 117.718 287.468 116.746 285.556Z" fill="#5AFFFA"/>
<path d="M49.3163 318.614C48.3442 316.698 46.3298 316.146 44.8213 317.378C43.3098 318.61 42.874 321.163 43.8461 323.074C44.8183 324.99 46.8326 325.542 48.3411 324.31C49.8526 323.078 50.2884 320.526 49.3163 318.614Z" fill="#5AFFFA"/>
<path d="M91.1891 116.256C90.4424 114.784 88.8943 114.36 87.7333 115.306C86.5722 116.252 86.237 118.214 86.9836 119.685C87.7302 121.156 89.2783 121.581 90.4394 120.635C91.6005 119.689 91.9357 117.727 91.1891 116.256Z" fill="#5AFFFA"/>
<path d="M54.3932 173.612C53.6222 172.099 52.0284 171.658 50.8338 172.635C49.6393 173.612 49.2918 175.632 50.0628 177.146C50.8338 178.66 52.4277 179.1 53.6223 178.123C54.8169 177.146 55.1642 175.126 54.3932 173.612Z" fill="#5AFFFA"/>
<path d="M197.44 61.468C196.669 59.9541 195.075 59.5139 193.881 60.4909C192.686 61.468 192.339 63.4877 193.11 65.0016C193.881 66.5154 195.475 66.9557 196.669 65.9786C197.864 65.0016 198.211 62.9818 197.44 61.468Z" fill="#5AFFFA"/>
<path d="M199.128 119.376C198.357 117.862 196.763 117.422 195.568 118.399C194.374 119.376 194.026 121.396 194.797 122.91C195.568 124.424 197.162 124.864 198.357 123.887C199.551 122.91 199.899 120.89 199.128 119.376Z" fill="#5AFFFA"/>
<path d="M183.635 215.676C182.916 214.259 181.426 213.849 180.304 214.761C179.186 215.672 178.863 217.561 179.582 218.982C180.301 220.399 181.792 220.808 182.913 219.897C184.032 218.986 184.355 217.097 183.635 215.676Z" fill="#5AFFFA"/>
<path d="M235.4 235.626C234.937 234.714 233.98 234.452 233.261 235.039C232.542 235.626 232.335 236.838 232.798 237.75C233.261 238.661 234.218 238.924 234.937 238.337C235.656 237.75 235.864 236.537 235.4 235.626Z" fill="#5AFFFA"/>
<path d="M118.564 195.721C118.101 194.81 117.144 194.547 116.425 195.134C115.706 195.721 115.499 196.934 115.962 197.845C116.425 198.757 117.382 199.019 118.101 198.432C118.82 197.845 119.028 196.633 118.564 195.721Z" fill="#5AFFFA"/>
<path d="M155.627 185.156C155.164 184.244 154.207 183.982 153.488 184.569C152.768 185.156 152.561 186.368 153.024 187.28C153.488 188.191 154.444 188.454 155.164 187.867C155.883 187.28 156.09 186.067 155.627 185.156Z" fill="#5AFFFA"/>
<path d="M103.678 155.593C103.214 154.682 102.258 154.419 101.538 155.006C100.819 155.593 100.612 156.806 101.075 157.717C101.538 158.629 102.495 158.891 103.214 158.304C103.934 157.717 104.141 156.505 103.678 155.593Z" fill="#5AFFFA"/>
<path d="M166.795 223.481C166.332 222.57 165.375 222.307 164.656 222.894C163.936 223.481 163.729 224.694 164.192 225.605C164.656 226.516 165.612 226.779 166.332 226.192C167.051 225.605 167.258 224.392 166.795 223.481Z" fill="#5AFFFA"/>
<path d="M67.5175 143.86C67.0543 142.949 66.0974 142.686 65.3782 143.273C64.659 143.86 64.4518 145.073 64.915 145.984C65.3782 146.895 66.3351 147.158 67.0543 146.571C67.7735 145.984 67.9807 144.771 67.5175 143.86Z" fill="#5AFFFA"/>
<path d="M164.146 252.41C163.683 251.498 162.726 251.236 162.007 251.823C161.288 252.41 161.081 253.622 161.544 254.534C162.007 255.445 162.964 255.708 163.683 255.121C164.402 254.534 164.61 253.321 164.146 252.41Z" fill="#5AFFFA"/>
<path d="M180.502 81.4488C180.039 80.5374 179.082 80.2748 178.363 80.8618C177.643 81.4488 177.436 82.6615 177.899 83.5729C178.363 84.4843 179.319 84.7469 180.039 84.1599C180.758 83.5729 180.965 82.3602 180.502 81.4488Z" fill="#5AFFFA"/>
<path d="M215.705 76.8033C215.242 75.8919 214.285 75.6293 213.566 76.2163C212.846 76.8033 212.639 78.016 213.102 78.9274C213.566 79.8388 214.523 80.1014 215.242 79.5144C215.961 78.9274 216.168 77.7147 215.705 76.8033Z" fill="#5AFFFA"/>
<path d="M47.8846 93.232C47.4214 92.3206 46.4645 92.058 45.7453 92.645C45.0261 93.232 44.819 94.4447 45.2822 95.3561C45.7454 96.2675 46.7022 96.5301 47.4214 95.9431C48.1406 95.3561 48.3479 94.1434 47.8846 93.232Z" fill="#5AFFFA"/>
<path d="M54.2597 255.012C53.7965 254.101 52.8396 253.838 52.1204 254.425C51.4012 255.012 51.1939 256.225 51.6572 257.136C52.1204 258.048 53.0773 258.31 53.7965 257.723C54.5157 257.136 54.7229 255.924 54.2597 255.012Z" fill="#5AFFFA"/>
<path d="M67.5175 83.4107C67.0543 82.4993 66.0974 82.2367 65.3782 82.8237C64.659 83.4108 64.4518 84.6234 64.915 85.5348C65.3782 86.4462 66.3351 86.7088 67.0543 86.1218C67.7735 85.5348 67.9807 84.3221 67.5175 83.4107Z" fill="#5AFFFA"/>
<path d="M198.267 248.108C197.804 247.197 196.847 246.934 196.128 247.521C195.409 248.108 195.202 249.321 195.665 250.232C196.128 251.143 197.085 251.406 197.804 250.819C198.523 250.232 198.731 249.019 198.267 248.108Z" fill="#5AFFFA"/>
<path d="M173.592 109.254C173.128 108.343 172.172 108.08 171.452 108.667C170.733 109.255 170.526 110.467 170.989 111.379C171.452 112.29 172.409 112.553 173.128 111.966C173.848 111.379 174.055 110.166 173.592 109.254Z" fill="#5AFFFA"/>
<path d="M198.267 300.286C197.804 299.374 196.847 299.112 196.128 299.699C195.409 300.286 195.202 301.498 195.665 302.41C196.128 303.321 197.085 303.584 197.804 302.997C198.523 302.41 198.731 301.197 198.267 300.286Z" fill="#5AFFFA"/>
<path d="M107.67 80.8463C107.207 79.9349 106.25 79.6723 105.531 80.2593C104.811 80.8463 104.604 82.0589 105.067 82.9703C105.531 83.8817 106.487 84.1443 107.207 83.5573C107.926 82.9703 108.133 81.7577 107.67 80.8463Z" fill="#5AFFFA"/>
<path d="M172.041 151.719C171.578 150.808 170.621 150.545 169.902 151.132C169.182 151.719 168.975 152.932 169.438 153.843C169.902 154.755 170.859 155.017 171.578 154.43C172.297 153.843 172.504 152.631 172.041 151.719Z" fill="#5AFFFA"/>
<path d="M79.1347 205.454C78.6715 204.542 77.7146 204.28 76.9954 204.867C76.2762 205.454 76.0689 206.666 76.5322 207.578C76.9954 208.489 77.9523 208.752 78.6715 208.165C79.3907 207.578 79.5979 206.365 79.1347 205.454Z" fill="#5AFFFA"/>
<path d="M212.174 195.93C211.71 195.019 210.754 194.756 210.034 195.343C209.315 195.93 209.108 197.143 209.571 198.054C210.034 198.966 210.991 199.228 211.711 198.641C212.43 198.054 212.637 196.842 212.174 195.93Z" fill="#5AFFFA"/>
<path d="M139.811 508.327C146.681 508.327 152.25 503.899 152.25 498.437C152.25 492.975 146.681 488.547 139.811 488.547C132.94 488.547 127.371 492.975 127.371 498.437C127.371 503.899 132.94 508.327 139.811 508.327Z" fill="#55C8FF"/>
<path d="M139.81 504.604C144.095 504.604 147.568 501.843 147.568 498.437C147.568 495.031 144.095 492.27 139.81 492.27C135.524 492.27 132.051 495.031 132.051 498.437C132.051 501.843 135.524 504.604 139.81 504.604Z" fill="white"/>
<path d="M77.1894 484.874C75.0958 489.647 68.5286 490.087 62.5252 485.855C56.5217 481.622 53.3524 474.323 55.446 469.55C57.5396 464.777 64.1068 464.336 70.1102 468.569C76.1137 472.801 79.283 480.1 77.1894 484.874Z" fill="#55C8FF"/>
<path d="M73.1 481.992C71.7927 484.97 67.6969 485.244 63.9516 482.602C60.2063 479.965 58.2285 475.408 59.5359 472.43C60.8432 469.453 64.939 469.178 68.6843 471.82C72.4296 474.458 74.4074 479.015 73.1 481.992Z" fill="white"/>
<path d="M29.2348 437.714C25.4042 438.973 21.0159 433.725 19.4312 425.989C17.8465 418.254 19.6689 410.963 23.4965 409.704C27.3271 408.445 31.7154 413.693 33.3001 421.429C34.8847 429.164 33.0624 436.455 29.2348 437.714Z" fill="#55C8FF"/>
<path d="M28.1532 432.446C25.764 433.23 23.0275 429.955 22.0401 425.132C21.0527 420.308 22.1864 415.759 24.5755 414.971C26.9647 414.187 29.7014 417.462 30.6887 422.286C31.6761 427.109 30.5424 431.658 28.1532 432.446Z" fill="white"/>
<path d="M202.653 484.874C204.747 489.647 211.314 490.087 217.317 485.855C223.321 481.622 226.49 474.323 224.396 469.55C222.303 464.777 215.736 464.336 209.732 468.569C203.729 472.801 200.559 480.1 202.653 484.874Z" fill="#55C8FF"/>
<path d="M206.743 481.992C208.05 484.97 212.146 485.244 215.891 482.602C219.637 479.965 221.614 475.408 220.307 472.43C219 469.453 214.904 469.178 211.159 471.82C207.413 474.458 205.436 479.015 206.743 481.992Z" fill="white"/>
<path d="M248.325 437.714C252.156 438.973 256.544 433.725 258.129 425.989C259.713 418.254 257.894 410.963 254.063 409.704C250.233 408.445 245.844 413.693 244.26 421.429C242.675 429.164 244.494 436.455 248.325 437.714Z" fill="#55C8FF"/>
<path d="M249.404 432.446C251.793 433.23 254.53 429.955 255.517 425.132C256.504 420.308 255.371 415.759 252.981 414.971C250.592 414.187 247.856 417.462 246.868 422.286C245.881 427.109 247.015 431.658 249.404 432.446Z" fill="white"/>
<path d="M243.305 370.864C244.7 369.373 244.31 365.878 242.433 363.059C240.556 360.24 237.904 359.166 236.509 360.657C235.113 362.148 235.503 365.643 237.38 368.462C239.258 371.281 241.909 372.354 243.305 370.864Z" fill="#55C8FF"/>
<path d="M242.024 368.944C242.896 368.014 242.652 365.836 241.482 364.075C240.312 362.317 238.657 361.646 237.788 362.576C236.917 363.507 237.16 365.685 238.331 367.446C239.501 369.203 241.156 369.875 242.024 368.944Z" fill="white"/>
<path d="M33.958 370.857C32.5623 369.366 32.9523 365.871 34.8296 363.052C36.7068 360.233 39.358 359.159 40.7538 360.65C42.1495 362.141 41.7594 365.636 39.8822 368.455C38.005 371.274 35.3537 372.348 33.958 370.857Z" fill="#55C8FF"/>
<path d="M35.2375 368.938C34.3659 368.007 34.6097 365.829 35.78 364.068C36.9502 362.311 38.6049 361.639 39.4734 362.569C40.345 363.5 40.1012 365.678 38.931 367.439C37.7608 369.196 36.106 369.868 35.2375 368.938Z" fill="white"/>
<defs>
<linearGradient id="paint0_linear_535_7811" x1="67.8056" y1="128.827" x2="63.626" y2="130.93" gradientUnits="userSpaceOnUse">
<stop stop-color="#01064A"/>
<stop offset="0.17" stop-color="#162864"/>
<stop offset="0.54" stop-color="#4D7FA7"/>
<stop offset="1" stop-color="#94F1FF"/>
</linearGradient>
<linearGradient id="paint1_linear_535_7811" x1="208.587" y1="190.46" x2="212.022" y2="194.226" gradientUnits="userSpaceOnUse">
<stop stop-color="#01064A"/>
<stop offset="0.17" stop-color="#162864"/>
<stop offset="0.54" stop-color="#4D7FA7"/>
<stop offset="1" stop-color="#94F1FF"/>
</linearGradient>
<linearGradient id="paint2_linear_535_7811" x1="123.823" y1="-0.201392" x2="70.6409" y2="137.426" gradientUnits="userSpaceOnUse">
<stop stop-color="#01064A"/>
<stop offset="0.45" stop-color="#01074B"/>
<stop offset="0.61" stop-color="#040E52"/>
<stop offset="0.72" stop-color="#091A5D"/>
<stop offset="0.81" stop-color="#112B6C"/>
<stop offset="0.89" stop-color="#1A4181"/>
<stop offset="0.96" stop-color="#265B9A"/>
<stop offset="1" stop-color="#2E6EAB"/>
</linearGradient>
<linearGradient id="paint3_linear_535_7811" x1="148.898" y1="366.898" x2="169.816" y2="366.898" gradientUnits="userSpaceOnUse">
<stop stop-color="#01064A"/>
<stop offset="0.39" stop-color="#01074B"/>
<stop offset="0.54" stop-color="#040E52"/>
<stop offset="0.64" stop-color="#091A5D"/>
<stop offset="0.72" stop-color="#112B6C"/>
<stop offset="0.79" stop-color="#1A4181"/>
<stop offset="0.85" stop-color="#265C9A"/>
<stop offset="0.91" stop-color="#347DB9"/>
<stop offset="0.96" stop-color="#44A1DA"/>
<stop offset="1" stop-color="#55C8FF"/>
</linearGradient>
<linearGradient id="paint4_linear_535_7811" x1="162.13" y1="345.206" x2="151.647" y2="378.624" gradientUnits="userSpaceOnUse">
<stop stop-color="#01064A"/>
<stop offset="0.17" stop-color="#02094D"/>
<stop offset="0.32" stop-color="#061356"/>
<stop offset="0.45" stop-color="#0E2567"/>
<stop offset="0.58" stop-color="#193D7E"/>
<stop offset="0.71" stop-color="#265D9B"/>
<stop offset="0.83" stop-color="#3784C0"/>
<stop offset="0.95" stop-color="#4BB2EA"/>
<stop offset="1" stop-color="#55C8FF"/>
</linearGradient>
<linearGradient id="paint5_linear_535_7811" x1="102.071" y1="346.187" x2="144.272" y2="346.187" gradientUnits="userSpaceOnUse">
<stop stop-color="#01064A"/>
<stop offset="0.39" stop-color="#01074B"/>
<stop offset="0.54" stop-color="#040E52"/>
<stop offset="0.64" stop-color="#091A5D"/>
<stop offset="0.72" stop-color="#112B6C"/>
<stop offset="0.79" stop-color="#1A4181"/>
<stop offset="0.85" stop-color="#265C9A"/>
<stop offset="0.91" stop-color="#347DB9"/>
<stop offset="0.96" stop-color="#44A1DA"/>
<stop offset="1" stop-color="#55C8FF"/>
</linearGradient>
<linearGradient id="paint6_linear_535_7811" x1="102.072" y1="340.758" x2="144.273" y2="340.758" gradientUnits="userSpaceOnUse">
<stop stop-color="#55C8FF"/>
<stop offset="0.05" stop-color="#4BB2EA"/>
<stop offset="0.17" stop-color="#3784C0"/>
<stop offset="0.29" stop-color="#265D9B"/>
<stop offset="0.42" stop-color="#193D7E"/>
<stop offset="0.55" stop-color="#0E2567"/>
<stop offset="0.68" stop-color="#061356"/>
<stop offset="0.83" stop-color="#02094D"/>
<stop offset="1" stop-color="#01064A"/>
</linearGradient>
<linearGradient id="paint7_linear_535_7811" x1="120.738" y1="238.592" x2="156.698" y2="238.592" gradientUnits="userSpaceOnUse">
<stop stop-color="#55C8FF"/>
<stop offset="0.03" stop-color="#4DB6EE"/>
<stop offset="0.1" stop-color="#3B8DC8"/>
<stop offset="0.18" stop-color="#2B68A5"/>
<stop offset="0.26" stop-color="#1E4989"/>
<stop offset="0.35" stop-color="#133072"/>
<stop offset="0.45" stop-color="#0B1D60"/>
<stop offset="0.57" stop-color="#051053"/>
<stop offset="0.72" stop-color="#02084C"/>
<stop offset="1" stop-color="#01064A"/>
</linearGradient>
<linearGradient id="paint8_linear_535_7811" x1="137.121" y1="253.564" x2="172.493" y2="253.564" gradientUnits="userSpaceOnUse">
<stop stop-color="#55C8FF"/>
<stop offset="0.03" stop-color="#4DB6EE"/>
<stop offset="0.1" stop-color="#3B8DC8"/>
<stop offset="0.18" stop-color="#2B68A5"/>
<stop offset="0.26" stop-color="#1E4989"/>
<stop offset="0.35" stop-color="#133072"/>
<stop offset="0.45" stop-color="#0B1D60"/>
<stop offset="0.57" stop-color="#051053"/>
<stop offset="0.72" stop-color="#02084C"/>
<stop offset="1" stop-color="#01064A"/>
</linearGradient>
<linearGradient id="paint9_linear_535_7811" x1="145.563" y1="73.1695" x2="162.092" y2="73.1695" gradientUnits="userSpaceOnUse">
<stop stop-color="#55C8FF"/>
<stop offset="0.09" stop-color="#48AAE3"/>
<stop offset="0.25" stop-color="#3278B4"/>
<stop offset="0.42" stop-color="#204F8E"/>
<stop offset="0.58" stop-color="#122F70"/>
<stop offset="0.73" stop-color="#09185B"/>
<stop offset="0.87" stop-color="#030A4E"/>
<stop offset="1" stop-color="#01064A"/>
</linearGradient>
<linearGradient id="paint10_linear_535_7811" x1="136.605" y1="73.9338" x2="144.507" y2="73.9338" gradientUnits="userSpaceOnUse">
<stop stop-color="#55C8FF"/>
<stop offset="0.09" stop-color="#48AAE3"/>
<stop offset="0.25" stop-color="#3278B4"/>
<stop offset="0.42" stop-color="#204F8E"/>
<stop offset="0.58" stop-color="#122F70"/>
<stop offset="0.73" stop-color="#09185B"/>
<stop offset="0.87" stop-color="#030A4E"/>
<stop offset="1" stop-color="#01064A"/>
</linearGradient>
<linearGradient id="paint11_linear_535_7811" x1="113.658" y1="115.507" x2="135.313" y2="117.024" gradientUnits="userSpaceOnUse">
<stop stop-color="#01064A"/>
<stop offset="0.2" stop-color="#02084C"/>
<stop offset="0.35" stop-color="#061255"/>
<stop offset="0.48" stop-color="#0D2264"/>
<stop offset="0.6" stop-color="#163879"/>
<stop offset="0.71" stop-color="#235594"/>
<stop offset="0.82" stop-color="#3278B5"/>
<stop offset="0.92" stop-color="#44A2DB"/>
<stop offset="1" stop-color="#55C8FF"/>
</linearGradient>
<linearGradient id="paint12_linear_535_7811" x1="125.968" y1="98.3216" x2="132.883" y2="98.8817" gradientUnits="userSpaceOnUse">
<stop stop-color="#01064A"/>
<stop offset="0.25" stop-color="#02084C"/>
<stop offset="0.4" stop-color="#051054"/>
<stop offset="0.52" stop-color="#0B1F61"/>
<stop offset="0.63" stop-color="#143374"/>
<stop offset="0.73" stop-color="#1F4D8C"/>
<stop offset="0.82" stop-color="#2D6DAA"/>
<stop offset="0.91" stop-color="#3E94CE"/>
<stop offset="0.99" stop-color="#51BFF6"/>
<stop offset="1" stop-color="#55C8FF"/>
</linearGradient>
<linearGradient id="paint13_linear_535_7811" x1="130.94" y1="52.1299" x2="136.142" y2="52.4941" gradientUnits="userSpaceOnUse">
<stop stop-color="#01064A"/>
<stop offset="0.2" stop-color="#02084C"/>
<stop offset="0.35" stop-color="#061255"/>
<stop offset="0.48" stop-color="#0D2264"/>
<stop offset="0.6" stop-color="#163879"/>
<stop offset="0.71" stop-color="#235594"/>
<stop offset="0.82" stop-color="#3278B5"/>
<stop offset="0.92" stop-color="#44A2DB"/>
<stop offset="1" stop-color="#55C8FF"/>
</linearGradient>
<linearGradient id="paint14_linear_535_7811" x1="137.688" y1="124.327" x2="182.631" y2="124.327" gradientUnits="userSpaceOnUse">
<stop stop-color="#55C8FF"/>
<stop offset="0.01" stop-color="#51BFF6"/>
<stop offset="0.09" stop-color="#3E94CE"/>
<stop offset="0.18" stop-color="#2D6DAA"/>
<stop offset="0.27" stop-color="#1F4D8C"/>
<stop offset="0.37" stop-color="#143374"/>
<stop offset="0.48" stop-color="#0B1F61"/>
<stop offset="0.6" stop-color="#051054"/>
<stop offset="0.75" stop-color="#02084C"/>
<stop offset="1" stop-color="#01064A"/>
</linearGradient>
<linearGradient id="paint15_linear_535_7811" x1="145.409" y1="97.0466" x2="157.872" y2="100.906" gradientUnits="userSpaceOnUse">
<stop stop-color="#55C8FF"/>
<stop offset="0.01" stop-color="#51BFF6"/>
<stop offset="0.09" stop-color="#3E94CE"/>
<stop offset="0.18" stop-color="#2D6DAA"/>
<stop offset="0.27" stop-color="#1F4D8C"/>
<stop offset="0.37" stop-color="#143374"/>
<stop offset="0.48" stop-color="#0B1F61"/>
<stop offset="0.6" stop-color="#051054"/>
<stop offset="0.75" stop-color="#02084C"/>
<stop offset="1" stop-color="#01064A"/>
</linearGradient>
<linearGradient id="paint16_linear_535_7811" x1="163.257" y1="4.11925" x2="122.365" y2="33.2408" gradientUnits="userSpaceOnUse">
<stop stop-color="#01064A"/>
<stop offset="0.21" stop-color="#02084C"/>
<stop offset="0.36" stop-color="#061155"/>
<stop offset="0.49" stop-color="#0C2163"/>
<stop offset="0.6" stop-color="#163778"/>
<stop offset="0.71" stop-color="#225392"/>
<stop offset="0.82" stop-color="#3176B2"/>
<stop offset="0.92" stop-color="#439ED8"/>
<stop offset="1" stop-color="#55C8FF"/>
</linearGradient>
<linearGradient id="paint17_linear_535_7811" x1="133.402" y1="43.1861" x2="144.313" y2="24.5956" gradientUnits="userSpaceOnUse">
<stop stop-color="#01064A"/>
<stop offset="0.11" stop-color="#030C50"/>
<stop offset="0.26" stop-color="#0B1E60"/>
<stop offset="0.44" stop-color="#183C7C"/>
<stop offset="0.63" stop-color="#2A65A3"/>
<stop offset="0.84" stop-color="#419AD4"/>
<stop offset="1" stop-color="#55C8FF"/>
</linearGradient>
<linearGradient id="paint18_linear_535_7811" x1="204.028" y1="54.7716" x2="172.357" y2="188.98" gradientUnits="userSpaceOnUse">
<stop stop-color="#01064A"/>
<stop offset="0.45" stop-color="#01074B"/>
<stop offset="0.61" stop-color="#040E52"/>
<stop offset="0.72" stop-color="#091A5D"/>
<stop offset="0.81" stop-color="#112B6C"/>
<stop offset="0.89" stop-color="#1A4181"/>
<stop offset="0.96" stop-color="#265B9A"/>
<stop offset="1" stop-color="#2E6EAB"/>
</linearGradient>
<linearGradient id="paint19_linear_535_7811" x1="138.099" y1="36.4655" x2="135.996" y2="48.0528" gradientUnits="userSpaceOnUse">
<stop stop-color="#55C8FF"/>
<stop offset="0.16" stop-color="#419AD4"/>
<stop offset="0.37" stop-color="#2A65A3"/>
<stop offset="0.56" stop-color="#183C7C"/>
<stop offset="0.74" stop-color="#0B1E60"/>
<stop offset="0.89" stop-color="#030C50"/>
<stop offset="1" stop-color="#01064A"/>
</linearGradient>
<linearGradient id="paint20_linear_535_7811" x1="122.819" y1="50.121" x2="151.651" y2="50.121" gradientUnits="userSpaceOnUse">
<stop stop-color="#55C8FF"/>
<stop offset="0.34" stop-color="#3989C4"/>
<stop offset="1" stop-color="#01064A"/>
</linearGradient>
</defs>
</svg>
