<svg width="278" height="538" viewBox="0 0 278 538" fill="none" xmlns="http://www.w3.org/2000/svg">
<g style="mix-blend-mode:screen">
<path d="M138.8 537.16C101.82 537.16 67.0326 526.477 40.8535 507.082C14.5092 487.565 0 461.549 0 433.824C0 406.1 14.5092 380.084 40.8535 360.566C67.0326 341.172 101.816 330.489 138.8 330.489C175.784 330.489 210.567 341.172 236.746 360.566C263.091 380.084 277.6 406.104 277.6 433.824C277.6 461.545 263.091 487.565 236.746 507.082C210.567 526.477 175.784 537.16 138.8 537.16ZM138.8 333.177C63.522 333.177 2.2794 378.325 2.2794 433.82C2.2794 489.316 63.522 534.464 138.8 534.464C214.078 534.464 275.321 489.316 275.321 433.82C275.321 378.325 214.078 333.177 138.8 333.177Z" fill="#6CEEFF"/>
</g>
<path d="M138.799 511.924C206.045 511.924 260.559 471.535 260.559 421.713C260.559 371.892 206.045 331.503 138.799 331.503C71.5529 331.503 17.0391 371.892 17.0391 421.713C17.0391 471.535 71.5529 511.924 138.799 511.924Z" fill="#00203D"/>
<path d="M138.798 490.105C197.807 490.105 245.643 454.664 245.643 410.946C245.643 367.228 197.807 331.787 138.798 331.787C79.7893 331.787 31.9531 367.228 31.9531 410.946C31.9531 454.664 79.7893 490.105 138.798 490.105Z" fill="#00E1FF"/>
<path d="M203.324 366.926C190.366 350.533 166.344 339.523 138.851 339.523C111.358 339.523 87.3364 350.533 74.3778 366.926H64.1797V394.845C64.1797 425.397 97.6099 450.167 138.851 450.167C180.092 450.167 213.522 425.397 213.522 394.845V366.926H203.324Z" fill="#00203D"/>
<path d="M138.851 422.247C180.091 422.247 213.522 397.479 213.522 366.925C213.522 336.372 180.091 311.604 138.851 311.604C97.6112 311.604 64.1797 336.372 64.1797 366.925C64.1797 397.479 97.6112 422.247 138.851 422.247Z" fill="#00E1FF"/>
<path d="M139.244 399.805C165.475 399.805 186.739 384.052 186.739 364.619C186.739 345.187 165.475 329.434 139.244 329.434C113.014 329.434 91.75 345.187 91.75 364.619C91.75 384.052 113.014 399.805 139.244 399.805Z" fill="#9FE4FF"/>
<path d="M124.834 347.243L125.082 354.179C125.082 354.179 122.207 359.393 117.756 362.403L117.784 360.673C117.784 360.673 109.733 375.091 101.258 375.031C94.4409 374.985 89.9036 374.9 90.1333 365.379C90.3667 355.857 124.834 347.243 124.834 347.243Z" fill="url(#paint0_linear_535_8800)"/>
<path d="M103.53 345.348C103.53 345.348 93.1914 357.918 90.9945 362.11C88.7941 366.303 89.9177 377.846 104.524 372.916C111.179 369.783 113.857 363.352 115.591 360.453C116.811 358.414 122.267 352.072 125.408 348.481C126.736 346.959 127.648 345.933 127.648 345.933C127.648 345.933 122.666 337.065 103.53 345.357V345.348Z" fill="url(#paint1_linear_535_8800)"/>
<path d="M191.347 200.168C191.347 200.168 196.541 232.11 169.741 246.621C140.234 262.595 140.579 265.965 140.579 265.965C140.579 265.965 137.125 291.29 134.232 311.774C131.339 332.258 128.517 346.786 128.517 346.786C128.517 346.786 114.701 354.077 102.32 346.158C102.32 346.158 109.395 321.384 111.183 308.497C112.971 295.605 114.446 266.541 114.446 266.541C114.446 266.541 113.384 241.992 131.31 229.499C149.481 216.837 151.168 200.91 151.168 200.91L191.347 200.168Z" fill="url(#paint2_linear_535_8800)"/>
<path d="M99.9873 330.826C99.9873 330.826 101.104 337.108 99.6104 338.532C98.1207 339.961 91.505 341.271 88.7841 341.466C87.7969 338.931 88.1703 338.507 88.1703 338.507C88.1703 338.507 84.2647 339.652 80.9049 340.864C77.1429 342.225 62.325 348.796 59.3312 347.948C56.3375 347.096 55.2175 343.768 56.481 340.86C57.7446 337.952 99.9837 330.821 99.9837 330.821L99.9873 330.826Z" fill="url(#paint3_linear_535_8800)"/>
<path d="M77.3639 323.094C77.3639 323.094 71.4015 328.668 63.6479 331.86C55.8943 335.052 56.2353 342.246 56.5943 342.776C56.9533 343.306 59.2901 346.566 65.1878 344.629C71.0892 342.691 75.2747 340.886 79.7043 339.148C82.5975 338.011 83.8288 338.16 88.1363 336.35C92.0957 334.684 100.664 332.755 100.47 331.364C100.273 329.974 81.7863 321.911 77.3639 323.102V323.094Z" fill="url(#paint4_linear_535_8800)"/>
<path d="M139.936 182.796C139.936 182.796 103.383 204.552 84.5522 219.342C77.5919 226.104 75.0361 238.283 76.5653 251.713C78.0944 265.143 79.5698 315.759 75.7109 324.208C75.7109 324.208 90.03 333.097 100.799 332.199C100.799 332.199 101.003 308.879 101.621 284.414C102.238 259.95 100.171 243.735 100.171 243.735C100.171 243.735 122.947 236.193 147.963 216.477L157.228 200.762L139.936 182.796Z" fill="url(#paint5_linear_535_8800)"/>
<path d="M184.25 80.0019L146.458 79.0947L137.656 185.567C137.656 185.567 145.019 199.128 159.022 200.756L173.509 161.386L184.25 79.9977V80.0019Z" fill="#55C8FF"/>
<path d="M154.742 93.3048L157.926 98.7268L162.855 94.9454L161.02 84.6992L154.742 93.3048Z" fill="#FF3131"/>
<path d="M157.33 96.8232C157.33 96.8232 145.341 127.231 144.867 158.835L148.058 167.114L152.398 160.42C152.398 160.42 150.937 129.69 159.007 96.8614L157.33 96.8232Z" fill="#FF3131"/>
<path d="M162.102 87.3534L163.365 100.164L179.881 85.6789L177.494 80.3672L162.102 87.3534Z" fill="url(#paint6_linear_535_8800)"/>
<path d="M161.015 84.6992L154.177 96.7471L152.461 88.6968L161.015 84.6992Z" fill="url(#paint7_linear_535_8800)"/>
<path d="M161.016 85.2755L161.917 98.8198L179.908 84.9406L180.985 69.6582L173.658 62.5957L161.016 85.2755Z" fill="#55C8FF"/>
<path d="M161.012 85.275L152.961 95.5847L149.224 79.6071L148 70.9549L156.131 68.4834L161.012 85.275Z" fill="#55C8FF"/>
<path d="M151.355 65.8685C150.903 67.4158 150.268 71.4346 149.614 76.475C148.214 87.2214 146.717 102.614 146.617 108.566C146.466 117.32 143.135 138.601 142.331 150.839C142.191 152.942 141.976 155.825 141.706 159.169V159.178C140.407 175.27 137.966 201.858 137.966 201.858C131.842 199.963 125.977 187.911 125.977 187.911C125.977 187.911 136.056 164.693 136.623 137.74C136.103 81.702 151.352 65.8643 151.352 65.8643L151.355 65.8685Z" fill="url(#paint8_linear_535_8800)"/>
<path d="M149.7 71.6888L149.617 76.4706C148.217 87.2171 146.721 102.61 146.62 108.562C146.469 117.316 143.138 138.596 142.334 150.835C142.194 152.938 141.979 155.82 141.709 159.165V159.174L141.699 159.233C141.699 159.233 140.665 144.353 141.354 130.186C142.043 116.018 141.824 102.881 141.824 102.881L145.759 100.35L143.605 96.3568L149.7 71.6846V71.6888Z" fill="url(#paint9_linear_535_8800)"/>
<path d="M188.747 154.753C190.692 183.953 194.077 206.887 194.077 206.887C194.077 206.887 178.707 221.228 151.555 209.545C151.555 209.545 153.037 185.14 154.581 164.711C155.41 153.663 156.261 143.777 156.907 139.547C158.745 127.507 170.321 99.7532 175.749 89.4391C181.015 79.4431 180.405 70.3372 180.3 69.1884C180.293 69.1078 180.29 69.0654 180.29 69.0654C180.29 69.0654 180.308 69.0781 180.336 69.1078C180.347 69.1078 180.354 69.1205 180.361 69.129C181.51 70.0871 195.607 82.1943 201.669 101.483C201.511 110.673 186.798 125.553 188.743 154.753H188.747Z" fill="url(#paint10_linear_535_8800)"/>
<path d="M172.986 109.851L168.818 110.801L171.525 117.944L154.578 164.706C155.407 153.659 156.258 143.773 156.904 139.542C158.742 127.503 170.319 99.7489 175.746 89.4349C181.012 79.4388 180.402 70.333 180.298 69.1841L180.334 69.1078L180.355 69.0654C180.355 69.0654 180.355 69.0866 180.355 69.129C180.416 70.1931 181.116 85.0897 172.979 109.851H172.986Z" fill="url(#paint11_linear_535_8800)"/>
<path d="M81.0726 197.273L113.979 175.335C115.379 174.402 117.094 174.423 118.476 175.394L167.726 209.923L167.934 208.6L169.582 208.638L169.51 212.818C169.51 212.818 169.51 212.843 169.51 212.856V212.877C169.485 213.823 169.065 214.751 168.261 215.272L135.211 236.515C133.417 237.668 131.238 237.609 129.489 236.354L81.0223 201.546C79.6547 200.562 79.687 198.205 81.0798 197.273H81.0726Z" fill="#195975"/>
<path d="M168.397 206.492L118.541 171.536C117.159 170.565 115.443 170.544 114.043 171.476L81.1372 193.414C79.7408 194.343 79.7085 196.704 81.0797 197.688L129.55 232.496C131.295 233.751 133.477 233.81 135.272 232.657L168.322 211.414C169.955 210.363 169.998 207.612 168.401 206.488L168.397 206.492Z" fill="#55ACD8"/>
<path d="M144.564 210.851L142.188 212.398L145.626 214.857L147.999 213.309L144.564 210.851Z" fill="#005289"/>
<path d="M140.825 208.18L138.445 209.727L141.532 211.936L143.909 210.384L140.825 208.18Z" fill="#005289"/>
<path d="M137.141 205.543L134.758 207.095L137.791 209.261L140.171 207.709L137.141 205.543Z" fill="#005289"/>
<path d="M120.313 193.508L117.922 195.064L134.104 206.632H134.107L136.487 205.077L120.313 193.508Z" fill="#005289"/>
<path d="M116.578 190.837L114.18 192.397L117.27 194.601L119.665 193.041L116.578 190.837Z" fill="#005289"/>
<path d="M112.89 188.2L110.492 189.76L113.522 191.931H113.525L115.923 190.371L112.89 188.2Z" fill="#005289"/>
<path d="M105.914 186.492L109.845 189.298L112.243 187.734L108.319 184.928L105.914 186.492Z" fill="#005289"/>
<path d="M139.29 211.728L136.906 213.279L142.237 217.086L144.613 215.539L139.29 211.728Z" fill="#005289"/>
<path d="M135.634 209.116L133.25 210.664L136.258 212.813L138.638 211.261L135.634 209.116Z" fill="#005289"/>
<path d="M132.063 206.564L129.68 208.116L132.594 210.202L134.978 208.65L132.063 206.564Z" fill="#005289"/>
<path d="M128.524 204.034L126.133 205.59L129.026 207.654L131.41 206.103L128.524 204.034Z" fill="#005289"/>
<path d="M124.961 201.481L122.57 203.037L125.489 205.123L127.879 203.567L124.961 201.481Z" fill="#005289"/>
<path d="M121.355 198.904L118.961 200.464L121.915 202.571L124.306 201.015L121.355 198.904Z" fill="#005289"/>
<path d="M117.789 196.356L115.398 197.917L118.313 199.998L120.708 198.438L117.789 196.356Z" fill="#005289"/>
<path d="M114.304 193.86L111.906 195.425L114.746 197.451H114.749L117.14 195.891L114.304 193.86Z" fill="#005289"/>
<path d="M110.742 191.312L108.344 192.872L111.259 194.957L113.656 193.393L110.742 191.312Z" fill="#005289"/>
<path d="M102.531 188.721L107.693 192.41L110.091 190.845L104.933 187.157L102.531 188.721Z" fill="#005289"/>
<path d="M137.133 215.577L135.234 216.811L138.759 219.329L141.136 217.778L137.614 215.264L137.133 215.577Z" fill="#005289"/>
<path d="M133.473 212.961L131.578 214.195L134.586 216.344L136.482 215.11L136.966 214.793L133.962 212.647L133.473 212.961Z" fill="#005289"/>
<path d="M129.907 210.414L128.008 211.647L130.926 213.733L132.822 212.499L133.31 212.181L130.395 210.096L129.907 210.414Z" fill="#005289"/>
<path d="M126.364 207.883L124.469 209.121L127.358 211.186L129.254 209.952L129.742 209.634L126.856 207.565L126.364 207.883Z" fill="#005289"/>
<path d="M122.797 205.335L120.898 206.568L123.817 208.654L125.716 207.416L126.207 207.098L123.289 205.013L122.797 205.335Z" fill="#005289"/>
<path d="M119.196 202.758L117.297 203.996L120.251 206.102L122.146 204.869H122.15L122.642 204.547L119.691 202.436L119.196 202.758Z" fill="#005289"/>
<path d="M115.63 200.21L113.734 201.448L116.649 203.529L118.548 202.291L119.04 201.969L116.129 199.888L115.63 200.21Z" fill="#005289"/>
<path d="M112.138 197.718L110.242 198.952L113.078 200.982L114.977 199.744L115.472 199.422L112.636 197.392L112.138 197.718Z" fill="#005289"/>
<path d="M108.567 195.169L106.672 196.403L109.587 198.488L111.486 197.251L111.984 196.924L109.07 194.843L108.567 195.169Z" fill="#005289"/>
<path d="M99.0547 190.96L106.022 195.941L107.917 194.703L108.42 194.377L101.456 189.396L99.0547 190.96Z" fill="#005289"/>
<path d="M134.454 218.566L132.82 219.634L135.462 221.521L137.835 219.973L135.197 218.087L134.935 218.256L134.454 218.566Z" fill="#005289"/>
<path d="M130.793 215.95L129.156 217.018L132.164 219.163L133.801 218.099L134.282 217.786L134.544 217.616L131.536 215.467L131.278 215.636L130.793 215.95Z" fill="#005289"/>
<path d="M127.223 213.402L125.586 214.471L128.504 216.556L130.138 215.492L130.622 215.174L130.881 215.005L127.973 212.919L127.711 213.089L127.223 213.402Z" fill="#005289"/>
<path d="M123.68 210.876L122.047 211.944L124.94 214.009L126.57 212.945L127.058 212.623H127.062L127.32 212.453L124.43 210.389H124.427L124.168 210.558L123.68 210.876Z" fill="#005289"/>
<path d="M120.118 208.329L118.484 209.393L121.399 211.474L123.036 210.41L123.524 210.088L123.783 209.918L120.871 207.837L120.609 208.006L120.118 208.329Z" fill="#005289"/>
<path d="M116.508 205.751L114.875 206.815L117.829 208.926L119.463 207.862H119.466L119.954 207.539L120.216 207.37L117.262 205.259L117.004 205.428L116.508 205.751Z" fill="#005289"/>
<path d="M112.942 203.203L111.305 204.267L114.219 206.348L115.856 205.284L116.348 204.962L116.61 204.792L113.703 202.711H113.699L113.441 202.88L112.942 203.203Z" fill="#005289"/>
<path d="M109.454 200.71L107.82 201.778L110.656 203.8L112.293 202.736H112.297L112.792 202.414L113.054 202.244L110.215 200.214L109.956 200.383L109.454 200.71Z" fill="#005289"/>
<path d="M105.887 198.163L104.25 199.227L107.168 201.308L108.802 200.244L109.304 199.918L109.563 199.753L106.648 197.667L106.386 197.837L105.887 198.163Z" fill="#005289"/>
<path d="M95.7578 193.156L103.601 198.76L105.238 197.696L105.737 197.374L105.999 197.2L98.1593 191.592L95.7578 193.156Z" fill="#005289"/>
<path d="M129.881 219.503L127.906 220.792L132.07 223.768L134.447 222.216L130.286 219.24L130.146 219.333L129.881 219.503Z" fill="#005289"/>
<path d="M126.224 216.887L124.242 218.176L127.25 220.321L129.228 219.036L129.49 218.862L129.634 218.773L126.629 216.624L126.486 216.717L126.224 216.887Z" fill="#005289"/>
<path d="M122.658 214.339L120.68 215.628L123.598 217.714L125.576 216.425L125.838 216.255L125.982 216.158L123.067 214.072L122.92 214.17L122.658 214.339Z" fill="#005289"/>
<path d="M119.115 211.809L117.141 213.097L120.034 215.162L122.008 213.877L122.274 213.708L122.421 213.61L119.531 211.546L119.381 211.639H119.377L119.119 211.809H119.115Z" fill="#005289"/>
<path d="M115.545 209.26L113.57 210.549L116.489 212.635L118.463 211.346L118.725 211.172L118.876 211.075L115.961 208.993L115.81 209.091L115.545 209.26Z" fill="#005289"/>
<path d="M111.939 206.684L109.961 207.973L112.915 210.084L114.889 208.795L115.155 208.626L115.306 208.528L112.355 206.417L112.201 206.514L111.939 206.684Z" fill="#005289"/>
<path d="M108.376 204.136L106.398 205.424L109.313 207.506L111.291 206.217L111.55 206.047L111.704 205.95L108.793 203.864L108.635 203.966L108.376 204.136Z" fill="#005289"/>
<path d="M104.884 201.643L102.906 202.932L105.742 204.958L107.72 203.674L107.982 203.5L108.14 203.398L105.304 201.372L105.146 201.474L104.884 201.643Z" fill="#005289"/>
<path d="M101.322 199.095L99.3438 200.384L102.259 202.469L104.236 201.181L104.498 201.007L104.656 200.905L101.745 198.819H101.742L101.584 198.925L101.322 199.095Z" fill="#005289"/>
<path d="M92.3672 195.398L98.6921 199.921L100.67 198.633L100.928 198.459L101.094 198.353L94.7687 193.834L92.3672 195.398Z" fill="#005289"/>
<path d="M120.442 162.464C120.442 162.464 118.687 167.136 119.272 169.184C119.861 171.231 120.155 174.89 120.004 177.556C119.886 179.646 118.044 184.296 118.044 184.296C118.044 184.296 116.623 185.606 115.772 184.627C114.921 183.648 115.262 182.126 115.747 181.392C116.232 180.659 116.555 179.582 116.39 177.988C116.224 176.394 115.88 176.077 115.88 176.077C115.88 176.077 115.072 177.098 114.347 179.905C113.281 184.034 113.04 186.675 112.94 189.714C112.857 192.198 110.854 192.113 110.305 191.346C109.914 190.795 109.454 189.15 110.047 187.077C110.639 185.004 110.94 181.316 110.905 180.367C110.869 179.417 111.188 177.713 110.743 178.217C110.298 178.722 109.562 181.846 109.594 182.728C109.623 183.605 108.374 188.794 107.638 189.082C106.64 189.477 105.15 187.476 105.646 185.051C106.141 182.626 107.638 178.141 107.638 178.141C107.638 178.141 107.494 176.912 106.558 178.077C105.621 179.243 105.018 182.312 104.512 182.957C103.467 184.288 101.905 183.075 102.325 180.515C102.745 177.95 104.709 175.424 104.946 174.724C105.186 174.029 103.6 175.398 103.506 175.708C103.413 176.017 101.913 177.67 101.539 177.798C99.7983 178.383 99.6475 177.081 100.861 174.991C102.078 172.901 103.496 171.719 105.018 169.586C106.54 167.454 111.881 159.226 112.2 158.077C112.2 158.077 116.896 157.691 120.446 162.473L120.442 162.464Z" fill="url(#paint12_linear_535_8800)"/>
<path d="M58.3161 151.675L59.2925 150.9C59.2925 150.9 59.3068 150.891 59.3104 150.887L59.3571 150.849C59.7017 150.599 60.154 150.544 60.5776 150.853L108.793 186.225C109.605 186.823 110.283 187.645 110.764 188.62L132.837 233.492L131.817 234.357L128.902 231.322L129.585 231.186L80.1195 196.077L58.9551 152.706C58.8187 152.43 58.7791 152.146 58.8007 151.883L58.3125 151.675H58.3161Z" fill="#00416D"/>
<path d="M131.817 234.362L109.741 189.486C109.26 188.51 108.589 187.692 107.778 187.095L59.5116 151.684C58.4957 150.938 57.3147 152.291 57.9106 153.516L79.1001 196.947L131.817 234.362Z" fill="#2C6D91"/>
<path d="M147.536 197.094L137.819 203.504L122.75 192.469L132.367 186.271L147.536 197.094Z" fill="#005289"/>
<path d="M111.505 154.77L108.547 160.518C108.547 160.518 116.153 161.086 120.059 167.369L123.272 162.214C123.272 162.214 119.201 156.995 111.505 154.766V154.77Z" fill="#55C8FF"/>
<path d="M150.806 66.5261C148.1 69.981 136.43 87.7179 136.62 136.1C131.387 148.924 123.245 163.952 123.245 163.952C120.923 156.804 110.039 155.325 110.039 155.325C110.039 155.325 129.2 114.739 131.178 109.664C133.156 104.59 133.045 96.031 134.714 89.3712C139.384 70.0488 150.803 66.5176 150.803 66.5176L150.806 66.5261Z" fill="url(#paint13_linear_535_8800)"/>
<path d="M174.862 61.0911C174.862 61.0911 175.774 68.3784 176.621 70.8498C177.468 73.3213 173.189 84.9495 164.495 86.2297C161.975 86.1704 158.332 86.8698 157.93 79.943L174.858 61.0869L174.862 61.0911Z" fill="url(#paint14_linear_535_8800)"/>
<path d="M142.773 47.5435C142.773 47.5435 143.43 60.8419 144.238 65.7891C145.042 70.7108 148.861 81.4826 154.914 83.03C160.276 84.3992 163.543 81.2241 166.501 77.3537C169.383 73.585 172.854 65.7763 173.041 63.5041C173.041 63.5041 175.4 64.2629 177.826 61.1683C180.253 58.0737 181.505 54.0761 179.169 52.0964C176.832 50.1124 160.757 27.6658 142.773 47.5477V47.5435Z" fill="url(#paint15_linear_535_8800)"/>
<path d="M143.012 33.8288C143.012 33.8288 158.691 5.76513 176.575 21.9505C176.575 21.9505 184.641 25.7785 184.433 34.8335C184.235 43.384 183.277 46.1013 175.25 55.7625L173.168 60.5231L170.875 60.468L171.779 54.5077C171.779 54.5077 173.19 48.6152 164.69 49.4588C156.186 50.3066 142.427 48.5304 142.427 48.5304L140.711 42.7099C140.711 42.7099 140.801 37.5254 143.015 33.8245L143.012 33.8288Z" fill="url(#paint16_linear_535_8800)"/>
<path d="M172.409 44.4439C172.409 44.4439 170.517 50.0185 169.322 50.5823C169.318 50.5823 169.311 50.5865 169.308 50.5865C169.085 50.6459 168.848 50.7434 168.59 50.8748C165.521 52.4603 145.526 64.063 140.946 46.0082C140.601 44.2489 140.598 42.2183 141.025 40.0479C141.161 40.3404 145.462 46.288 153.111 41.2857C153.111 41.2857 152.713 45.0204 151.14 46.0294C151.14 46.0294 158.119 47.5767 161.751 42.0148C161.751 42.0148 161.712 44.3125 160.233 47.4283C160.233 47.4283 169.124 47.7717 172.405 44.4354L172.409 44.4439Z" fill="url(#paint17_linear_535_8800)"/>
<path d="M164.556 203.475C164.556 203.475 160.076 208.257 155.65 210.109C151.22 211.958 150.997 213.836 149.206 214.395C147.411 214.955 144.884 213.691 146.898 211.483C148.912 209.274 149.239 208.833 149.239 208.833C149.239 208.833 149.996 205.616 147.857 207.744C145.717 209.876 143.804 211.466 142.483 210.381C141.162 209.295 143.215 206.756 144.138 205.764C145.017 204.819 147.214 203.297 147.214 203.297C147.214 203.297 147.243 202.593 145.559 202.368C144.364 202.207 142.375 204.149 141.654 205.336C140.871 206.625 139.694 208.074 138.879 207.375C138.064 206.68 137.946 205.997 138.233 204.2C138.52 202.402 140.171 201.101 140.767 200.431C141.367 199.761 141.022 199.066 139.259 199.935C137.497 200.808 134.575 201.856 134.575 201.856C134.575 201.856 130.526 203.865 132.177 200.592C133.329 198.307 137.54 196.281 139.008 196.014C140.48 195.747 144.906 193.822 150 194.094C155.093 194.365 161.081 194.352 161.081 194.352L164.556 203.471V203.475Z" fill="url(#paint18_linear_535_8800)"/>
<path d="M163.062 191.257L159.164 193.792C159.164 193.792 159.641 204.835 164.706 207.756L169.125 205.149L163.062 191.257Z" fill="#55C8FF"/>
<path d="M206.147 112.624C206.147 112.624 202.055 91.8645 189.968 96.303C177.882 100.741 177.064 122.434 182.477 126.766C187.89 131.098 192.933 156.784 192.65 164.482C192.37 172.181 188.637 173.664 185.647 175.169C182.656 176.674 162.242 191.24 162.242 191.24C162.242 191.24 163.086 202.466 168.057 206.612L202.769 188.358C202.769 188.358 212.461 185.263 211.165 165.796C209.869 146.33 206.15 112.62 206.15 112.62L206.147 112.624Z" fill="url(#paint19_linear_535_8800)"/>
<path d="M49.0391 112.043L49.6062 107.943L52.6431 110.016L52.0795 114.12L49.0391 112.047" fill="#00E1FF"/>
<path d="M53.1566 217.022C51.7746 216.081 50.9382 214.534 50.9454 212.088L50.9741 200.795C50.9813 198.425 51.7028 197.869 53.1853 198.878C54.6714 199.892 55.4181 201.511 55.4109 203.821L55.3857 215.013C55.3785 217.595 54.614 218.018 53.1602 217.027" fill="#00E1FF"/>
<path d="M67.5192 62.5748L67.5372 54.6221L68.9012 55.5505C70.9437 56.9409 71.2883 58.6663 71.2847 60.3662V61.4896C71.2776 63.6728 70.9473 64.9107 68.6966 63.3761L67.5156 62.5706" fill="#00E1FF"/>
<path d="M88.8828 77.1413L88.9008 69.1885L90.2648 70.1169C92.3073 71.5073 92.6555 73.2327 92.6519 74.9369V76.0602C92.6447 78.2434 92.3145 79.4771 90.0638 77.9467L88.8828 77.1413Z" fill="#00E1FF"/>
<path d="M92.4766 9.79684C93.0509 6.13415 93.8119 1.66177 93.8944 0L93.9878 0.0635857C94.1816 2.29342 94.6949 6.42242 95.4164 11.802L92.4766 9.79684Z" fill="#00E1FF"/>
<path d="M112.211 23.2568C112.785 19.5941 113.546 15.1217 113.629 13.46L113.719 13.5193C113.912 15.7491 114.429 19.8781 115.151 25.2577L112.211 23.2526" fill="#00E1FF"/>
<path d="M114.133 149.288C112.051 147.868 110.579 144.281 110.586 140.869C110.593 137.905 111.692 135.553 114.208 137.27C116.728 138.986 117.711 143.014 117.704 145.655C117.697 149.165 116.164 150.674 114.133 149.288Z" fill="#00E1FF"/>
<path d="M127.329 158.122C125.032 156.554 123.876 153.154 123.883 149.996C123.89 146.549 125.204 144.862 127.408 146.363C129.005 147.452 130.165 149.724 130.473 151.746C130.545 152.149 130.567 152.649 130.567 153.005L130.56 155.71C130.56 156.164 130.534 156.533 130.459 156.867C130.068 158.728 128.758 159.097 127.329 158.122Z" fill="#00E1FF"/>
<path d="M137.445 157.631C137.621 155.782 138.572 153.781 140.726 155.252C143.124 156.889 143.698 160.089 143.67 161.874L137.445 157.631Z" fill="#00E1FF"/>
<path d="M155.008 156.82L153.36 155.701L146.547 174.455L148.169 175.558L155.008 156.82Z" fill="#00E1FF"/>
<path d="M135.026 164.167C133.971 162.23 131.785 161.67 130.145 162.917C128.504 164.163 128.03 166.745 129.086 168.682C130.141 170.619 132.327 171.179 133.967 169.933C135.608 168.686 136.082 166.105 135.026 164.167Z" fill="#5AFFFA"/>
<path d="M219.815 149.677C218.76 147.74 216.574 147.18 214.934 148.427C213.293 149.673 212.819 152.255 213.875 154.192C214.93 156.129 217.116 156.689 218.757 155.443C220.397 154.196 220.871 151.614 219.815 149.677Z" fill="#5AFFFA"/>
<path d="M137.44 275.162C136.385 273.225 134.199 272.666 132.559 273.912C130.918 275.158 130.444 277.74 131.5 279.677C132.555 281.615 134.741 282.174 136.382 280.928C138.022 279.681 138.496 277.1 137.44 275.162Z" fill="#5AFFFA"/>
<path d="M122.558 86.3861C121.502 84.4488 119.316 83.8892 117.676 85.1356C116.035 86.3819 115.561 88.9636 116.617 90.9009C117.672 92.8382 119.858 93.3978 121.499 92.1515C123.139 90.9051 123.613 88.3235 122.558 86.3861Z" fill="#5AFFFA"/>
<path d="M227.762 308.568C226.908 307.004 225.145 306.55 223.817 307.559C222.493 308.568 222.109 310.649 222.963 312.218C223.817 313.782 225.58 314.236 226.908 313.227C228.232 312.218 228.617 310.136 227.762 308.568Z" fill="#5AFFFA"/>
<path d="M48.9897 87.1792C48.1353 85.6149 46.3728 85.1613 45.0447 86.1702C43.7165 87.1792 43.336 89.2606 44.1904 90.8292C45.0447 92.3934 46.8072 92.847 48.1353 91.8381C49.4599 90.8291 49.844 88.7477 48.9897 87.1792Z" fill="#5AFFFA"/>
<path d="M50.5357 155.544C49.6813 153.98 47.9188 153.527 46.5907 154.535C45.2661 155.544 44.882 157.626 45.7363 159.194C46.5907 160.759 48.3532 161.212 49.6813 160.203C51.0059 159.194 51.39 157.113 50.5357 155.544Z" fill="#5AFFFA"/>
<path d="M76.2473 292.713C75.2745 290.928 73.2608 290.415 71.7495 291.564C70.2383 292.713 69.804 295.091 70.7767 296.876C71.7495 298.66 73.7633 299.173 75.2745 298.025C76.7857 296.876 77.2201 294.498 76.2473 292.713Z" fill="#5AFFFA"/>
<path d="M116.755 302.684C115.782 300.899 113.769 300.386 112.257 301.535C110.746 302.684 110.312 305.062 111.285 306.846C112.257 308.631 114.271 309.144 115.782 307.995C117.294 306.846 117.728 304.468 116.755 302.684Z" fill="#5AFFFA"/>
<path d="M49.3255 333.49C48.3527 331.705 46.3389 331.193 44.8276 332.341C43.3164 333.49 42.8821 335.868 43.8549 337.653C44.8277 339.438 46.8414 339.951 48.3526 338.802C49.8639 337.653 50.2982 335.275 49.3255 333.49Z" fill="#5AFFFA"/>
<path d="M91.1979 144.913C90.4513 143.543 88.9042 143.145 87.7411 144.027C86.5817 144.908 86.2442 146.735 86.9909 148.109C87.7375 149.478 89.2846 149.877 90.4477 148.995C91.6107 148.113 91.9446 146.286 91.1979 144.913Z" fill="#5AFFFA"/>
<path d="M54.3982 198.361C53.63 196.949 52.0362 196.542 50.8372 197.449C49.6419 198.356 49.2973 200.239 50.0655 201.65C50.8336 203.062 52.4274 203.469 53.6264 202.562C54.8217 201.654 55.1663 199.772 54.3982 198.356V198.361Z" fill="#5AFFFA"/>
<path d="M197.445 93.8517C196.677 92.4401 195.083 92.0331 193.884 92.9403C192.689 93.8475 192.344 95.7297 193.112 97.1414C193.881 98.553 195.474 98.96 196.673 98.0528C197.869 97.1456 198.213 95.2634 197.445 93.8475V93.8517Z" fill="#5AFFFA"/>
<path d="M199.141 147.817C198.373 146.405 196.779 145.998 195.58 146.905C194.381 147.812 194.04 149.695 194.809 151.11C195.58 152.522 197.171 152.929 198.369 152.022C199.565 151.115 199.909 149.232 199.141 147.817Z" fill="#5AFFFA"/>
<path d="M183.648 237.561C182.927 236.239 181.437 235.857 180.317 236.709C179.197 237.561 178.874 239.321 179.596 240.643C180.317 241.966 181.807 242.347 182.927 241.495C184.047 240.643 184.37 238.884 183.648 237.561Z" fill="#5AFFFA"/>
<path d="M235.412 256.15C234.949 255.302 233.99 255.056 233.272 255.603C232.554 256.15 232.346 257.282 232.809 258.129C233.272 258.977 234.231 259.223 234.949 258.676C235.666 258.129 235.875 256.998 235.412 256.15Z" fill="#5AFFFA"/>
<path d="M118.576 218.963C118.113 218.115 117.154 217.869 116.436 218.416C115.718 218.963 115.51 220.095 115.973 220.943C116.436 221.791 117.395 222.037 118.113 221.49C118.831 220.943 119.039 219.811 118.576 218.963Z" fill="#5AFFFA"/>
<path d="M155.638 209.116C155.175 208.268 154.217 208.022 153.499 208.569C152.781 209.115 152.573 210.247 153.036 211.095C153.499 211.943 154.457 212.189 155.175 211.642C155.893 211.095 156.101 209.963 155.638 209.116Z" fill="#5AFFFA"/>
<path d="M103.685 181.565C103.222 180.717 102.264 180.471 101.546 181.018C100.828 181.565 100.62 182.697 101.083 183.544C101.546 184.392 102.504 184.638 103.222 184.091C103.94 183.544 104.148 182.413 103.685 181.565Z" fill="#5AFFFA"/>
<path d="M166.802 244.831C166.339 243.983 165.381 243.738 164.663 244.284C163.945 244.831 163.737 245.963 164.2 246.811C164.663 247.659 165.621 247.905 166.339 247.358C167.057 246.811 167.265 245.679 166.802 244.831Z" fill="#5AFFFA"/>
<path d="M67.521 170.632C67.0579 169.784 66.0995 169.538 65.3816 170.085C64.6637 170.632 64.4555 171.764 64.9185 172.612C65.3816 173.46 66.34 173.706 67.0579 173.159C67.7759 172.612 67.9841 171.48 67.521 170.632Z" fill="#5AFFFA"/>
<path d="M164.146 271.792C163.683 270.944 162.724 270.699 162.007 271.245C161.289 271.792 161.08 272.924 161.544 273.772C162.007 274.62 162.965 274.866 163.683 274.319C164.401 273.772 164.609 272.64 164.146 271.792Z" fill="#5AFFFA"/>
<path d="M180.513 112.474C180.05 111.626 179.092 111.38 178.374 111.927C177.656 112.474 177.448 113.606 177.911 114.454C178.374 115.301 179.332 115.547 180.05 115C180.768 114.454 180.976 113.322 180.513 112.474Z" fill="#5AFFFA"/>
<path d="M215.716 108.142C215.253 107.294 214.295 107.048 213.577 107.595C212.859 108.142 212.651 109.274 213.114 110.122C213.577 110.969 214.535 111.215 215.253 110.668C215.971 110.122 216.179 108.99 215.716 108.142Z" fill="#5AFFFA"/>
<path d="M47.8882 123.453C47.4251 122.606 46.4667 122.36 45.7488 122.907C45.0308 123.453 44.8227 124.585 45.2857 125.433C45.7488 126.281 46.7072 126.527 47.4251 125.98C48.1431 125.433 48.3513 124.301 47.8882 123.453Z" fill="#5AFFFA"/>
<path d="M54.2632 274.218C53.8001 273.37 52.8417 273.124 52.1238 273.671C51.4058 274.218 51.1977 275.35 51.6607 276.198C52.1238 277.046 53.0822 277.291 53.8001 276.745C54.5181 276.198 54.7263 275.066 54.2632 274.218Z" fill="#5AFFFA"/>
<path d="M67.521 114.301C67.0579 113.453 66.0995 113.207 65.3816 113.754C64.6637 114.301 64.4555 115.433 64.9185 116.281C65.3816 117.129 66.34 117.374 67.0579 116.828C67.7759 116.281 67.9841 115.149 67.521 114.301Z" fill="#5AFFFA"/>
<path d="M198.271 267.783C197.808 266.935 196.85 266.689 196.132 267.236C195.414 267.782 195.205 268.914 195.669 269.762C196.132 270.61 197.09 270.856 197.808 270.309C198.526 269.762 198.734 268.63 198.271 267.783Z" fill="#5AFFFA"/>
<path d="M173.599 138.384C173.136 137.536 172.178 137.29 171.46 137.837C170.742 138.384 170.534 139.516 170.997 140.364C171.46 141.212 172.418 141.457 173.136 140.911C173.854 140.364 174.062 139.232 173.599 138.384Z" fill="#5AFFFA"/>
<path d="M198.271 316.41C197.808 315.563 196.85 315.317 196.132 315.864C195.414 316.41 195.205 317.542 195.669 318.39C196.132 319.238 197.09 319.484 197.808 318.937C198.526 318.39 198.734 317.258 198.271 316.41Z" fill="#5AFFFA"/>
<path d="M107.677 111.91C107.214 111.063 106.256 110.817 105.538 111.364C104.82 111.91 104.612 113.042 105.075 113.89C105.538 114.738 106.496 114.984 107.214 114.437C107.932 113.89 108.14 112.758 107.677 111.91Z" fill="#5AFFFA"/>
<path d="M172.052 177.957C171.589 177.109 170.631 176.864 169.913 177.41C169.195 177.957 168.987 179.089 169.45 179.937C169.913 180.785 170.871 181.031 171.589 180.484C172.307 179.937 172.515 178.805 172.052 177.957Z" fill="#5AFFFA"/>
<path d="M79.146 228.035C78.6829 227.188 77.7245 226.942 77.0066 227.489C76.2887 228.035 76.0805 229.167 76.5435 230.015C77.0066 230.863 77.965 231.109 78.6829 230.562C79.4009 230.015 79.6091 228.883 79.146 228.035Z" fill="#5AFFFA"/>
<path d="M212.177 219.158C211.714 218.311 210.756 218.065 210.038 218.612C209.32 219.158 209.112 220.29 209.575 221.138C210.038 221.986 210.996 222.232 211.714 221.685C212.432 221.138 212.64 220.006 212.177 219.158Z" fill="#5AFFFA"/>
<path d="M139.813 510.283C146.682 510.283 152.251 506.157 152.251 501.067C152.251 495.977 146.682 491.851 139.813 491.851C132.944 491.851 127.375 495.977 127.375 501.067C127.375 506.157 132.944 510.283 139.813 510.283Z" fill="#55C8FF"/>
<path d="M147.576 501.067C147.576 504.242 144.101 506.815 139.815 506.815C135.529 506.815 132.055 504.242 132.055 501.067C132.055 497.892 135.529 495.318 139.815 495.318C144.101 495.318 147.576 497.892 147.576 501.067Z" fill="white"/>
<path d="M77.1936 488.43C75.0973 492.876 68.5318 493.288 62.5299 489.345C56.5245 485.403 53.3549 478.599 55.4512 474.152C57.5476 469.705 64.113 469.294 70.1148 473.236C76.1203 477.179 79.2899 483.983 77.1936 488.43Z" fill="#55C8FF"/>
<path d="M73.1049 485.746C71.7983 488.523 67.7026 488.777 63.9586 486.314C60.2146 483.855 58.2367 479.612 59.5433 476.835C60.8499 474.059 64.9457 473.804 68.6897 476.267C72.4337 478.726 74.4116 482.969 73.1049 485.746Z" fill="white"/>
<path d="M29.2416 444.482C25.4115 445.657 21.025 440.765 19.4384 433.554C17.8554 426.343 19.6753 419.547 23.5054 418.377C27.3356 417.203 31.7221 422.095 33.3087 429.306C34.8917 436.517 33.0718 443.308 29.2416 444.482Z" fill="#55C8FF"/>
<path d="M28.1647 439.573C25.7776 440.307 23.0388 437.254 22.0516 432.757C21.0645 428.259 22.1988 424.02 24.5859 423.29C26.973 422.557 29.7119 425.609 30.699 430.107C31.6862 434.605 30.5518 438.844 28.1647 439.573Z" fill="white"/>
<path d="M202.653 488.43C204.749 492.876 211.315 493.288 217.317 489.345C223.322 485.403 226.488 478.599 224.395 474.152C222.299 469.705 215.734 469.294 209.732 473.236C203.726 477.179 200.56 483.983 202.653 488.43Z" fill="#55C8FF"/>
<path d="M206.739 485.746C208.045 488.523 212.141 488.777 215.885 486.314C219.629 483.855 221.607 479.612 220.3 476.835C218.994 474.059 214.898 473.804 211.154 476.267C207.41 478.726 205.432 482.969 206.739 485.746Z" fill="white"/>
<path d="M248.334 444.482C252.164 445.657 256.55 440.765 258.137 433.554C259.72 426.343 257.9 419.547 254.07 418.377C250.24 417.203 245.853 422.095 244.267 429.306C242.684 436.517 244.503 443.308 248.334 444.482Z" fill="#55C8FF"/>
<path d="M249.406 439.573C251.793 440.307 254.532 437.254 255.519 432.757C256.507 428.259 255.372 424.02 252.985 423.29C250.598 422.557 247.859 425.609 246.872 430.107C245.885 434.605 247.019 438.844 249.406 439.573Z" fill="white"/>
<path d="M243.304 382.183C244.7 380.793 244.309 377.537 242.432 374.909C240.554 372.281 237.902 371.28 236.509 372.671C235.112 374.061 235.504 377.317 237.381 379.945C239.258 382.573 241.911 383.574 243.304 382.183Z" fill="#55C8FF"/>
<path d="M242.023 380.394C242.892 379.525 242.651 377.495 241.481 375.858C240.311 374.222 238.656 373.595 237.787 374.464C236.919 375.333 237.159 377.363 238.329 379C239.499 380.636 241.154 381.263 242.023 380.394Z" fill="white"/>
<path d="M33.962 382.178C32.5656 380.787 32.9569 377.531 34.8343 374.903C36.7116 372.275 39.3644 371.274 40.7571 372.665C42.1535 374.055 41.7622 377.311 39.8848 379.939C38.0075 382.568 35.3547 383.568 33.962 382.178Z" fill="#55C8FF"/>
<path d="M35.2403 380.385C34.3716 379.516 34.6121 377.485 35.7823 375.849C36.9525 374.212 38.6074 373.585 39.4761 374.454C40.3448 375.323 40.1042 377.354 38.934 378.99C37.7638 380.626 36.109 381.254 35.2403 380.385Z" fill="white"/>
<defs>
<linearGradient id="paint0_linear_535_8800" x1="90.2381" y1="360.627" x2="124.983" y2="361.223" gradientUnits="userSpaceOnUse">
<stop stop-color="#01064A"/>
<stop offset="0.17" stop-color="#02094D"/>
<stop offset="0.32" stop-color="#061356"/>
<stop offset="0.45" stop-color="#0E2567"/>
<stop offset="0.58" stop-color="#193D7E"/>
<stop offset="0.71" stop-color="#265D9B"/>
<stop offset="0.83" stop-color="#3784C0"/>
<stop offset="0.95" stop-color="#4BB2EA"/>
<stop offset="1" stop-color="#55C8FF"/>
</linearGradient>
<linearGradient id="paint1_linear_535_8800" x1="90.3988" y1="347.678" x2="121.962" y2="360.357" gradientUnits="userSpaceOnUse">
<stop stop-color="#55C8FF"/>
<stop offset="0.05" stop-color="#4BB2EA"/>
<stop offset="0.17" stop-color="#3784C0"/>
<stop offset="0.29" stop-color="#265D9B"/>
<stop offset="0.42" stop-color="#193D7E"/>
<stop offset="0.55" stop-color="#0E2567"/>
<stop offset="0.68" stop-color="#061356"/>
<stop offset="0.83" stop-color="#02094D"/>
<stop offset="1" stop-color="#01064A"/>
</linearGradient>
<linearGradient id="paint2_linear_535_8800" x1="82.0695" y1="263.923" x2="182.377" y2="275.295" gradientUnits="userSpaceOnUse">
<stop stop-color="#55C8FF"/>
<stop offset="0.03" stop-color="#4DB6EE"/>
<stop offset="0.1" stop-color="#3B8DC8"/>
<stop offset="0.18" stop-color="#2B68A5"/>
<stop offset="0.26" stop-color="#1E4989"/>
<stop offset="0.35" stop-color="#133072"/>
<stop offset="0.45" stop-color="#0B1D60"/>
<stop offset="0.57" stop-color="#051053"/>
<stop offset="0.72" stop-color="#02084C"/>
<stop offset="1" stop-color="#01064A"/>
</linearGradient>
<linearGradient id="paint3_linear_535_8800" x1="56.0721" y1="338.882" x2="100.335" y2="339.641" gradientUnits="userSpaceOnUse">
<stop stop-color="#01064A"/>
<stop offset="0.17" stop-color="#02094D"/>
<stop offset="0.32" stop-color="#061356"/>
<stop offset="0.45" stop-color="#0E2567"/>
<stop offset="0.58" stop-color="#193D7E"/>
<stop offset="0.71" stop-color="#265D9B"/>
<stop offset="0.83" stop-color="#3784C0"/>
<stop offset="0.95" stop-color="#4BB2EA"/>
<stop offset="1" stop-color="#55C8FF"/>
</linearGradient>
<linearGradient id="paint4_linear_535_8800" x1="59.1042" y1="326.116" x2="87.4973" y2="337.747" gradientUnits="userSpaceOnUse">
<stop stop-color="#55C8FF"/>
<stop offset="0.05" stop-color="#4BB2EA"/>
<stop offset="0.17" stop-color="#3784C0"/>
<stop offset="0.29" stop-color="#265D9B"/>
<stop offset="0.42" stop-color="#193D7E"/>
<stop offset="0.55" stop-color="#0E2567"/>
<stop offset="0.68" stop-color="#061356"/>
<stop offset="0.83" stop-color="#02094D"/>
<stop offset="1" stop-color="#01064A"/>
</linearGradient>
<linearGradient id="paint5_linear_535_8800" x1="66.0032" y1="244.238" x2="145.521" y2="258.846" gradientUnits="userSpaceOnUse">
<stop stop-color="#55C8FF"/>
<stop offset="0.03" stop-color="#4DB6EE"/>
<stop offset="0.1" stop-color="#3B8DC8"/>
<stop offset="0.18" stop-color="#2B68A5"/>
<stop offset="0.26" stop-color="#1E4989"/>
<stop offset="0.35" stop-color="#133072"/>
<stop offset="0.45" stop-color="#0B1D60"/>
<stop offset="0.57" stop-color="#051053"/>
<stop offset="0.72" stop-color="#02084C"/>
<stop offset="1" stop-color="#01064A"/>
</linearGradient>
<linearGradient id="paint6_linear_535_8800" x1="162.063" y1="90.0886" x2="179.808" y2="90.3928" gradientUnits="userSpaceOnUse">
<stop stop-color="#55C8FF"/>
<stop offset="0.09" stop-color="#48AAE3"/>
<stop offset="0.25" stop-color="#3278B4"/>
<stop offset="0.42" stop-color="#204F8E"/>
<stop offset="0.58" stop-color="#122F70"/>
<stop offset="0.73" stop-color="#09185B"/>
<stop offset="0.87" stop-color="#030A4E"/>
<stop offset="1" stop-color="#01064A"/>
</linearGradient>
<linearGradient id="paint7_linear_535_8800" x1="152.436" y1="90.6211" x2="160.921" y2="90.7666" gradientUnits="userSpaceOnUse">
<stop stop-color="#55C8FF"/>
<stop offset="0.09" stop-color="#48AAE3"/>
<stop offset="0.25" stop-color="#3278B4"/>
<stop offset="0.42" stop-color="#204F8E"/>
<stop offset="0.58" stop-color="#122F70"/>
<stop offset="0.73" stop-color="#09185B"/>
<stop offset="0.87" stop-color="#030A4E"/>
<stop offset="1" stop-color="#01064A"/>
</linearGradient>
<linearGradient id="paint8_linear_535_8800" x1="127.1" y1="131.619" x2="150.313" y2="133.768" gradientUnits="userSpaceOnUse">
<stop stop-color="#01064A"/>
<stop offset="0.2" stop-color="#02084C"/>
<stop offset="0.35" stop-color="#061255"/>
<stop offset="0.48" stop-color="#0D2264"/>
<stop offset="0.6" stop-color="#163879"/>
<stop offset="0.71" stop-color="#235594"/>
<stop offset="0.82" stop-color="#3278B5"/>
<stop offset="0.92" stop-color="#44A2DB"/>
<stop offset="1" stop-color="#55C8FF"/>
</linearGradient>
<linearGradient id="paint9_linear_535_8800" x1="140.608" y1="114.744" x2="148.014" y2="115.518" gradientUnits="userSpaceOnUse">
<stop stop-color="#01064A"/>
<stop offset="0.25" stop-color="#02084C"/>
<stop offset="0.4" stop-color="#051054"/>
<stop offset="0.52" stop-color="#0B1F61"/>
<stop offset="0.63" stop-color="#143374"/>
<stop offset="0.73" stop-color="#1F4D8C"/>
<stop offset="0.82" stop-color="#2D6DAA"/>
<stop offset="0.91" stop-color="#3E94CE"/>
<stop offset="0.99" stop-color="#51BFF6"/>
<stop offset="1" stop-color="#55C8FF"/>
</linearGradient>
<linearGradient id="paint10_linear_535_8800" x1="152.74" y1="141.06" x2="200.988" y2="141.888" gradientUnits="userSpaceOnUse">
<stop stop-color="#55C8FF"/>
<stop offset="0.01" stop-color="#51BFF6"/>
<stop offset="0.09" stop-color="#3E94CE"/>
<stop offset="0.18" stop-color="#2D6DAA"/>
<stop offset="0.27" stop-color="#1F4D8C"/>
<stop offset="0.37" stop-color="#143374"/>
<stop offset="0.48" stop-color="#0B1F61"/>
<stop offset="0.6" stop-color="#051054"/>
<stop offset="0.75" stop-color="#02084C"/>
<stop offset="1" stop-color="#01064A"/>
</linearGradient>
<linearGradient id="paint11_linear_535_8800" x1="161.5" y1="113.968" x2="174.652" y2="118.6" gradientUnits="userSpaceOnUse">
<stop stop-color="#55C8FF"/>
<stop offset="0.01" stop-color="#51BFF6"/>
<stop offset="0.09" stop-color="#3E94CE"/>
<stop offset="0.18" stop-color="#2D6DAA"/>
<stop offset="0.27" stop-color="#1F4D8C"/>
<stop offset="0.37" stop-color="#143374"/>
<stop offset="0.48" stop-color="#0B1F61"/>
<stop offset="0.6" stop-color="#051054"/>
<stop offset="0.75" stop-color="#02084C"/>
<stop offset="1" stop-color="#01064A"/>
</linearGradient>
<linearGradient id="paint12_linear_535_8800" x1="115.244" y1="147.818" x2="106.108" y2="185.136" gradientUnits="userSpaceOnUse">
<stop stop-color="#01064A"/>
<stop offset="0.17" stop-color="#162864"/>
<stop offset="0.54" stop-color="#4D7FA7"/>
<stop offset="1" stop-color="#94F1FF"/>
</linearGradient>
<linearGradient id="paint13_linear_535_8800" x1="100.057" y1="131.855" x2="148.408" y2="116.279" gradientUnits="userSpaceOnUse">
<stop stop-color="#55C8FF"/>
<stop offset="0.09" stop-color="#48AAE3"/>
<stop offset="0.25" stop-color="#3278B4"/>
<stop offset="0.42" stop-color="#204F8E"/>
<stop offset="0.58" stop-color="#122F70"/>
<stop offset="0.73" stop-color="#09185B"/>
<stop offset="0.87" stop-color="#030A4E"/>
<stop offset="1" stop-color="#01064A"/>
</linearGradient>
<linearGradient id="paint14_linear_535_8800" x1="158.054" y1="73.4221" x2="176.7" y2="73.7418" gradientUnits="userSpaceOnUse">
<stop stop-color="#94F1FF"/>
<stop offset="0.46" stop-color="#4D7FA7"/>
<stop offset="0.83" stop-color="#162864"/>
<stop offset="1" stop-color="#01064A"/>
</linearGradient>
<linearGradient id="paint15_linear_535_8800" x1="142.186" y1="71.8308" x2="183.27" y2="50.181" gradientUnits="userSpaceOnUse">
<stop stop-color="#94F1FF"/>
<stop offset="0.46" stop-color="#4D7FA7"/>
<stop offset="0.83" stop-color="#162864"/>
<stop offset="1" stop-color="#01064A"/>
</linearGradient>
<linearGradient id="paint16_linear_535_8800" x1="182.25" y1="21.4744" x2="139.999" y2="52.4674" gradientUnits="userSpaceOnUse">
<stop stop-color="#01064A"/>
<stop offset="0.21" stop-color="#02084C"/>
<stop offset="0.36" stop-color="#061155"/>
<stop offset="0.49" stop-color="#0C2163"/>
<stop offset="0.6" stop-color="#163778"/>
<stop offset="0.71" stop-color="#225392"/>
<stop offset="0.82" stop-color="#3176B2"/>
<stop offset="0.92" stop-color="#439ED8"/>
<stop offset="1" stop-color="#55C8FF"/>
</linearGradient>
<linearGradient id="paint17_linear_535_8800" x1="149.533" y1="59.7816" x2="160.454" y2="40.8315" gradientUnits="userSpaceOnUse">
<stop stop-color="#01064A"/>
<stop offset="0.11" stop-color="#030C50"/>
<stop offset="0.26" stop-color="#0B1E60"/>
<stop offset="0.44" stop-color="#183C7C"/>
<stop offset="0.63" stop-color="#2A65A3"/>
<stop offset="0.84" stop-color="#419AD4"/>
<stop offset="1" stop-color="#55C8FF"/>
</linearGradient>
<linearGradient id="paint18_linear_535_8800" x1="136.004" y1="206.446" x2="178.625" y2="200.969" gradientUnits="userSpaceOnUse">
<stop stop-color="#94F1FF"/>
<stop offset="0.46" stop-color="#4D7FA7"/>
<stop offset="0.83" stop-color="#162864"/>
<stop offset="1" stop-color="#01064A"/>
</linearGradient>
<linearGradient id="paint19_linear_535_8800" x1="156.307" y1="158.009" x2="213.472" y2="146.196" gradientUnits="userSpaceOnUse">
<stop stop-color="#55C8FF"/>
<stop offset="0.09" stop-color="#48AAE3"/>
<stop offset="0.25" stop-color="#3278B4"/>
<stop offset="0.42" stop-color="#204F8E"/>
<stop offset="0.58" stop-color="#122F70"/>
<stop offset="0.73" stop-color="#09185B"/>
<stop offset="0.87" stop-color="#030A4E"/>
<stop offset="1" stop-color="#01064A"/>
</linearGradient>
</defs>
</svg>
