<svg width="1440" height="229" viewBox="0 0 1440 229" fill="none" xmlns="http://www.w3.org/2000/svg">
<g clip-path="url(#clip0_529_18180)">
<path d="M0 0H80C160 0 320 0 480 30.5028C640 61.372 800 121.828 960 122.103C1120 121.828 1280 61.372 1440 41.9528C1600 22.9 1760 45.8 1920 72.5472C2080 98.928 2240 130.072 2400 118.347C2560 107.172 2720 53.128 2880 45.8C3040 38.472 3200 76.028 3360 103.05C3520 130.072 3680 144.728 3840 145.003C4000 144.728 4160 130.072 4320 110.653C4480 91.6 4640 68.7 4800 53.4028C4960 38.472 5120 30.228 5280 30.5028C5440 30.228 5600 38.472 5760 41.9528C5920 45.8 6080 45.8 6240 64.8528C6400 84.272 6560 121.828 6720 129.797C6880 137.4 7040 114.5 7200 106.897C7360 98.928 7520 107.172 7680 122.103C7840 137.4 8000 160.3 8160 175.597C8320 190.528 8480 198.772 8640 190.803C8800 183.2 8960 160.3 9120 141.247C9280 121.828 9440 107.172 9600 103.05C9760 98.928 9920 107.172 10080 99.2028C10240 91.6 10400 68.7 10560 64.8528C10720 61.372 10880 76.028 11040 76.3028C11200 76.028 11360 61.372 11440 53.4028L11520 45.8V229H11440C11360 229 11200 229 11040 229C10880 229 10720 229 10560 229C10400 229 10240 229 10080 229C9920 229 9760 229 9600 229C9440 229 9280 229 9120 229C8960 229 8800 229 8640 229C8480 229 8320 229 8160 229C8000 229 7840 229 7680 229C7520 229 7360 229 7200 229C7040 229 6880 229 6720 229C6560 229 6400 229 6240 229C6080 229 5920 229 5760 229C5600 229 5440 229 5280 229C5120 229 4960 229 4800 229C4640 229 4480 229 4320 229C4160 229 4000 229 3840 229C3680 229 3520 229 3360 229C3200 229 3040 229 2880 229C2720 229 2560 229 2400 229C2240 229 2080 229 1920 229C1760 229 1600 229 1440 229C1280 229 1120 229 960 229C800 229 640 229 480 229C320 229 160 229 80 229H0V0Z" fill="url(#paint0_linear_529_18180)" fill-opacity="0.75"/>
</g>
<defs>
<linearGradient id="paint0_linear_529_18180" x1="-9.65299e-06" y1="17.0335" x2="30.464" y2="428.626" gradientUnits="userSpaceOnUse">
<stop offset="0.14208" stop-color="#B866D7"/>
<stop offset="1" stop-color="#EE609C"/>
</linearGradient>
<clipPath id="clip0_529_18180">
<rect width="1440" height="229" fill="white"/>
</clipPath>
</defs>
</svg>
