<svg width="500" height="500" viewBox="0 0 500 500" fill="none" xmlns="http://www.w3.org/2000/svg">
<g clip-path="url(#clip0_529_12998)">
<path d="M452.285 118.763C450.626 116.001 448.901 113.291 447.099 110.641C423.102 75.3807 383.152 51.2407 344.327 40.3077C327.318 35.5107 309.855 33.0017 292.422 32.3607C178.078 28.2057 136.072 122.485 99.2322 146.793C62.3922 171.102 5.85823 212.622 12.9522 299.842C18.3352 366.158 56.0612 429.568 124.961 458.423C132.55 461.611 140.524 464.378 148.873 466.674C164.404 470.947 181.237 473.629 199.373 474.436C251.465 476.757 293.762 464.2 335.136 432.579C344.753 425.229 354.319 416.938 366.8 416.03C375.872 415.37 384.473 418.629 374.99 427.396C363.845 437.701 376.704 457.968 404.996 443.887C452.247 420.37 471.685 369.631 480.842 318.037C492.081 254.708 486.632 175.952 452.285 118.763Z" fill="#92E3A9"/>
<path opacity="0.7" d="M452.285 118.763C450.626 116.001 448.901 113.291 447.099 110.641C423.102 75.3807 383.152 51.2407 344.327 40.3077C327.318 35.5107 309.855 33.0017 292.422 32.3607C178.078 28.2057 136.072 122.485 99.2322 146.793C62.3922 171.102 5.85823 212.622 12.9522 299.842C18.3352 366.158 56.0612 429.568 124.961 458.423C132.55 461.611 140.524 464.378 148.873 466.674C164.404 470.947 181.237 473.629 199.373 474.436C251.465 476.757 293.762 464.2 335.136 432.579C344.753 425.229 354.319 416.938 366.8 416.03C375.872 415.37 384.473 418.629 374.99 427.396C363.845 437.701 376.704 457.968 404.996 443.887C452.247 420.37 471.685 369.631 480.842 318.037C492.081 254.708 486.632 175.952 452.285 118.763Z" fill="white"/>
<path d="M366.146 455.288C368.745 456.423 375.101 456.28 375.106 456.28C375.172 456.278 373.74 452.119 373.619 451.867C372.225 448.949 367.814 444.132 364.225 444.617C361.64 444.967 360.202 447.554 360.785 449.988C361.382 452.474 363.932 454.321 366.146 455.288Z" fill="#263238"/>
<path d="M379.752 499.095C379.312 499.282 378.95 499.546 378.625 499.842H385.56C383.537 498.885 381.383 498.402 379.752 499.095Z" fill="#263238"/>
<path d="M427.945 499.842H432.477C431.21 499.267 429.59 499.368 427.945 499.842Z" fill="#263238"/>
<path d="M411.809 485.969C413.637 487.601 418.414 489.197 419.684 489.602C419.591 490.359 419.489 491.115 419.399 491.872C419.079 494.546 418.756 497.204 418.407 499.841H419.862C420.146 497.239 420.407 494.625 420.663 492.009C420.771 490.894 420.892 489.785 421.009 488.674C421.473 488.849 426.984 490.901 429.695 490.71C432.104 490.541 435.127 489.656 436.521 487.513C437.887 485.416 437.4 482.496 435.081 481.301C431.863 479.641 426.093 482.701 423.801 484.982C423.628 485.154 421.53 487.778 421.029 488.472C421.288 486.025 421.568 483.59 421.942 481.201C422.453 477.904 423.137 474.696 424.029 471.638C424.245 471.72 429.987 473.887 432.764 473.693C435.173 473.524 438.196 472.638 439.591 470.496C440.957 468.399 440.47 465.479 438.151 464.283C434.932 462.623 429.163 465.683 426.87 467.964C426.69 468.143 424.435 470.968 424.062 471.509C424.116 471.328 424.151 471.133 424.207 470.953C425.201 467.7 426.572 464.674 427.996 461.903C428.819 460.291 429.697 458.797 430.583 457.363C431.611 457.876 436.336 460.17 438.854 460.271C441.267 460.367 444.369 459.819 445.99 457.843C447.578 455.908 447.415 452.953 445.241 451.51C442.224 449.507 436.153 451.914 433.624 453.93C433.487 454.039 432.213 455.309 431.297 456.246C431.706 455.604 432.117 454.935 432.522 454.329C434.037 452.047 435.565 450.052 436.932 448.295C437.717 447.303 438.447 446.421 439.139 445.603C440.41 445.581 445.535 445.425 447.775 444.373C449.96 443.346 452.461 441.431 452.99 438.93C453.507 436.481 452 433.933 449.407 433.654C445.807 433.266 441.528 438.2 440.212 441.154C440.099 441.41 438.779 445.607 438.845 445.606C438.845 445.606 438.907 445.606 438.922 445.605C438.24 446.379 437.519 447.216 436.749 448.147C435.34 449.877 433.765 451.845 432.195 454.102C430.62 456.354 428.972 458.845 427.473 461.625C425.967 464.41 424.525 467.416 423.439 470.706C423.427 470.743 423.419 470.783 423.406 470.821C423.425 469.76 423.378 466.792 423.349 466.565C422.933 463.358 420.245 457.406 416.684 456.747C414.119 456.274 411.946 458.283 411.742 460.778C411.534 463.326 413.381 465.876 415.182 467.485C417.213 469.3 422.852 471.057 423.301 471.196C422.296 474.338 421.52 477.645 420.919 481.033C420.573 482.971 420.285 484.933 420.022 486.904C420.009 485.986 419.99 485.165 419.975 485.051C419.559 481.844 416.872 475.892 413.31 475.234C410.744 474.759 408.572 476.77 408.368 479.264C408.16 481.81 410.008 484.36 411.809 485.969Z" fill="#263238"/>
<path d="M368.34 473.7C371.036 474.093 376.708 472.448 377.159 472.315C378.055 475.491 379.231 478.677 380.6 481.835C381.38 483.642 382.222 485.437 383.089 487.226C382.572 486.468 382.103 485.794 382.028 485.707C379.912 483.261 374.386 479.78 371.054 481.196C368.652 482.215 367.949 485.09 369.155 487.284C370.385 489.524 373.335 490.632 375.724 490.98C378.149 491.334 383.014 490.028 384.297 489.665C384.637 490.348 384.968 491.034 385.311 491.715C386.676 494.434 388.032 497.14 389.332 499.84H390.982C389.517 496.932 387.978 494.032 386.441 491.132C385.916 490.143 385.405 489.151 384.89 488.161C385.373 488.05 391.102 486.721 393.258 485.067C395.174 483.597 397.207 481.191 397.188 478.635C397.17 476.132 395.153 473.965 392.56 474.248C388.96 474.639 385.835 480.374 385.182 483.541C385.133 483.78 384.831 487.126 384.796 487.98C383.662 485.798 382.552 483.612 381.546 481.412C380.153 478.379 378.954 475.327 378.012 472.284C378.237 472.233 384.222 470.872 386.431 469.178C388.347 467.708 390.38 465.302 390.361 462.746C390.343 460.243 388.327 458.077 385.732 458.359C382.132 458.75 379.008 464.485 378.354 467.652C378.303 467.901 377.98 471.501 377.968 472.157C377.912 471.976 377.834 471.795 377.781 471.614C376.816 468.352 376.29 465.071 375.949 461.975C375.747 460.177 375.655 458.447 375.603 456.761C376.744 456.622 381.95 455.928 384.106 454.623C386.173 453.372 388.457 451.204 388.719 448.662C388.976 446.172 387.209 443.797 384.601 443.792C380.98 443.785 377.244 449.143 376.247 452.219C376.193 452.387 375.829 454.148 375.584 455.435C375.572 454.674 375.545 453.889 375.549 453.159C375.554 450.421 375.727 447.913 375.898 445.694C376.006 444.432 376.128 443.294 376.254 442.231C377.302 441.51 381.49 438.554 382.778 436.441C384.035 434.379 385.064 431.402 384.125 429.025C383.206 426.696 380.543 425.403 378.226 426.601C375.009 428.264 374.163 434.74 374.694 437.93C374.741 438.205 375.956 442.434 376.011 442.397C376.011 442.397 376.062 442.362 376.074 442.353C375.932 443.374 375.793 444.471 375.664 445.672C375.443 447.892 375.215 450.402 375.151 453.151C375.079 455.898 375.079 458.885 375.362 462.031C375.642 465.184 376.097 468.487 377.007 471.83C377.017 471.868 377.033 471.906 377.043 471.944C376.473 471.049 374.796 468.6 374.646 468.426C372.53 465.98 367.005 462.499 363.672 463.914C361.271 464.934 360.567 467.809 361.773 470.003C363.003 472.244 365.95 473.351 368.34 473.7Z" fill="#263238"/>
<path d="M403.648 499.842C404.675 498.571 405.435 497.066 405.424 495.503C405.406 493 403.39 490.833 400.796 491.115C397.401 491.484 394.43 496.604 393.555 499.842H403.648Z" fill="#263238"/>
<path d="M415.71 499.841C414.506 497.481 412.745 495.338 410.691 494.958C408.125 494.484 405.952 496.493 405.747 498.989C405.724 499.274 405.735 499.558 405.76 499.841H415.71Z" fill="#263238"/>
<path d="M430.44 456.686C430.496 456.721 431.596 452.461 431.635 452.185C432.081 448.982 431.06 442.531 427.799 440.956C425.45 439.821 422.824 441.186 421.968 443.539C421.093 445.941 422.202 448.888 423.514 450.916C425.055 453.297 430.436 456.683 430.44 456.686Z" fill="#263238"/>
<path d="M25.1705 475.177C27.1005 476.02 31.8215 475.914 31.8255 475.914C31.8745 475.913 30.8105 472.823 30.7215 472.636C29.6855 470.469 26.4095 466.891 23.7445 467.251C21.8245 467.511 20.7565 469.432 21.1895 471.24C21.6325 473.086 23.5265 474.458 25.1705 475.177Z" fill="#263238"/>
<path d="M59.0879 497.964C59.8569 498.651 61.3279 499.328 62.6309 499.842H76.7999C77.0409 499.622 77.2649 499.385 77.4429 499.111C78.4579 497.554 78.0959 495.385 76.3729 494.497C73.9829 493.264 69.6969 495.537 67.9949 497.231C67.8669 497.359 66.3089 499.308 65.9359 499.823C66.1279 498.006 66.3359 496.197 66.6139 494.422C66.9929 491.973 67.5019 489.59 68.1639 487.319C68.3239 487.38 72.5899 488.989 74.6519 488.845C76.4419 488.719 78.6869 488.062 79.7229 486.471C80.7379 484.913 80.3759 482.745 78.6539 481.857C76.2629 480.624 71.9779 482.897 70.2749 484.591C70.1419 484.724 68.4659 486.822 68.1889 487.224C68.2289 487.089 68.2549 486.945 68.2969 486.811C69.0349 484.395 70.0539 482.147 71.1109 480.09C71.7229 478.893 72.3749 477.783 73.0329 476.718C73.7969 477.099 77.3059 478.803 79.1759 478.878C80.9679 478.95 83.2719 478.542 84.4759 477.075C85.6559 475.638 85.5339 473.443 83.9199 472.371C81.6789 470.883 77.1699 472.671 75.2919 474.168C75.1899 474.249 74.2439 475.192 73.5639 475.888C73.8679 475.411 74.1729 474.914 74.4739 474.464C75.5989 472.769 76.7339 471.287 77.7499 469.982C78.3329 469.245 78.8759 468.59 79.3899 467.982C80.3339 467.965 84.1399 467.85 85.8039 467.069C87.4269 466.306 89.2849 464.884 89.6769 463.026C90.0609 461.207 88.9419 459.315 87.0159 459.107C84.3419 458.819 81.1639 462.483 80.1869 464.678C80.1029 464.868 79.1229 467.985 79.1719 467.984C79.1719 467.984 79.2179 467.984 79.2289 467.984C78.7219 468.559 78.1869 469.181 77.6149 469.872C76.5689 471.157 75.3989 472.618 74.2329 474.295C73.0629 475.968 71.8389 477.818 70.7259 479.882C69.6069 481.95 68.5359 484.183 67.7299 486.627C67.7209 486.655 67.7149 486.684 67.7059 486.712C67.7199 485.924 67.6849 483.72 67.6629 483.551C67.3539 481.169 65.3579 476.748 62.7129 476.259C60.8079 475.907 59.1939 477.4 59.0419 479.253C58.8869 481.146 60.2589 483.039 61.5969 484.235C63.1059 485.583 67.2939 486.888 67.6279 486.991C66.8809 489.325 66.3049 491.781 65.8589 494.297C65.6019 495.736 65.3879 497.193 65.1919 498.657C65.1819 497.975 65.1679 497.366 65.1569 497.281C64.8479 494.899 62.8519 490.479 60.2069 489.989C58.3009 489.637 56.6879 491.13 56.5359 492.982C56.3779 494.875 57.7499 496.769 59.0879 497.964Z" fill="#263238"/>
<path d="M26.7989 488.851C28.8009 489.143 33.0139 487.921 33.3499 487.822C34.0149 490.181 34.8889 492.547 35.9049 494.893C36.4839 496.235 37.1099 497.568 37.7539 498.897C37.3699 498.334 37.0219 497.834 36.9659 497.768C35.3939 495.951 31.2899 493.366 28.8149 494.417C27.0309 495.174 26.5089 497.31 27.4039 498.939C27.5889 499.276 27.8369 499.57 28.1129 499.84H39.2209C39.1779 499.757 39.1339 499.674 39.0909 499.591C39.4499 499.509 43.7049 498.521 45.3069 497.293C46.7299 496.201 48.2399 494.414 48.2259 492.516C48.2129 490.657 46.7149 489.048 44.7879 489.257C42.1139 489.547 39.7929 493.807 39.3079 496.159C39.2719 496.336 39.0469 498.821 39.0209 499.456C38.1789 497.835 37.3549 496.211 36.6069 494.578C35.5729 492.326 34.6819 490.059 33.9819 487.798C34.1489 487.76 38.5949 486.749 40.2349 485.491C41.6579 484.399 43.1679 482.613 43.1539 480.714C43.1409 478.855 41.6429 477.246 39.7159 477.455C37.0419 477.745 34.7219 482.005 34.2359 484.357C34.1979 484.542 33.9579 487.216 33.9489 487.703C33.9069 487.569 33.8499 487.434 33.8099 487.3C33.0929 484.877 32.7029 482.44 32.4489 480.141C32.2989 478.806 32.2309 477.52 32.1919 476.269C33.0389 476.165 36.9059 475.651 38.5069 474.681C40.0419 473.752 41.7389 472.142 41.9329 470.253C42.1239 468.403 40.8119 466.64 38.8739 466.636C36.1839 466.631 33.4099 470.61 32.6689 472.895C32.6279 473.019 32.3589 474.328 32.1759 475.283C32.1669 474.718 32.1469 474.134 32.1499 473.593C32.1539 471.559 32.2819 469.696 32.4099 468.048C32.4899 467.111 32.5809 466.265 32.6749 465.476C33.4529 464.941 36.5639 462.745 37.5209 461.175C38.4549 459.643 39.2189 457.433 38.5209 455.667C37.8379 453.937 35.8609 452.977 34.1399 453.866C31.7499 455.101 31.1219 459.911 31.5169 462.28C31.5519 462.484 32.4539 465.625 32.4949 465.598C32.4949 465.598 32.5329 465.572 32.5419 465.566C32.4369 466.324 32.3329 467.139 32.2379 468.031C32.0739 469.68 31.9049 471.544 31.8569 473.586C31.8039 475.626 31.8029 477.845 32.0139 480.181C32.2219 482.523 32.5599 484.977 33.2359 487.459C33.2439 487.487 33.2549 487.515 33.2629 487.543C32.8399 486.878 31.5939 485.059 31.4829 484.93C29.9119 483.113 25.8079 480.528 23.3319 481.579C21.5479 482.337 21.0259 484.472 21.9219 486.101C22.8349 487.77 25.0239 488.593 26.7989 488.851Z" fill="#263238"/>
<path d="M72.9222 476.215C72.9642 476.241 73.7812 473.077 73.8102 472.872C74.1412 470.493 73.3832 465.702 70.9612 464.532C69.2162 463.689 67.2662 464.703 66.6302 466.451C65.9802 468.235 66.8042 470.424 67.7792 471.93C68.9232 473.697 72.9202 476.213 72.9222 476.215Z" fill="#263238"/>
<path d="M433.897 166.533C433.391 165.91 432.937 165.25 432.499 164.577C431.006 162.286 421.955 150.753 407.201 149.699C384.186 148.055 377.941 166.527 373.885 169.772C369.829 173.017 360.094 167.338 353.604 169.772C347.114 172.206 347.114 179.507 342.247 181.129C337.38 182.751 334.221 178.401 326.023 179.507C320.436 180.26 318.722 183.563 317.1 185.997C315.478 188.431 310.61 187.619 305.743 187.619C300.876 187.619 296.82 193.297 296.82 193.297H472.044C472.044 193.297 467.177 176.261 459.876 171.394C452.575 166.527 446.897 174.639 442.029 173.016C438.613 171.878 435.469 168.467 433.897 166.533Z" stroke="#263238" stroke-miterlimit="10" stroke-linecap="round" stroke-linejoin="round"/>
<path d="M184.436 45.3651C183.93 44.7421 183.476 44.0811 183.038 43.4091C181.545 41.1181 172.494 29.5841 157.74 28.5311C134.725 26.8871 128.48 45.3591 124.424 48.6041C120.368 51.8491 110.633 46.1701 104.143 48.6041C97.6534 51.0381 97.6534 58.3391 92.7864 59.9611C87.9194 61.5841 84.7604 57.2331 76.5624 58.3391C70.9754 59.0921 69.2614 62.3951 67.6394 64.8291C66.0174 67.2631 61.1494 66.451 56.2824 66.451C51.4154 66.451 47.3594 72.1301 47.3594 72.1301H222.582C222.582 72.1301 217.715 55.0941 210.414 50.2271C203.113 45.3601 197.435 53.4721 192.567 51.8491C189.152 50.7101 186.008 47.2991 184.436 45.3651Z" stroke="#263238" stroke-miterlimit="10" stroke-linecap="round" stroke-linejoin="round"/>
<path d="M456.029 193.257C456.029 193.257 447.95 179.908 438.114 177.801C428.278 175.693 425.117 182.719 421.955 184.124C418.794 185.529 409.66 179.557 404.04 180.611C398.42 181.665 397.015 185.88 392.097 187.285C387.179 188.69 385.423 186.231 380.505 186.934C375.587 187.637 358.375 193.297 358.375 193.297L456.029 193.257Z" stroke="#263238" stroke-miterlimit="10" stroke-linecap="round" stroke-linejoin="round"/>
<path d="M163.206 158.588H297.462V96.4502H163.206L136.445 127.292L163.206 158.588Z" fill="#92E3A9" stroke="#263238" stroke-miterlimit="10" stroke-linecap="round" stroke-linejoin="round"/>
<path d="M310.233 499.956H300.812L305.275 7.4209L310.233 12.4749V499.956Z" fill="#263238" stroke="#263238" stroke-miterlimit="10" stroke-linecap="round" stroke-linejoin="round"/>
<path d="M305.273 7.4209H295.852V499.956H305.273V7.4209Z" fill="white" stroke="#263238" stroke-miterlimit="10" stroke-linecap="round" stroke-linejoin="round"/>
<path d="M442.146 91.4603H307.891V29.3223H442.146L468.907 60.1643L442.146 91.4603Z" fill="#92E3A9" stroke="#263238" stroke-miterlimit="10" stroke-linecap="round" stroke-linejoin="round"/>
<path d="M341.71 76.7545V47.5855H336.453V41.8555H354.679V47.5855H349.465V76.7535L341.71 76.7545Z" fill="#263238"/>
<path d="M357.734 76.7545V41.8555H367.342C369.696 41.8555 371.737 42.1135 373.46 42.6305C375.183 43.1475 376.525 44.0735 377.488 45.4095C378.45 46.7445 378.931 48.6345 378.931 51.0755C378.931 52.5125 378.816 53.7895 378.586 54.9095C378.356 56.0295 377.932 56.9995 377.315 57.8175C376.697 58.6365 375.814 59.3185 374.666 59.8645L379.448 76.7535H371.477L367.643 61.1135H365.445V76.7535L357.734 76.7545ZM365.445 56.6765H367.599C368.691 56.6765 369.539 56.4825 370.141 56.0945C370.744 55.7065 371.168 55.1465 371.412 54.4135C371.656 53.6805 371.778 52.7985 371.778 51.7635C371.778 50.2705 371.505 49.1065 370.96 48.2735C370.414 47.4405 369.408 47.0235 367.943 47.0235H365.444L365.445 56.6765Z" fill="#263238"/>
<path d="M393.458 77.2715C390.787 77.2715 388.697 76.8325 387.189 75.9575C385.681 75.0815 384.625 73.8035 384.022 72.1225C383.418 70.4425 383.117 68.3815 383.117 65.9395V41.8555H390.744V67.1035C390.744 67.8215 390.801 68.5405 390.916 69.2575C391.03 69.9755 391.282 70.5645 391.67 71.0235C392.058 71.4835 392.653 71.7125 393.458 71.7125C394.291 71.7125 394.894 71.4835 395.268 71.0235C395.641 70.5645 395.878 69.9755 395.979 69.2575C396.08 68.5395 396.129 67.8215 396.129 67.1035V41.8555H403.799V65.9395C403.799 68.3815 403.489 70.4415 402.872 72.1225C402.254 73.8035 401.198 75.0815 399.705 75.9575C398.212 76.8325 396.129 77.2715 393.458 77.2715Z" fill="#263238"/>
<path d="M408.703 76.7545V41.8555H424.386V47.1115H416.415V55.7715H422.49V61.1145H416.415V71.5405H424.473V76.7535L408.703 76.7545Z" fill="#263238"/>
<path d="M182.648 143.705V108.806H197.728V114.019H190.36V122.808H196.78V128.194H190.36V143.705H182.648Z" fill="#263238"/>
<path d="M198.422 143.705L205.014 108.806H213.803L220.309 143.705H213.2L212.037 136.337H206.91L205.704 143.705H198.422ZM207.599 131.727H211.304L209.451 118.112L207.599 131.727Z" fill="#263238"/>
<path d="M223.492 143.705V108.806H231.204V138.492H239.219V143.705H223.492Z" fill="#263238"/>
<path d="M251.5 144.222C249.316 144.222 247.493 143.834 246.028 143.059C244.563 142.284 243.457 141.085 242.71 139.462C241.963 137.839 241.547 135.735 241.461 133.15L248.053 132.159C248.081 133.653 248.218 134.859 248.462 135.778C248.706 136.698 249.051 137.358 249.496 137.76C249.941 138.163 250.479 138.363 251.112 138.363C251.916 138.363 252.44 138.091 252.684 137.545C252.928 137 253.05 136.425 253.05 135.821C253.05 134.385 252.705 133.172 252.016 132.18C251.327 131.189 250.393 130.192 249.215 129.186L246.199 126.558C244.878 125.438 243.764 124.167 242.86 122.745C241.955 121.323 241.503 119.564 241.503 117.467C241.503 114.509 242.379 112.247 244.131 110.681C245.883 109.116 248.268 108.333 251.283 108.333C253.15 108.333 254.65 108.649 255.786 109.281C256.92 109.913 257.782 110.739 258.371 111.758C258.959 112.778 259.361 113.855 259.577 114.989C259.793 116.124 259.914 117.208 259.943 118.242L253.308 119.061C253.279 118.027 253.214 117.129 253.114 116.368C253.013 115.607 252.805 115.018 252.489 114.601C252.173 114.185 251.685 113.976 251.024 113.976C250.306 113.976 249.782 114.277 249.452 114.881C249.122 115.484 248.957 116.087 248.957 116.691C248.957 117.983 249.265 119.039 249.883 119.857C250.5 120.676 251.312 121.531 252.318 122.42L255.205 124.962C256.727 126.255 258.013 127.72 259.061 129.357C260.109 130.994 260.633 133.019 260.633 135.432C260.633 137.069 260.259 138.556 259.513 139.892C258.766 141.227 257.71 142.283 256.346 143.059C254.982 143.834 253.366 144.222 251.5 144.222Z" fill="#263238"/>
<path d="M263.695 143.705V108.806H279.378V114.062H271.407V122.722H277.482V128.065H271.407V138.491H279.465V143.704H263.695V143.705Z" fill="#263238"/>
<path d="M143.259 308.131C143.259 308.131 123.59 311.225 122.706 312.33C121.822 313.435 117.181 316.971 117.181 316.971C117.181 316.971 87.3466 327.8 86.9046 329.347C86.4626 330.894 96.6286 419.513 96.6286 419.513L91.5456 499.955H237.845L235.193 464.596L255.525 329.568L207.348 309.015L143.259 308.131Z" fill="#92E3A9" stroke="#263238" stroke-miterlimit="10" stroke-linecap="round" stroke-linejoin="round"/>
<path d="M145.148 288.902C145.148 288.902 147.878 303.793 147.878 310.494C147.878 317.195 164.507 331.838 166.74 331.59C168.973 331.342 197.764 303.545 197.764 303.545C197.764 303.545 194.041 288.405 194.041 275.748C194.041 263.09 194.041 250.929 194.041 250.929C194.041 250.929 186.595 254.652 185.851 258.375C185.106 262.098 185.106 264.828 183.121 267.558C181.135 270.287 145.148 288.902 145.148 288.902Z" fill="white" stroke="#263238" stroke-miterlimit="10" stroke-linecap="round" stroke-linejoin="round"/>
<path d="M184.926 270.759L155.573 297.924L148.852 283.775L184.926 270.759Z" fill="#263238" stroke="#263238" stroke-miterlimit="10" stroke-linecap="round" stroke-linejoin="round"/>
<path d="M114.881 230.259C114.881 230.259 111.082 231.779 111.652 233.108C112.222 234.438 121.72 240.136 121.72 240.136L115.262 234.057L114.881 230.259Z" fill="#263238" stroke="#263238" stroke-miterlimit="10" stroke-linecap="round" stroke-linejoin="round"/>
<path d="M120.668 214.423C120.668 214.423 117.455 216.993 114.456 207.783C111.457 198.572 111.671 193.431 112.957 195.145C114.242 196.859 114.885 198.572 114.885 198.572C114.885 198.572 113.814 197.715 117.884 189.147C121.954 180.579 127.309 175.866 126.452 179.079C125.595 182.292 124.738 184.862 124.738 184.862C124.738 184.862 126.023 178.222 133.092 175.223C140.161 172.224 144.231 171.796 143.374 173.295C142.517 174.795 140.161 176.508 140.161 176.508C140.161 176.508 158.368 173.509 166.722 175.223C175.076 176.937 166.936 179.721 166.936 179.721C166.936 179.721 178.503 181.435 187.5 187.004C196.496 192.573 190.499 193.002 190.499 193.002L191.356 197.714C191.356 197.714 195.64 206.282 197.14 215.064C198.639 223.846 196.497 230.058 196.497 230.701C196.497 231.344 191.356 235.414 187.072 235.628C182.788 235.842 183.002 231.987 182.36 230.273C181.717 228.559 180.218 216.992 178.076 214.636C175.934 212.28 169.079 209.495 169.079 207.782C169.079 206.068 169.507 202.427 167.58 201.57C165.652 200.713 142.304 194.287 136.092 199.642C129.88 204.997 127.952 208.424 127.952 208.424L120.668 214.423Z" fill="#263238" stroke="#263238" stroke-miterlimit="10" stroke-linecap="round" stroke-linejoin="round"/>
<path d="M124.954 201.143C124.954 201.143 119.385 209.711 119.813 216.566C120.241 223.42 121.955 251.053 125.168 262.62C128.381 274.187 139.52 290.252 146.16 290.466C152.8 290.68 181.718 274.615 184.931 270.759C188.144 266.903 188.144 260.691 188.144 260.691L188.572 257.692C188.572 257.692 194.141 255.122 197.568 251.908C200.995 248.695 203.566 240.341 202.495 234.986C201.424 229.631 198.211 228.346 198.211 228.346C198.211 228.346 196.926 227.275 194.355 228.132C191.785 228.989 189.214 230.917 189.214 230.917C189.214 230.917 189.857 231.56 188.786 232.416C187.715 233.273 185.787 233.487 185.573 232.844C185.359 232.201 185.359 228.132 184.502 226.204C183.645 224.276 182.36 222.991 182.788 222.134C183.216 221.277 184.502 219.135 183.859 216.993C183.216 214.851 173.363 209.282 174.22 206.497C175.077 203.712 181.289 203.07 178.076 199.857C174.863 196.644 142.733 191.932 137.377 192.788C132.021 193.644 126.025 198.787 124.954 201.143Z" fill="white" stroke="#263238" stroke-miterlimit="10" stroke-linecap="round" stroke-linejoin="round"/>
<path d="M137.379 225.562C137.379 225.562 132.452 243.555 133.738 244.626C135.023 245.697 139.95 248.053 139.95 248.053" stroke="#263238" stroke-miterlimit="10" stroke-linecap="round" stroke-linejoin="round"/>
<path d="M160.377 221.432C160.377 223.007 159.392 224.284 158.177 224.284C156.962 224.284 155.977 223.007 155.977 221.432C155.977 219.857 156.962 218.58 158.177 218.58C159.392 218.58 160.377 219.857 160.377 221.432Z" fill="#263238"/>
<path d="M125.656 232.108C125.656 232.108 128.427 228.033 132.338 228.359" stroke="#263238" stroke-miterlimit="10" stroke-linecap="round" stroke-linejoin="round"/>
<path d="M134.951 220.699C134.951 220.699 130.713 219.395 127.291 220.862C123.868 222.329 122.075 224.122 122.89 225.1C123.705 226.078 128.106 222.818 130.061 222.818C132.017 222.818 137.233 222.818 136.581 221.84C135.929 220.861 134.951 220.699 134.951 220.699Z" fill="#263238" stroke="#263238" stroke-miterlimit="10" stroke-linecap="round" stroke-linejoin="round"/>
<path d="M147.17 214.668C147.17 214.668 153.364 209.289 157.275 208.311C161.186 207.333 166.728 210.756 166.565 211.897C166.402 213.038 159.394 210.919 158.09 211.571C156.786 212.223 150.755 216.461 147.985 216.624C145.214 216.787 146.681 215.32 147.17 214.668Z" fill="#263238" stroke="#263238" stroke-miterlimit="10" stroke-linecap="round" stroke-linejoin="round"/>
<path d="M136.094 262.913C136.094 262.913 142.45 258.675 145.221 258.186C147.992 257.697 154.022 258.023 154.022 258.023" stroke="#263238" stroke-miterlimit="10" stroke-linecap="round" stroke-linejoin="round"/>
<path d="M143.102 244.332C143.102 244.332 147.503 245.962 148.481 245.636C149.459 245.31 149.459 243.354 148.318 242.213" stroke="#263238" stroke-miterlimit="10" stroke-linecap="round" stroke-linejoin="round"/>
<path d="M135.393 231.019C134.253 238.427 130.443 243.366 125.041 243.366C119.638 243.366 115.258 238.391 115.258 232.254C115.258 226.117 119.638 221.142 125.041 221.142C128.418 221.142 133.446 221.225 135.203 224.181C136.258 225.954 135.743 228.744 135.393 231.019Z" stroke="#263238" stroke-miterlimit="10" stroke-linecap="round" stroke-linejoin="round"/>
<path d="M147.743 231.589C153.109 236.822 158.711 235.72 163.027 232.47C167.343 229.22 169.48 220.536 165.788 215.633C162.097 210.73 153.975 211.466 149.659 214.715C146.961 216.746 142.995 219.837 143.368 223.256C143.593 225.307 146.095 229.982 147.743 231.589Z" stroke="#263238" stroke-miterlimit="10" stroke-linecap="round" stroke-linejoin="round"/>
<path d="M143.371 221.141C135.963 219.241 135.203 224.18 135.203 224.18" stroke="#263238" stroke-miterlimit="10" stroke-linecap="round" stroke-linejoin="round"/>
<path d="M165.031 214.113C165.031 214.113 169.4 213.163 170.16 213.543C170.92 213.923 194.354 228.132 194.354 228.132L191.624 228.739L170.539 215.822L166.93 216.962L165.031 214.113Z" fill="#263238" stroke="#263238" stroke-miterlimit="10" stroke-linecap="round" stroke-linejoin="round"/>
<path d="M134.672 310.836L144.432 334.866L152.607 314.088L143.41 300.804L134.672 310.836Z" fill="#92E3A9" stroke="#263238" stroke-miterlimit="10" stroke-linecap="round" stroke-linejoin="round"/>
<path d="M232.156 467.623C230.389 467.034 229.81 463.576 229.81 463.576L112.273 480.072L127.002 433.234C127.002 433.234 144.734 433.614 161.258 435.92C177.782 438.226 231.004 431.501 235.423 430.732C239.842 429.964 250.026 431.116 251.37 431.693C252.715 432.27 255.213 433.23 256.75 437.265C257.234 438.535 261.169 448.985 262.322 451.099C263.475 453.212 263.667 457.44 262.514 459.169C261.361 460.898 258.671 463.396 258.671 463.396C258.671 463.396 251.562 472.619 250.217 473.771C248.872 474.924 236.767 476.653 236.767 476.653C236.767 476.653 230.427 473.195 229.658 472.618C228.889 472.042 231.195 468.391 231.195 468.391L232.156 467.623Z" fill="white" stroke="#263238" stroke-miterlimit="10" stroke-linecap="round" stroke-linejoin="round"/>
<path d="M129.778 450.699L124.605 478.287L116.328 479.322L129.778 450.699Z" fill="#263238" stroke="#263238" stroke-miterlimit="10" stroke-linecap="round" stroke-linejoin="round"/>
<path d="M246.953 459.554C246.953 459.554 251.372 469.929 251.372 471.467" stroke="#263238" stroke-miterlimit="10" stroke-linecap="round" stroke-linejoin="round"/>
<path d="M249.641 446.488C249.641 446.488 259.44 462.435 258.672 463.396" stroke="#263238" stroke-miterlimit="10" stroke-linecap="round" stroke-linejoin="round"/>
<path d="M253.289 437.073L260.59 447.833" stroke="#263238" stroke-miterlimit="10" stroke-linecap="round" stroke-linejoin="round"/>
<path d="M245.68 334.595C245.68 334.595 237.071 339.545 232.337 349.23C227.602 358.915 207.802 401.958 207.802 401.958C207.802 401.958 191.446 455.332 195.104 461.788C198.763 468.245 217.917 480.727 222.006 480.727C226.095 480.727 231.475 472.549 235.78 466.092C240.084 459.635 259.023 409.921 265.91 388.829C272.797 367.738 271.075 346.216 267.417 339.329C263.758 332.442 258.163 328.353 252.782 330.075" fill="#92E3A9"/>
<path d="M245.68 334.595C245.68 334.595 237.071 339.545 232.337 349.23C227.602 358.915 207.802 401.958 207.802 401.958C207.802 401.958 191.446 455.332 195.104 461.788C198.763 468.245 217.917 480.727 222.006 480.727C226.095 480.727 231.475 472.549 235.78 466.092C240.084 459.635 259.023 409.921 265.91 388.829C272.797 367.738 271.075 346.216 267.417 339.329C263.758 332.442 258.163 328.353 252.782 330.075" stroke="#263238" stroke-miterlimit="10" stroke-linecap="round" stroke-linejoin="round"/>
<path d="M177.884 446.722C177.884 446.722 171.428 457.268 173.795 461.787C176.162 466.307 186.708 477.283 192.303 481.587C197.899 485.891 209.09 484.17 215.762 480.296C222.434 476.422 226.953 466.092 231.258 455.546C235.562 445 240.727 428.859 237.499 422.188C234.271 415.516 223.08 406.692 220.067 406.477C217.054 406.262 177.884 446.722 177.884 446.722Z" fill="#92E3A9" stroke="#263238" stroke-miterlimit="10" stroke-linecap="round" stroke-linejoin="round"/>
<path d="M175.903 323.311C175.903 323.311 173.824 290.392 173.477 288.313C173.13 286.234 160.656 282.769 157.884 282.595C155.112 282.422 135.533 293.337 133.974 294.03C132.415 294.723 131.029 295.763 131.548 298.535C132.068 301.307 134.32 309.277 134.667 310.836C135.013 312.395 142.117 315.341 142.117 315.341C142.117 315.341 145.929 327.469 148.181 330.588C150.433 333.707 156.844 338.385 156.844 338.385C156.844 338.385 165.174 393.876 166.974 413.876C168.774 433.876 171.374 440.076 174.774 446.676C178.174 453.276 189.974 469.476 194.174 470.676C198.374 471.876 204.574 461.876 214.574 446.476C224.574 431.076 227.174 417.276 223.574 411.476C219.974 405.676 204.574 385.876 204.174 385.276C203.774 384.676 181.174 336.876 178.974 332.477C176.775 328.077 175.903 323.311 175.903 323.311Z" fill="white" stroke="#263238" stroke-miterlimit="10" stroke-linecap="round" stroke-linejoin="round"/>
<path d="M142.119 315.341L138.977 302.077" stroke="#263238" stroke-miterlimit="10" stroke-linecap="round" stroke-linejoin="round"/>
<path d="M140.009 306.621C140.009 306.621 138.778 308.277 136.578 308.477Z" fill="white"/>
<path d="M140.009 306.621C140.009 306.621 138.778 308.277 136.578 308.477" stroke="#263238" stroke-miterlimit="10" stroke-linecap="round" stroke-linejoin="round"/>
<path d="M139.309 303.72C139.309 303.72 137.569 304.068 135.828 301.864Z" fill="white"/>
<path d="M139.309 303.72C139.309 303.72 137.569 304.068 135.828 301.864" stroke="#263238" stroke-miterlimit="10" stroke-linecap="round" stroke-linejoin="round"/>
<path d="M177.289 316.75L183.919 333.104L210.66 309.015L202.262 293.767L177.289 316.75Z" fill="#92E3A9" stroke="#263238" stroke-miterlimit="10" stroke-linecap="round" stroke-linejoin="round"/>
<path d="M86.9047 329.347C86.9047 329.347 80.5027 335.424 78.9557 342.23C77.4087 349.036 61.9407 433.182 61.6317 450.197C61.3227 467.212 71.8407 472.162 76.4807 475.255C81.1207 478.349 92.2577 477.42 92.2577 477.42L108.035 428.541C108.035 428.541 109.891 406.267 108.035 388.015C106.179 369.763 96.8977 342.848 96.8977 342.848" fill="#92E3A9"/>
<path d="M86.9047 329.347C86.9047 329.347 80.5027 335.424 78.9557 342.23C77.4087 349.036 61.9407 433.182 61.6317 450.197C61.3227 467.212 71.8407 472.162 76.4807 475.255C81.1207 478.349 92.2577 477.42 92.2577 477.42L108.035 428.541C108.035 428.541 109.891 406.267 108.035 388.015C106.179 369.763 96.8977 342.848 96.8977 342.848" stroke="#263238" stroke-miterlimit="10" stroke-linecap="round" stroke-linejoin="round"/>
<path d="M104.324 426.066C104.324 426.066 87.9277 446.793 86.3807 460.096C84.8337 473.398 87.6177 479.276 90.4027 480.514C93.1867 481.751 111.749 485.773 113.914 484.845C116.08 483.917 134.332 442.463 135.569 438.441C136.806 434.419 137.116 430.707 134.022 429.779C130.929 428.85 105.562 422.354 104.324 426.066Z" fill="#92E3A9" stroke="#263238" stroke-miterlimit="10" stroke-linecap="round" stroke-linejoin="round"/>
<path d="M81.0859 427.315C81.0859 427.315 85.2399 421.84 94.6799 421.84C104.121 421.84 107.33 423.917 107.33 423.917" stroke="#263238" stroke-miterlimit="10" stroke-linecap="round" stroke-linejoin="round"/>
<path d="M83.9141 417.309C83.9141 417.309 95.8091 415.232 103.739 420.896" stroke="#263238" stroke-miterlimit="10" stroke-linecap="round" stroke-linejoin="round"/>
</g>
<defs>
<clipPath id="clip0_529_12998">
<rect width="500" height="500" fill="white"/>
</clipPath>
</defs>
</svg>
