<svg width="201" height="65" viewBox="0 0 201 65" fill="none" xmlns="http://www.w3.org/2000/svg">
<path d="M198.762 52.7275C198.762 53.4735 198.615 54.2122 198.329 54.9014C198.043 55.5906 197.624 56.2167 197.096 56.7439C196.568 57.2712 195.942 57.6892 195.252 57.9742C194.562 58.2591 193.823 58.4054 193.077 58.4046H7.04366C5.53585 58.4062 4.08915 57.809 3.02172 56.7444C1.95429 55.6798 1.35353 54.2349 1.35156 52.7275V7.45409C1.35353 5.94603 1.95405 4.50038 3.02127 3.43457C4.08849 2.36877 5.53517 1.76992 7.04366 1.76953H193.076C193.822 1.76953 194.562 1.91658 195.251 2.20227C195.941 2.48797 196.568 2.90671 197.096 3.43459C197.624 3.96247 198.042 4.58914 198.328 5.27882C198.613 5.96849 198.76 6.70765 198.76 7.45409L198.762 52.7275Z" fill="white"/>
<path d="M193.034 64.4502H7.04896C5.19199 64.4498 3.41102 63.654 2.09683 62.2375C0.782648 60.821 0.0425958 58.8995 0.0390625 56.8945L0.0390625 8.01388C0.0418096 6.00794 0.781374 4.08509 2.09552 2.66713C3.40966 1.24916 5.19107 0.451888 7.04896 0.450195L193.033 0.450195C194.89 0.452733 196.671 1.25028 197.985 2.66806C199.299 4.08584 200.039 6.0082 200.043 8.01388V56.8945C200.046 61.0621 196.896 64.4502 193.034 64.4502Z" fill="black"/>
<path d="M44.7121 29.7762C44.6691 24.9988 48.625 22.6745 48.8058 22.5663C46.5655 19.3009 43.093 18.8547 41.8727 18.8191C38.9562 18.5123 36.1272 20.5638 34.6416 20.5638C33.1263 20.5638 30.8384 18.8488 28.3727 18.8992C25.1997 18.9481 22.2314 20.7846 20.6033 23.6365C17.2435 29.4515 19.7493 37.9969 22.9683 42.6972C24.5785 45.0007 26.46 47.5695 28.9228 47.4791C31.3322 47.3813 32.2322 45.9449 35.1398 45.9449C38.0207 45.9449 38.8658 47.4791 41.3775 47.4213C43.9633 47.3813 45.5913 45.1089 47.1452 42.7862C49.006 40.1492 49.7533 37.5493 49.7829 37.4159C49.7236 37.3951 44.7625 35.5007 44.7121 29.7762ZM39.9674 15.7271C41.2633 14.1069 42.15 11.9028 41.9039 9.66602C40.0282 9.74902 37.6826 10.963 36.3319 12.5476C35.1368 13.9439 34.0693 16.2325 34.345 18.3848C36.452 18.5419 38.6152 17.322 39.9674 15.7271Z" fill="white"/>
<path d="M79.6035 47.1481H76.2363L74.3918 41.3539H67.9806L66.2236 47.1481H62.9453L69.2987 27.4219H73.2219L79.6035 47.1481ZM73.8358 38.9229L72.1677 33.772C71.9913 33.2458 71.6592 32.0066 71.1728 30.0559H71.1135C70.9178 30.8949 70.605 32.1341 70.1765 33.772L68.5366 38.9229H73.8358ZM95.9103 39.8612C95.9103 42.2803 95.2534 44.1925 93.9383 45.5962C92.761 46.8457 91.2976 47.4698 89.5524 47.4698C87.6679 47.4698 86.3127 46.7983 85.4898 45.4524V52.9157H82.3287V37.5993C82.3287 36.0799 82.2887 34.522 82.2116 32.9241H84.9916L85.1681 35.1787H85.2274C86.2816 33.48 87.8814 32.6306 90.0284 32.6306C91.7068 32.6306 93.1079 33.2932 94.2289 34.6199C95.3483 35.9495 95.9103 37.6956 95.9103 39.8612ZM92.6898 39.9768C92.6898 38.5924 92.3785 37.451 91.7528 36.5513C91.0692 35.616 90.1514 35.1476 89.0009 35.1476C88.221 35.1476 87.5122 35.4084 86.8791 35.9228C86.2445 36.4416 85.8294 37.119 85.6351 37.958C85.5484 38.2717 85.4991 38.5946 85.4883 38.92V41.2931C85.4883 42.3263 85.8056 43.1993 86.4402 43.9138C87.0748 44.6253 87.8992 44.9825 88.9134 44.9825C90.104 44.9825 91.0307 44.5215 91.6935 43.607C92.3577 42.6894 92.6898 41.4799 92.6898 39.9768ZM112.275 39.8612C112.275 42.2803 111.618 44.1925 110.303 45.5962C109.124 46.8457 107.662 47.4698 105.916 47.4698C104.031 47.4698 102.676 46.7983 101.853 45.4524V52.9157H98.6918V37.5993C98.6918 36.0799 98.6518 34.522 98.5747 32.9241H101.355L101.531 35.1787H101.591C102.643 33.48 104.243 32.6306 106.391 32.6306C108.068 32.6306 109.47 33.2932 110.593 34.6199C111.711 35.9495 112.275 37.6956 112.275 39.8612ZM109.053 39.9768C109.053 38.5924 108.74 37.451 108.114 36.5513C107.431 35.616 106.516 35.1476 105.365 35.1476C104.586 35.1476 103.877 35.4084 103.241 35.9228C102.606 36.4416 102.192 37.119 101.998 37.958C101.902 38.3493 101.85 38.668 101.85 38.92V41.2931C101.85 42.3263 102.169 43.1993 102.8 43.9138C103.435 44.6238 104.259 44.9825 105.277 44.9825C106.469 44.9825 107.395 44.5215 108.057 43.607C108.721 42.6894 109.053 41.4799 109.053 39.9768ZM130.571 41.6148C130.571 43.2942 129.984 44.6594 128.817 45.7133C127.533 46.8635 125.741 47.4401 123.443 47.4401C121.319 47.4401 119.617 47.031 118.333 46.2113L119.064 43.5773C120.45 44.3985 121.973 44.8076 123.631 44.8076C124.823 44.8076 125.75 44.5378 126.411 44.0027C127.074 43.4661 127.409 42.7487 127.409 41.8534C127.409 41.0515 127.132 40.38 126.587 39.8331C126.04 39.2876 125.136 38.7792 123.865 38.3122C120.41 37.0241 118.682 35.1401 118.682 32.6618C118.682 31.0431 119.292 29.7179 120.511 28.6818C121.73 27.6472 123.346 27.1299 125.357 27.1299C127.152 27.1299 128.648 27.4426 129.836 28.0667L129.043 30.6429C127.925 30.0381 126.663 29.7357 125.251 29.7357C124.136 29.7357 123.262 30.01 122.636 30.5554C122.11 31.0431 121.843 31.6375 121.843 32.3431C121.843 33.1213 122.147 33.7676 122.752 34.2745C123.277 34.7414 124.234 35.2498 125.619 35.7953C127.318 36.4801 128.567 37.2776 129.366 38.1936C130.171 39.1097 130.571 40.2525 130.571 41.6148ZM141.05 35.2958H137.565V42.2017C137.565 43.9583 138.179 44.8343 139.41 44.8343C139.975 44.8343 140.443 44.7868 140.814 44.6875L140.901 47.0874C140.279 47.3201 139.459 47.4372 138.443 47.4372C137.195 47.4372 136.219 47.0562 135.515 46.2943C134.813 45.5324 134.461 44.2562 134.461 42.4597V35.2899H132.385V32.9182H134.461V30.3138L137.565 29.377V32.9182H141.05V35.2958ZM156.74 39.919C156.74 42.1054 156.114 43.9004 154.866 45.3042C153.559 46.7494 151.822 47.4698 149.655 47.4698C147.565 47.4698 145.903 46.7776 144.663 45.3946C143.423 44.0086 142.804 42.2625 142.804 40.1562C142.804 37.952 143.444 36.1466 144.721 34.7429C146 33.3377 147.723 32.6351 149.89 32.6351C151.977 32.6351 153.654 33.3288 154.923 34.7132C156.136 36.0562 156.74 37.7905 156.74 39.919ZM153.463 39.9917C153.463 38.6887 153.181 37.5711 152.616 36.6358C151.953 35.5063 151.005 34.9415 149.775 34.9415C148.509 34.9415 147.538 35.5063 146.877 36.6358C146.31 37.5711 146.029 38.708 146.029 40.051C146.029 41.3554 146.31 42.476 146.877 43.4083C147.56 44.5378 148.514 45.1026 149.749 45.1026C150.957 45.1026 151.905 44.526 152.59 43.3802C153.171 42.4226 153.463 41.2976 153.463 39.9917ZM167.019 35.7034C166.69 35.6441 166.357 35.6148 166.023 35.616C164.911 35.616 164.051 36.034 163.446 36.8759C162.921 37.617 162.657 38.5538 162.657 39.6848V47.1481H159.496V37.4036C159.499 35.9104 159.468 34.4174 159.404 32.9256H162.157L162.273 35.6471H162.361C162.696 34.7118 163.221 33.9573 163.941 33.3925C164.601 32.899 165.402 32.6318 166.226 32.6306C166.518 32.6306 166.782 32.6514 167.016 32.6884L167.019 35.7034ZM181.157 39.3632C181.165 39.8436 181.126 40.3236 181.041 40.7965H171.558C171.593 42.2017 172.053 43.2779 172.934 44.019C173.733 44.6801 174.766 45.0122 176.036 45.0122C177.44 45.0122 178.721 44.7898 179.873 44.3407L180.368 46.533C179.022 47.12 177.432 47.412 175.598 47.412C173.392 47.412 171.66 46.7627 170.4 45.4672C169.142 44.1702 168.512 42.4271 168.512 40.2437C168.512 38.1003 169.098 36.3141 170.271 34.8896C171.498 33.3688 173.158 32.6084 175.245 32.6084C177.296 32.6084 178.848 33.3688 179.902 34.8896C180.737 36.0947 181.157 37.5889 181.157 39.3632ZM178.142 38.5435C178.165 37.6052 177.957 36.7973 177.529 36.114C176.982 35.2335 176.139 34.7948 175.011 34.7948C173.978 34.7948 173.135 35.2232 172.495 36.0829C171.969 36.7662 171.656 37.5874 171.559 38.5405L178.142 38.5435Z" fill="white"/>
<path d="M67.0777 20.4482C66.1984 20.4482 65.4378 20.4052 64.8047 20.3325V10.7955C65.6902 10.6588 66.585 10.5914 67.481 10.5939C71.1062 10.5939 72.7757 12.3771 72.7757 15.2839C72.7757 18.6368 70.8037 20.4482 67.0777 20.4482ZM67.6085 11.8168C67.1192 11.8168 66.7025 11.8465 66.3571 11.9176V19.1675C66.5439 19.1971 66.9027 19.2104 67.4068 19.2104C69.7821 19.2104 71.1343 17.8586 71.1343 15.3269C71.1343 13.0693 69.9111 11.8168 67.6085 11.8168ZM77.9785 20.5208C75.9353 20.5208 74.6113 18.9955 74.6113 16.9248C74.6113 14.7666 75.9635 13.2279 78.0942 13.2279C80.1077 13.2279 81.4614 14.6806 81.4614 16.8106C81.4614 18.9955 80.0662 20.5208 77.9785 20.5208ZM78.0378 14.3634C76.9154 14.3634 76.1963 15.4128 76.1963 16.8803C76.1963 18.3196 76.9302 19.369 78.023 19.369C79.1157 19.369 79.8497 18.247 79.8497 16.8506C79.8497 15.4277 79.1306 14.3634 78.0378 14.3634ZM93.1125 13.3717L90.9255 20.3622H89.5006L88.5947 17.3265C88.3694 16.5839 88.1819 15.8304 88.0327 15.0689H88.0031C87.8889 15.8308 87.6724 16.5942 87.4426 17.3265L86.4788 20.3622H85.0391L82.9811 13.3717H84.578L85.3698 16.695C85.5566 17.4865 85.7138 18.2336 85.8442 18.9392H85.8739C85.9881 18.3507 86.1749 17.6155 86.4492 16.7098L87.4426 13.3732H88.7088L89.6592 16.6387C89.8891 17.4302 90.0759 18.2069 90.2212 18.9407H90.2627C90.3635 18.2218 90.5222 17.4584 90.7372 16.6387L91.5868 13.3732L93.1125 13.3717ZM101.164 20.3622H99.6097V16.3482C99.6097 15.1119 99.1352 14.4923 98.1996 14.4923C97.2789 14.4923 96.6457 15.2839 96.6457 16.2044V20.3622H95.0919V15.3698C95.0919 14.7517 95.077 14.0892 95.034 13.3702H96.4011L96.4738 14.4493H96.5167C96.9349 13.7023 97.783 13.2279 98.7334 13.2279C100.201 13.2279 101.165 14.35 101.165 16.1762L101.164 20.3622ZM105.449 20.3622H103.893V10.1641H105.449V20.3622ZM111.114 20.5208C109.072 20.5208 107.747 18.9955 107.747 16.9248C107.747 14.7666 109.099 13.2279 111.228 13.2279C113.243 13.2279 114.595 14.6806 114.595 16.8106C114.597 18.9955 113.2 20.5208 111.114 20.5208ZM111.172 14.3634C110.049 14.3634 109.33 15.4128 109.33 16.8803C109.33 18.3196 110.066 19.369 111.155 19.369C112.25 19.369 112.982 18.247 112.982 16.8506C112.984 15.4277 112.266 14.3634 111.172 14.3634ZM120.722 20.3622L120.609 19.5573H120.568C120.093 20.2051 119.401 20.5208 118.523 20.5208C117.27 20.5208 116.381 19.6433 116.381 18.4634C116.381 16.738 117.877 15.8457 120.467 15.8457V15.7167C120.467 14.7962 119.979 14.3352 119.015 14.3352C118.326 14.3352 117.721 14.5086 117.189 14.854L116.873 13.8327C117.519 13.4295 118.326 13.2279 119.273 13.2279C121.1 13.2279 122.022 14.1914 122.022 16.1199V18.6946C122.022 19.4002 122.053 19.9471 122.123 20.3637L120.722 20.3622ZM120.508 16.8803C118.783 16.8803 117.917 17.2983 117.917 18.2899C117.917 19.0237 118.363 19.3824 118.983 19.3824C119.773 19.3824 120.508 18.7791 120.508 17.9594V16.8803ZM129.568 20.3622L129.495 19.2401H129.452C129.006 20.088 128.255 20.5208 127.207 20.5208C125.521 20.5208 124.273 19.0385 124.273 16.9529C124.273 14.7666 125.567 13.2265 127.335 13.2265C128.27 13.2265 128.933 13.5422 129.307 14.1766H129.338V10.1641H130.893V18.4782C130.893 19.1541 130.91 19.7871 130.951 20.3622H129.568ZM129.338 16.2488C129.338 15.2705 128.69 14.436 127.701 14.436C126.549 14.436 125.845 15.4573 125.845 16.8951C125.845 18.3048 126.576 19.2697 127.67 19.2697C128.647 19.2697 129.338 18.4204 129.338 17.4139V16.2488ZM140.755 20.5208C138.713 20.5208 137.389 18.9955 137.389 16.9248C137.389 14.7666 138.741 13.2279 140.87 13.2279C142.885 13.2279 144.238 14.6806 144.238 16.8106C144.239 18.9955 142.844 20.5208 140.755 20.5208ZM140.813 14.3634C139.692 14.3634 138.972 15.4128 138.972 16.8803C138.972 18.3196 139.706 19.369 140.798 19.369C141.892 19.369 142.624 18.247 142.624 16.8506C142.627 15.4277 141.908 14.3634 140.813 14.3634ZM152.594 20.3622H151.039V16.3482C151.039 15.1119 150.564 14.4923 149.629 14.4923C148.708 14.4923 148.076 15.2839 148.076 16.2044V20.3622H146.521V15.3698C146.521 14.7517 146.506 14.0892 146.463 13.3702H147.83L147.903 14.4493H147.946C148.362 13.7023 149.212 13.2265 150.161 13.2265C151.629 13.2265 152.594 14.3486 152.594 16.1747V20.3622ZM163.049 14.5368H161.339V17.9312C161.339 18.7954 161.639 19.2267 162.244 19.2267C162.518 19.2267 162.748 19.1971 162.933 19.1541L162.976 20.334C162.675 20.4496 162.272 20.5074 161.771 20.5074C160.546 20.5074 159.813 19.8315 159.813 18.0617V14.5368H158.793V13.3717H159.813V12.091L161.339 11.63V13.3702H163.049V14.5368ZM171.275 20.3622H169.722V16.3778C169.722 15.1267 169.249 14.4938 168.312 14.4938C167.507 14.4938 166.757 15.0408 166.757 16.148V20.3622H165.204V10.1641H166.757V14.3634H166.788C167.277 13.6015 167.986 13.2265 168.89 13.2265C170.37 13.2265 171.275 14.3767 171.275 16.2044V20.3622ZM179.702 17.2405H175.039C175.069 18.5642 175.945 19.3112 177.243 19.3112C177.932 19.3112 178.567 19.1956 179.127 18.9807L179.369 20.0598C178.707 20.3474 177.929 20.4911 177.023 20.4911C174.836 20.4911 173.542 19.1096 173.542 16.9677C173.542 14.8244 174.867 13.2131 176.848 13.2131C178.635 13.2131 179.756 14.5368 179.756 16.5364C179.766 16.7724 179.748 17.0087 179.702 17.2405ZM178.277 16.1332C178.277 15.0541 177.733 14.2922 176.74 14.2922C175.847 14.2922 175.142 15.0689 175.041 16.1332H178.277Z" fill="white"/>
</svg>
